<svg width="662" height="420" xmlns="http://www.w3.org/2000/svg">
    <defs>
        <linearGradient x1="100%" y1="29.844%" x2="51.55%" y2="70.156%" id="a">
            <stop stop-color="#EEE6F5" offset="0%"/>
            <stop stop-color="#FFF" offset="100%"/>
            <stop stop-color="#FFF" offset="100%"/>
            <stop stop-color="#FFF" offset="100%"/>
        </linearGradient>
    </defs>
    <g fill="none" fill-rule="evenodd">
        <rect x="82" width="580" height="420" rx="5"/>
        <path d="M262.5 420c220.362 0 399-94.02 399-210S482.862 0 262.5 0 0 89.82 0 205.8C0 321.78 42.138 420 262.5 420Z" fill="url(#a)" fill-rule="nonzero"/>
        <path d="m151.167 109.749 52.432 29.756-.084.047 33.616 19.078.153-.086 52.432 29.757-24.562 13.942.272.154-52.431 29.764-51.744-29.362-.147.085-52.44-29.757.086-.05-34.31-19.468 24.562-13.942-.274-.154 52.44-29.764ZM477.555 345.07l-74.92 43.272-74.929-43.261 74.929-43.272zM551.424 121.352l-74.919 43.271-74.93-43.261 74.93-43.272z" fill="#E1CFF0"/>
        <path stroke="#933CDD" stroke-width="2" d="m500.101 132.965 133.635 75.978L420.57 333.467"/>
        <path stroke="#933CDD" stroke-width="2" d="m506.433 132.965 133.634 75.978-213.165 124.524M165.193 158.291l117.253 68.955-47.545 27.689 162.453 93.306"/>
        <path stroke="#933CDD" stroke-width="2" d="m171.525 158.291 117.253 68.955-47.546 27.689 162.453 93.306"/>
        <path stroke="#933CDD" stroke-width="2" d="m177.856 158.291 117.254 68.955-47.546 27.689 162.453 93.306M215.846 179.397l96.904-56.993 73.327 42.62 91.478-53.165"/>
        <path stroke="#933CDD" stroke-width="2" d="m215.846 183.618 96.904-56.993 73.327 42.62 91.478-53.165"/>
        <path stroke="#933CDD" stroke-width="2" d="m215.846 187.839 96.904-56.993 73.327 42.621 91.478-53.165"/>
        <g fill-rule="nonzero">
            <path fill="#B5D6F3" d="m198.962 130.35-51.701 30.37-51.71-30.362 51.71-30.369z"/>
            <path d="M147.26 160.727v20.779a6.923 6.923 0 0 0 3.442-.832l22.398-13.128 23.79-13.98a4.647 4.647 0 0 0 2.072-3.647V130.35l-51.702 30.376Z" fill="#3C80B6"/>
            <path d="M95.545 130.35v19.54a4.67 4.67 0 0 0 2.072 3.646l20.556 12.078 25.646 15.06a6.902 6.902 0 0 0 3.441.832v-20.779l-51.715-30.376Z" fill="#6AA6D6"/>
            <path fill="#B5D6F3" d="m198.962 107.581-51.701 30.362-51.71-30.362 51.71-30.369z"/>
            <path fill="#3C80B6" d="m198.962 122.758-51.708 30.37.007-15.185 51.7-30.362z"/>
            <path fill="#6AA6D6" d="m147.254 153.127-51.702-30.369v-15.177l51.709 30.362z"/>
            <path fill="#22689F" d="M192.502 130.35v-3.792l-45.248 26.57.007 3.8z"/>
            <path fill="#22689F" d="m98.779 124.662.007 3.792 48.475 28.473-.007-3.8z"/>
            <path fill="#B5D6F3" d="m198.962 84.804-51.701 30.37-51.71-30.37 51.71-30.369z"/>
            <path fill="#3C80B6" d="m198.962 99.99-51.708 30.368.007-15.185 51.7-30.369z"/>
            <path fill="#6AA6D6" d="M147.254 130.358 95.552 99.99V84.804l51.709 30.37z"/>
            <path fill="#22689F" d="M192.502 107.581v-3.8l-45.248 26.577.007 3.792zM98.779 101.885l.007 3.792 48.475 28.473-.007-3.792zM192.502 84.804v-3.8l-45.248 26.577.007 3.792zM98.779 79.108l.007 3.792 48.475 28.473-.007-3.792z"/>
            <path fill="#B5D6F3" d="m198.962 62.027-51.701 30.37-51.71-30.37 51.71-30.369z"/>
            <path fill="#3C80B6" d="m198.962 77.212-51.708 30.37.007-15.186 51.7-30.369z"/>
            <path fill="#6AA6D6" d="M147.254 107.581 95.552 77.212V62.027l51.709 30.37z"/>
            <path d="m99.825 136.66 6.073 3.551a3.864 3.864 0 0 1 1.72 3.034v3.545c0 1.116-.767 1.568-1.72 1.006l-6.073-3.544a3.893 3.893 0 0 1-1.728-3.034v-3.552c0-1.138.775-1.59 1.728-1.007Z" opacity=".75" fill="#22689F"/>
            <path d="M102.55 140.722a3.374 3.374 0 0 1 1.498 2.633c0 .977-.674 1.37-1.498.882a3.396 3.396 0 0 1-1.499-2.64c0-.97.674-1.364 1.499-.875Z" fill="#18C3BB"/>
            <path d="m99.825 113.846 6.073 3.545a3.886 3.886 0 0 1 1.72 3.034v3.551c0 1.116-.767 1.569-1.72 1.007l-6.073-3.552a3.87 3.87 0 0 1-1.728-3.005v-3.573c0-1.116.775-1.532 1.728-1.007Z" opacity=".75" fill="#22689F"/>
            <path d="M102.55 117.93a3.374 3.374 0 0 1 1.498 2.633c0 .97-.674 1.364-1.498.883a3.396 3.396 0 0 1-1.499-2.64c0-.97.674-1.364 1.499-.876Z" fill="#18C3BB"/>
            <path d="m99.825 91.062 6.073 3.552a3.886 3.886 0 0 1 1.72 3.034v3.544c0 1.123-.767 1.576-1.72 1.014l-6.073-3.552a3.879 3.879 0 0 1-1.728-3.034v-3.544c0-1.116.775-1.568 1.728-1.014Z" opacity=".75" fill="#22689F"/>
            <path d="M102.55 95.146a3.396 3.396 0 0 1 1.498 2.64c0 .97-.674 1.364-1.498.883a3.396 3.396 0 0 1-1.499-2.64c0-.941.674-1.364 1.499-.883Z" fill="#18C3BB"/>
            <path d="m99.825 68.314 6.073 3.552a3.872 3.872 0 0 1 1.72 3.034v3.545c0 1.115-.767 1.568-1.72 1.013l-6.073-3.551a3.893 3.893 0 0 1-1.728-3.034v-3.545c0-1.123.775-1.575 1.728-1.014Z" opacity=".75" fill="#22689F"/>
            <path d="M102.55 72.398a3.374 3.374 0 0 1 1.498 2.64c0 .97-.674 1.364-1.498.876a3.374 3.374 0 0 1-1.499-2.64c0-.97.674-1.364 1.499-.876Z" fill="#18C3BB"/>
            <path d="m194.007 137.068-25.639 15.053a3.908 3.908 0 0 0-1.72 3.041v3.545c0 1.116.774 1.568 1.72 1.006l25.64-15.03a3.893 3.893 0 0 0 1.727-3.035v-3.552c0-1.138-.774-1.59-1.728-1.028Z" fill="#22689F"/>
            <path d="M193.914 140.065v1.7a.732.732 0 0 1-.344.605l-.387.233c-.186.11-.344 0-.344-.204v-1.72a.776.776 0 0 1 .344-.606l.387-.226c.194-.095.344 0 .344.218ZM192.172 141.086v1.722a.732.732 0 0 1-.344.605l-.387.233c-.187.11-.344 0-.344-.204v-1.721a.776.776 0 0 1 .344-.605l.387-.226c.193-.117.344-.022.344.196ZM190.437 142.108v1.72a.776.776 0 0 1-.344.606l-.395.233c-.186.11-.344 0-.344-.204v-1.721a.776.776 0 0 1 .344-.605l.395-.226c.186-.146.344-.022.344.197Z" fill="#18C3BB"/>
            <path d="M188.695 143.129v1.72a.776.776 0 0 1-.344.606l-.388.234c-.193.109-.344 0-.344-.205v-1.72a.732.732 0 0 1 .344-.606l.388-.226c.186-.117.344-.022.344.197ZM186.952 144.15v1.72a.776.776 0 0 1-.344.606l-.387.234c-.193.109-.344 0-.344-.205v-1.72a.732.732 0 0 1 .344-.606l.387-.226c.187-.117.344 0 .344.197Z" fill="#0E4D7F"/>
            <path d="M185.224 145.17v1.7a.732.732 0 0 1-.344.605l-.387.234c-.193.11-.344 0-.344-.204v-1.722a.732.732 0 0 1 .344-.605l.387-.226c.18-.095.344 0 .344.219ZM183.468 146.192v1.721a.732.732 0 0 1-.344.605l-.387.234a.212.212 0 0 1-.24.015.22.22 0 0 1-.105-.22v-1.72a.776.776 0 0 1 .345-.606l.387-.226c.193-.117.344-.022.344.197ZM181.726 147.213v1.721a.732.732 0 0 1-.345.605l-.387.234a.212.212 0 0 1-.24.015.22.22 0 0 1-.104-.22v-1.72a.776.776 0 0 1 .344-.606l.387-.226c.194-.146.345-.022.345.197ZM179.99 148.234v1.721a.776.776 0 0 1-.344.605l-.394.234a.212.212 0 0 1-.24.015.22.22 0 0 1-.104-.22v-1.72a.776.776 0 0 1 .344-.606l.394-.226c.187-.117.345-.022.345.197ZM178.248 149.255v1.721a.776.776 0 0 1-.344.605l-.387.234c-.194.11-.344 0-.344-.204v-1.722a.732.732 0 0 1 .344-.605l.387-.226c.187-.117.344 0 .344.197ZM176.506 150.276v1.7a.776.776 0 0 1-.344.605l-.387.233c-.194.11-.344 0-.344-.204v-1.721a.732.732 0 0 1 .344-.606l.387-.226c.186-.095.344 0 .344.219ZM174.764 151.297v1.721a.732.732 0 0 1-.344.606l-.388.233c-.193.11-.344 0-.344-.204v-1.721a.732.732 0 0 1 .344-.606l.388-.226c.193-.117.344-.022.344.197Z" fill="#18C3BB"/>
            <path d="M173.036 152.318v1.721a.732.732 0 0 1-.344.606l-.373.248a.212.212 0 0 1-.24.015.22.22 0 0 1-.104-.22v-1.72a.776.776 0 0 1 .344-.606l.387-.226c.165-.16.33-.037.33.182Z" fill="#0E4D7F"/>
            <path d="M171.28 153.34v1.72a.732.732 0 0 1-.345.606l-.387.226c-.186.116-.344 0-.344-.197v-1.721a.776.776 0 0 1 .344-.606l.387-.226c.194-.116.344-.022.344.197ZM169.544 154.36v1.721a.776.776 0 0 1-.344.606l-.394.226c-.187.117-.344 0-.344-.197v-1.721a.776.776 0 0 1 .344-.606l.394-.233a.212.212 0 0 1 .24-.016.22.22 0 0 1 .104.22Z" fill="#18C3BB"/>
            <path d="m194.007 114.298-25.639 15.068a3.901 3.901 0 0 0-1.72 3.034v3.53c0 1.123.774 1.575 1.72 1.014l25.64-15.06a3.871 3.871 0 0 0 1.727-3.035v-3.544c0-1.116-.774-1.568-1.728-1.007Z" fill="#22689F"/>
            <path d="M193.914 117.296v1.721a.732.732 0 0 1-.344.605l-.387.226c-.186.117-.344 0-.344-.196v-1.722a.776.776 0 0 1 .344-.605l.387-.233c.194-.124.344-.015.344.204Z" fill="#18C3BB"/>
            <path d="M192.172 118.317v1.721a.732.732 0 0 1-.344.605l-.387.227c-.187.116-.344 0-.344-.197v-1.722a.776.776 0 0 1 .344-.605l.387-.233c.193-.11.344-.015.344.204Z" fill="#0E4D7F"/>
            <path d="M190.437 119.338v1.721a.776.776 0 0 1-.344.606l-.395.226c-.186.116-.344 0-.344-.197v-1.722a.776.776 0 0 1 .344-.605l.395-.233a.212.212 0 0 1 .24-.016.22.22 0 0 1 .104.22ZM188.695 120.359v1.714a.776.776 0 0 1-.344.605l-.388.226c-.193.117-.344 0-.344-.197v-1.72a.732.732 0 0 1 .344-.606l.388-.233a.212.212 0 0 1 .243-.015.22.22 0 0 1 .1.226Z" fill="#18C3BB"/>
            <path d="M186.952 121.38v1.721a.776.776 0 0 1-.344.606l-.387.226c-.193.116-.344 0-.344-.197v-1.721a.732.732 0 0 1 .344-.606l.387-.233c.187-.11.344-.022.344.204Z" fill="#0E4D7F"/>
            <path d="M185.224 122.401v1.721a.732.732 0 0 1-.344.606l-.372.262c-.194.117-.345 0-.345-.197v-1.72a.732.732 0 0 1 .345-.606l.387-.234c.165-.16.33-.058.33.168ZM183.468 123.422v1.721a.732.732 0 0 1-.344.606l-.387.226c-.187.117-.345 0-.345-.197v-1.721a.776.776 0 0 1 .345-.606l.387-.233c.193-.11.344-.022.344.204ZM181.726 124.443v1.721a.732.732 0 0 1-.345.606l-.387.226c-.186.117-.344 0-.344-.197v-1.721a.776.776 0 0 1 .344-.606l.387-.233c.194-.11.345-.022.345.204Z" fill="#18C3BB"/>
            <path d="M179.99 125.464v1.714a.776.776 0 0 1-.344.606l-.394.226c-.186.116-.344 0-.344-.197v-1.721a.776.776 0 0 1 .344-.606l.394-.233c.187-.102.345-.015.345.211Z" fill="#0E4D7F"/>
            <path d="M178.248 126.485v1.722a.776.776 0 0 1-.344.605l-.387.226c-.194.117-.344 0-.344-.197v-1.721a.732.732 0 0 1 .344-.605l.387-.234c.187-.11.344-.022.344.204Z" fill="#18C3BB"/>
            <path d="M176.506 127.506v1.722a.776.776 0 0 1-.344.605l-.387.226c-.194.117-.344 0-.344-.197v-1.721a.732.732 0 0 1 .344-.605l.387-.234c.186-.124.344-.022.344.204Z" fill="#0E4D7F"/>
            <path d="M174.764 128.527v1.722a.732.732 0 0 1-.344.605l-.388.226c-.193.117-.344 0-.344-.197v-1.721a.732.732 0 0 1 .344-.605l.388-.234c.193-.11.344-.022.344.204Z" fill="#18C3BB"/>
            <path d="M173.036 129.549v1.72a.768.768 0 0 1-.344.606l-.387.226c-.187.117-.345 0-.345-.197v-1.721a.805.805 0 0 1 .345-.613l.387-.226c.179-.11.344-.022.344.205Z" fill="#0E4D7F"/>
            <path d="M171.28 130.57v1.714a.768.768 0 0 1-.345.605l-.387.226c-.186.117-.344 0-.344-.197v-1.721a.805.805 0 0 1 .344-.613l.387-.226c.194-.102.344-.015.344.212ZM169.544 131.59v1.722a.79.79 0 0 1-.344.605l-.394.226c-.187.117-.344 0-.344-.197v-1.72a.805.805 0 0 1 .344-.613l.394-.227c.186-.109.344-.021.344.205Z" fill="#18C3BB"/>
            <path d="m194.007 91.5-25.639 15.053a3.908 3.908 0 0 0-1.72 3.041v3.545c0 1.116.774 1.568 1.72 1.006l25.64-15.053a3.893 3.893 0 0 0 1.727-3.034v-3.552c0-1.116-.774-1.568-1.728-1.006Z" fill="#22689F"/>
            <path d="M193.914 94.497v1.721a.732.732 0 0 1-.344.606l-.387.233c-.186.11-.344 0-.344-.204v-1.721a.776.776 0 0 1 .344-.606l.387-.226c.194-.117.344-.022.344.197ZM192.172 95.518v1.758a.732.732 0 0 1-.344.605l-.387.234c-.187.109-.344 0-.344-.205v-1.72a.776.776 0 0 1 .344-.606l.387-.226c.193-.153.344-.059.344.16ZM190.437 96.546v1.722a.776.776 0 0 1-.344.605l-.395.233a.212.212 0 0 1-.24.016.22.22 0 0 1-.104-.22v-1.721a.776.776 0 0 1 .344-.605l.395-.226c.186-.124.344-.03.344.196ZM188.695 97.56v1.721a.776.776 0 0 1-.344.606l-.388.233c-.193.11-.344 0-.344-.204v-1.721a.732.732 0 0 1 .344-.606l.388-.226c.186-.087.344-.022.344.197Z" fill="#18C3BB"/>
            <path d="M186.952 98.581v1.722a.776.776 0 0 1-.344.605l-.387.233c-.193.11-.344 0-.344-.204v-1.721a.732.732 0 0 1 .344-.606l.387-.226c.187-.116.344-.021.344.197ZM185.224 99.602v1.722a.732.732 0 0 1-.344.605l-.387.233c-.193.11-.344 0-.344-.204v-1.721a.732.732 0 0 1 .344-.605l.387-.227c.18-.116.344-.021.344.197Z" fill="#37474F"/>
            <path d="M183.468 100.623v1.758a.732.732 0 0 1-.344.605l-.387.234a.212.212 0 0 1-.24.015.22.22 0 0 1-.105-.22v-1.72a.776.776 0 0 1 .345-.606l.387-.226c.193-.153.344-.058.344.16ZM181.726 101.652v1.721a.732.732 0 0 1-.345.605l-.387.234a.212.212 0 0 1-.24.015.22.22 0 0 1-.104-.22v-1.72a.776.776 0 0 1 .344-.606l.387-.226c.194-.124.345-.03.345.197ZM179.99 102.666v1.72a.776.776 0 0 1-.344.606l-.394.233a.212.212 0 0 1-.24.016.22.22 0 0 1-.104-.22v-1.72a.776.776 0 0 1 .344-.606l.394-.226c.187-.088.345-.022.345.197Z" fill="#18C3BB"/>
            <path d="M178.248 103.687v1.72a.776.776 0 0 1-.344.606l-.387.226c-.194.117-.344 0-.344-.197v-1.72a.732.732 0 0 1 .344-.606l.387-.226c.187-.117.344-.022.344.197Z" fill="#37474F"/>
            <path d="M176.506 104.708v1.72a.776.776 0 0 1-.344.606l-.387.226c-.194.117-.344 0-.344-.197v-1.72a.732.732 0 0 1 .344-.606l.387-.234a.212.212 0 0 1 .24-.015.22.22 0 0 1 .104.22ZM174.764 105.729v1.757a.732.732 0 0 1-.344.606l-.388.226c-.193.117-.344 0-.344-.197V106.4a.732.732 0 0 1 .344-.606l.388-.233c.193-.146.344-.051.344.168Z" fill="#18C3BB"/>
            <path d="M173.036 106.757v1.721a.732.732 0 0 1-.344.606l-.387.226c-.187.116-.345 0-.345-.197v-1.721a.776.776 0 0 1 .359-.635l.387-.233c.165-.088.33.007.33.233Z" fill="#37474F"/>
            <path d="M171.28 107.77v1.722a.732.732 0 0 1-.345.605l-.387.226c-.186.117-.344 0-.344-.196v-1.722a.776.776 0 0 1 .344-.605l.387-.233c.194-.08.344-.015.344.204Z" fill="#18C3BB"/>
            <path d="M169.544 108.792v1.721a.776.776 0 0 1-.344.605l-.394.227c-.187.116-.344 0-.344-.197v-1.722a.776.776 0 0 1 .344-.605l.394-.233a.212.212 0 0 1 .24-.016.22.22 0 0 1 .104.22Z" fill="#37474F"/>
            <path d="m194.007 68.737-25.639 15.06a3.901 3.901 0 0 0-1.72 3.035v3.544c0 1.116.774 1.576 1.72 1.014l25.64-15.06a3.879 3.879 0 0 0 1.727-3.034V69.75c0-1.116-.774-1.568-1.728-1.014Z" fill="#22689F"/>
            <path d="M193.914 71.75v1.72a.768.768 0 0 1-.344.606l-.387.226c-.186.117-.344 0-.344-.204v-1.714a.805.805 0 0 1 .344-.613l.387-.226c.194-.117.344-.029.344.204Z" fill="#18C3BB"/>
            <path d="M192.172 72.763v1.721a.768.768 0 0 1-.344.606l-.387.226c-.187.11-.344 0-.344-.204v-1.714a.805.805 0 0 1 .344-.613l.387-.226c.193-.08.344-.022.344.204Z" fill="#0E4D7F"/>
            <path d="M190.437 73.784v1.721a.79.79 0 0 1-.344.606l-.395.226c-.186.11-.344 0-.344-.204v-1.714a.805.805 0 0 1 .344-.613l.395-.226c.186-.11.344-.022.344.204ZM188.695 74.805v1.721a.79.79 0 0 1-.344.606l-.388.226c-.193.11-.344 0-.344-.204V75.44a.783.783 0 0 1 .344-.613l.388-.226c.186-.11.344-.022.344.204ZM186.952 75.826v1.758a.79.79 0 0 1-.344.605l-.387.226c-.193.11-.344 0-.344-.204v-1.714a.783.783 0 0 1 .344-.612l.387-.226c.187-.146.344-.059.344.167Z" fill="#18C3BB"/>
            <path d="M185.224 76.855v1.72a.768.768 0 0 1-.344.606l-.387.226c-.193.11-.344 0-.344-.204V77.49a.783.783 0 0 1 .359-.634l.387-.226c.165-.095.33-.008.33.226ZM183.468 77.868v1.722a.768.768 0 0 1-.344.605l-.387.226c-.187.11-.345 0-.345-.204v-1.714a.805.805 0 0 1 .345-.613l.387-.226c.193-.08.344-.022.344.204Z" fill="#0E4D7F"/>
            <path d="M181.726 78.89v1.72a.768.768 0 0 1-.345.606l-.387.226c-.186.11-.344 0-.344-.204v-1.714a.805.805 0 0 1 .344-.613l.387-.226c.194-.11.345-.022.345.204Z" fill="#18C3BB"/>
            <path d="M179.99 79.91v1.722a.79.79 0 0 1-.344.605l-.394.226c-.186.11-.344 0-.344-.204v-1.714a.805.805 0 0 1 .344-.613l.394-.226c.187-.11.345-.022.345.205Z" fill="#0E4D7F"/>
            <path d="M178.248 80.932v1.757a.79.79 0 0 1-.344.606l-.387.226c-.194.11-.344 0-.344-.204v-1.722a.783.783 0 0 1 .344-.605l.387-.226c.187-.146.344-.058.344.168ZM176.506 81.96v1.721a.79.79 0 0 1-.344.606l-.387.226c-.194.109-.344 0-.344-.205v-1.72a.783.783 0 0 1 .344-.606l.387-.226c.186-.117.344-.03.344.204ZM174.764 82.974v1.72a.783.783 0 0 1-.344.606l-.388.226c-.193.11-.344 0-.344-.204v-1.721a.783.783 0 0 1 .344-.605l.388-.226c.193-.08.344-.022.344.204Z" fill="#18C3BB"/>
            <path d="M173.036 83.995v1.721a.783.783 0 0 1-.344.605l-.387.226c-.187.11-.345 0-.345-.204v-1.721a.798.798 0 0 1 .345-.605l.387-.226c.179-.11.344-.022.344.204Z" fill="#0E4D7F"/>
            <path d="M171.28 85.016v1.721a.783.783 0 0 1-.345.605l-.387.226c-.186.11-.344 0-.344-.204v-1.72a.798.798 0 0 1 .344-.606l.387-.226c.194-.11.344-.022.344.204ZM169.544 86.037v1.758a.798.798 0 0 1-.344.605l-.394.226c-.187.11-.344 0-.344-.204V86.7a.798.798 0 0 1 .344-.606l.394-.226c.186-.146.344-.058.344.168ZM160.97 158.7a3.382 3.382 0 0 0-1.492 2.64c0 .97.667 1.364 1.491.875a3.352 3.352 0 0 0 1.499-2.64c0-.97-.667-1.364-1.499-.875ZM154.473 162.514a3.396 3.396 0 0 0-1.498 2.64c0 .97.674 1.364 1.498.875a3.374 3.374 0 0 0 1.499-2.632c0-.978-.674-1.372-1.499-.883ZM160.97 135.93a3.389 3.389 0 0 0-1.492 2.64c0 .97.667 1.364 1.491.875a3.352 3.352 0 0 0 1.499-2.632c0-.978-.667-1.372-1.499-.883ZM154.473 139.737a3.396 3.396 0 0 0-1.498 2.64c0 .97.674 1.364 1.498.883a3.396 3.396 0 0 0 1.499-2.64c0-.97-.674-1.364-1.499-.883ZM160.97 113.146a3.389 3.389 0 0 0-1.492 2.64c0 .97.667 1.364 1.491.883a3.374 3.374 0 0 0 1.499-2.64c0-.97-.667-1.364-1.499-.883ZM154.473 116.968a3.396 3.396 0 0 0-1.498 2.64c0 .97.674 1.364 1.498.882a3.396 3.396 0 0 0 1.499-2.64c0-.977-.674-1.371-1.499-.882ZM160.97 90.37a3.389 3.389 0 0 0-1.492 2.64c0 .97.667 1.363 1.491.882a3.374 3.374 0 0 0 1.499-2.64c0-.97-.667-1.364-1.499-.883ZM154.473 94.19a3.374 3.374 0 0 0-1.498 2.634c0 .97.674 1.363 1.498.882a3.395 3.395 0 0 0 1.499-2.618c0-.992-.674-1.386-1.499-.897Z" fill="#18C3BB"/>
            <path d="m112.501 97.123 29.461 17.292c.564.371.919.995.954 1.677v8.278c0 .62-.423.875-.954.562l-29.46-17.285c-.565-.374-.92-1-.954-1.685v-8.278c0-.62.423-.868.953-.561Z" fill="#22689F"/>
            <path d="M113.34 100.77c.048.66.402 1.258.954 1.611l25.876 15.185c.53.306.96.087.96-.496a2.099 2.099 0 0 0-.96-1.612l-25.876-15.177c-.53-.307-.954-.088-.954.488Z" fill="#18C3BB"/>
            <path d="M113.34 104.978c.045.661.4 1.261.954 1.611l25.876 15.185c.53.314.96.095.96-.489a2.077 2.077 0 0 0-.96-1.612l-25.876-15.184c-.53-.306-.954-.088-.954.489Z" fill="#FFF"/>
            <path d="m114.294 104.489 14.29 8.38v2.108l-14.297-8.388a2.07 2.07 0 0 1-.954-1.611c.007-.577.43-.795.96-.49Z" fill="#18C3BB"/>
            <path d="m112.501 119.95 29.461 17.293c.565.37.92.995.954 1.677v8.278c0 .62-.423.868-.954.562l-29.46-17.293a2.13 2.13 0 0 1-.954-1.677v-8.278c0-.627.423-.868.953-.561Z" fill="#22689F"/>
            <path d="M113.34 123.597c.045.662.4 1.262.954 1.612l25.876 15.185c.53.313.96.094.96-.489a2.077 2.077 0 0 0-.96-1.612l-25.876-15.184c-.53-.307-.954-.095-.954.488Z" fill="#18C3BB"/>
            <path d="M113.34 127.805c.045.662.4 1.262.954 1.612l25.876 15.185c.53.313.96.087.96-.489a2.077 2.077 0 0 0-.96-1.612l-25.876-15.184c-.53-.314-.954-.095-.954.488Z" fill="#FFF"/>
            <path d="m114.294 127.317 17.874 10.48v2.108l-17.874-10.488a2.07 2.07 0 0 1-.954-1.612c0-.583.423-.802.954-.488Z" fill="#18C3BB"/>
            <path d="m112.501 142.61 29.461 17.293c.565.37.92.995.954 1.678v8.277c0 .62-.423.868-.954.562l-29.46-17.292a2.13 2.13 0 0 1-.954-1.678v-8.278c0-.62.423-.868.953-.561Z" fill="#22689F"/>
            <path d="M113.34 146.257c.045.662.4 1.262.954 1.612l25.876 15.185c.53.313.96.095.96-.489a2.077 2.077 0 0 0-.96-1.612l-25.876-15.184c-.53-.314-.954-.095-.954.488Z" fill="#18C3BB"/>
            <path d="M113.34 150.466c.045.662.4 1.261.954 1.611l25.876 15.214c.53.314.96.088.96-.488a2.077 2.077 0 0 0-.96-1.612l-25.876-15.214c-.53-.314-.954-.095-.954.489Z" fill="#FFF"/>
            <path d="m114.294 149.977 21.459 12.588v2.1l-21.46-12.588a2.07 2.07 0 0 1-.953-1.611c0-.584.423-.803.954-.489Z" fill="#18C3BB"/>
            <path d="m112.501 74.52 29.461 17.286c.564.374.919 1 .954 1.685v8.277c0 .62-.423.868-.954.562l-29.46-17.292c-.566-.374-.92-1-.954-1.685v-8.27c0-.62.423-.876.953-.562Z" fill="#22689F"/>
            <path d="M113.34 78.167a2.07 2.07 0 0 0 .954 1.605l25.876 15.185c.53.306.96.087.96-.49a2.077 2.077 0 0 0-.96-1.61l-25.876-15.178c-.53-.314-.954-.095-.954.488Z" fill="#18C3BB"/>
            <path d="M113.34 82.376c.048.66.402 1.259.954 1.611l25.876 15.185c.53.306.96.088.96-.489a2.099 2.099 0 0 0-.96-1.619L114.294 81.88c-.53-.307-.954-.088-.954.496Z" fill="#FFF"/>
            <path d="m114.294 81.88 23.251 13.645v2.1l-23.251-13.638a2.092 2.092 0 0 1-.954-1.611c0-.584.423-.803.954-.496Z" fill="#18C3BB"/>
            <path d="m148.472 83.407 34.602-20.326c.53-.353.862-.94.896-1.583v-1.182a2.027 2.027 0 0 0-.896-1.582l-34.616-20.327a1.942 1.942 0 0 0-1.793 0l-34.572 20.327c-.53.352-.863.94-.897 1.582v1.182c.034.643.367 1.23.897 1.583l34.623 20.326c.553.28 1.203.28 1.756 0Z" fill="#6AA6D6"/>
            <path d="m183.074 59.784-34.616 20.334a1.942 1.942 0 0 1-1.793 0L112.093 59.79a.561.561 0 0 1-.367-.528c0-.238.147-.45.367-.53l34.623-20.326a1.942 1.942 0 0 1 1.792 0l34.566 20.327c.221.076.37.287.37.525a.554.554 0 0 1-.37.525Z" fill="#B5D6F3"/>
            <path d="M147.569 80.336v3.29c.314.006.625-.07.903-.22l34.602-20.333c.53-.348.863-.934.896-1.575v-1.189a2.033 2.033 0 0 0-.717-1.458c.322.291.272.685-.165.933l-34.616 20.334c-.278.15-.589.225-.903.218Z" fill="#3C80B6"/>
        </g>
        <g fill-rule="nonzero">
            <path fill="#B5D6F3" d="m528.208 98.692-51.701 30.37L424.798 98.7l51.709-30.369z"/>
            <path d="M476.507 129.069v20.778a6.923 6.923 0 0 0 3.441-.831l22.399-13.128 23.789-13.981a4.647 4.647 0 0 0 2.072-3.647V98.692l-51.701 30.377Z" fill="#3C80B6"/>
            <path d="M424.791 98.692v19.54a4.67 4.67 0 0 0 2.072 3.646l20.556 12.077 25.646 15.061a6.902 6.902 0 0 0 3.442.831V129.07L424.79 98.692Z" fill="#6AA6D6"/>
            <path fill="#B5D6F3" d="m528.208 75.923-51.701 30.362-51.709-30.362 51.709-30.369z"/>
            <path fill="#3C80B6" d="M528.208 91.1 476.5 121.469l.007-15.184 51.701-30.362z"/>
            <path fill="#6AA6D6" d="M476.5 121.469 424.798 91.1V75.923l51.709 30.362z"/>
            <path fill="#22689F" d="M521.748 98.692V94.9L476.5 121.469l.007 3.8zM428.025 93.004l.007 3.792 48.475 28.473-.007-3.8z"/>
            <path fill="#B5D6F3" d="m528.208 53.146-51.701 30.369-51.709-30.369 51.709-30.369z"/>
            <path fill="#3C80B6" d="M528.208 68.331 476.5 98.7l.007-15.185 51.701-30.369z"/>
            <path fill="#6AA6D6" d="m476.5 98.7-51.702-30.369V53.146l51.709 30.369z"/>
            <path fill="#22689F" d="M521.748 75.923v-3.8L476.5 98.7l.007 3.792z"/>
            <path fill="#22689F" d="m428.025 70.227.007 3.792 48.475 28.473-.007-3.792zM521.748 53.146v-3.8L476.5 75.923l.007 3.792z"/>
            <path fill="#22689F" d="m428.025 47.45.007 3.792 48.475 28.473-.007-3.792z"/>
            <path fill="#B5D6F3" d="m528.208 30.369-51.701 30.369-51.709-30.369L476.507 0z"/>
            <path fill="#3C80B6" d="M528.208 45.554 476.5 75.923l.007-15.185 51.701-30.369z"/>
            <path fill="#6AA6D6" d="m476.5 75.923-51.702-30.369V30.369l51.709 30.369z"/>
            <path d="m429.071 105.001 6.073 3.552a3.864 3.864 0 0 1 1.72 3.034v3.545c0 1.115-.766 1.568-1.72 1.006l-6.073-3.545a3.893 3.893 0 0 1-1.728-3.034v-3.551c0-1.138.775-1.59 1.728-1.007Z" opacity=".75" fill="#22689F"/>
            <path d="M431.796 109.064a3.374 3.374 0 0 1 1.498 2.632c0 .978-.674 1.372-1.498.883a3.396 3.396 0 0 1-1.499-2.64c0-.97.674-1.364 1.499-.875Z" fill="#18C3BB"/>
            <path d="m429.071 82.188 6.073 3.544a3.886 3.886 0 0 1 1.72 3.034v3.552c0 1.116-.766 1.568-1.72 1.007l-6.073-3.552a3.87 3.87 0 0 1-1.728-3.005v-3.574c0-1.116.775-1.531 1.728-1.006Z" opacity=".75" fill="#22689F"/>
            <path d="M431.796 86.272a3.374 3.374 0 0 1 1.498 2.633c0 .97-.674 1.364-1.498.882a3.396 3.396 0 0 1-1.499-2.64c0-.97.674-1.364 1.499-.875Z" fill="#18C3BB"/>
            <path d="m429.071 59.404 6.073 3.551a3.886 3.886 0 0 1 1.72 3.034v3.545c0 1.123-.766 1.575-1.72 1.014l-6.073-3.552a3.879 3.879 0 0 1-1.728-3.034v-3.545c0-1.115.775-1.568 1.728-1.013Z" opacity=".75" fill="#22689F"/>
            <path d="M431.796 63.488a3.396 3.396 0 0 1 1.498 2.64c0 .97-.674 1.364-1.498.883a3.396 3.396 0 0 1-1.499-2.64c0-.941.674-1.364 1.499-.883Z" fill="#18C3BB"/>
            <path d="m429.071 36.656 6.073 3.552a3.872 3.872 0 0 1 1.72 3.034v3.544c0 1.116-.766 1.568-1.72 1.014l-6.073-3.552a3.893 3.893 0 0 1-1.728-3.034V37.67c0-1.123.775-1.576 1.728-1.014Z" opacity=".75" fill="#22689F"/>
            <path d="M431.796 40.74a3.374 3.374 0 0 1 1.498 2.64c0 .97-.674 1.364-1.498.876a3.374 3.374 0 0 1-1.499-2.64c0-.97.674-1.364 1.499-.876Z" fill="#18C3BB"/>
            <path d="m523.254 105.41-25.64 15.053a3.908 3.908 0 0 0-1.72 3.041v3.545c0 1.116.774 1.568 1.72 1.006l25.64-15.031a3.893 3.893 0 0 0 1.728-3.034v-3.552c0-1.138-.775-1.59-1.728-1.028Z" fill="#22689F"/>
            <path d="M523.16 108.407v1.7a.732.732 0 0 1-.344.605l-.387.233c-.186.11-.344 0-.344-.204v-1.721a.776.776 0 0 1 .344-.606l.387-.226c.194-.094.345 0 .345.22ZM521.418 109.428v1.721a.732.732 0 0 1-.344.606l-.387.233c-.186.11-.344 0-.344-.204v-1.721a.776.776 0 0 1 .344-.606l.387-.226c.194-.116.344-.022.344.197ZM519.683 110.45v1.72a.776.776 0 0 1-.344.606l-.394.233c-.187.11-.344 0-.344-.204v-1.721a.776.776 0 0 1 .344-.606l.394-.226c.186-.146.344-.022.344.197Z" fill="#18C3BB"/>
            <path d="M517.94 111.47v1.722a.776.776 0 0 1-.343.605l-.387.233c-.194.11-.345 0-.345-.204v-1.721a.732.732 0 0 1 .345-.606l.387-.226c.186-.116.344-.022.344.197ZM516.199 112.491v1.722a.776.776 0 0 1-.345.605l-.387.233c-.193.11-.344 0-.344-.204v-1.721a.732.732 0 0 1 .344-.605l.387-.227c.187-.116.345 0 .345.197Z" fill="#0E4D7F"/>
            <path d="M514.47 113.512v1.7a.732.732 0 0 1-.343.605l-.388.233c-.193.11-.344 0-.344-.204v-1.721a.732.732 0 0 1 .344-.605l.388-.226c.179-.095.344 0 .344.218ZM512.714 114.533v1.722a.732.732 0 0 1-.344.605l-.387.233a.212.212 0 0 1-.24.016.22.22 0 0 1-.104-.22v-1.721a.776.776 0 0 1 .344-.605l.387-.226c.194-.117.344-.022.344.196ZM510.972 115.555v1.72a.732.732 0 0 1-.344.606l-.387.233a.212.212 0 0 1-.24.016.22.22 0 0 1-.105-.22v-1.721a.776.776 0 0 1 .345-.605l.387-.226c.193-.146.344-.022.344.197ZM509.237 116.576v1.72a.776.776 0 0 1-.344.606l-.395.234a.212.212 0 0 1-.24.015.22.22 0 0 1-.104-.22v-1.72a.776.776 0 0 1 .344-.606l.395-.226c.186-.117.344-.022.344.197ZM507.495 117.597v1.72a.776.776 0 0 1-.345.606l-.387.234c-.193.109-.344 0-.344-.205v-1.72a.732.732 0 0 1 .344-.606l.387-.226c.187-.117.345 0 .345.197ZM505.752 118.618v1.699a.776.776 0 0 1-.344.605l-.387.234c-.194.11-.344 0-.344-.204v-1.722a.732.732 0 0 1 .344-.605l.387-.226c.187-.095.344 0 .344.219ZM504.01 119.639v1.721a.732.732 0 0 1-.344.605l-.387.234c-.194.11-.344 0-.344-.205v-1.72a.732.732 0 0 1 .344-.606l.387-.226c.193-.117.344-.022.344.197Z" fill="#18C3BB"/>
            <path d="M502.282 120.66v1.721a.732.732 0 0 1-.344.605l-.373.248a.212.212 0 0 1-.24.016.22.22 0 0 1-.104-.22v-1.721a.776.776 0 0 1 .344-.605l.387-.227c.165-.16.33-.036.33.183Z" fill="#0E4D7F"/>
            <path d="M500.525 121.68v1.722a.732.732 0 0 1-.344.605l-.387.227c-.186.116-.344 0-.344-.197v-1.722a.776.776 0 0 1 .344-.605l.387-.226c.194-.117.344-.022.344.197ZM498.79 122.702v1.721a.776.776 0 0 1-.344.605l-.394.227c-.187.116-.344 0-.344-.197v-1.722a.776.776 0 0 1 .344-.605l.394-.233a.212.212 0 0 1 .24-.016.22.22 0 0 1 .104.22Z" fill="#18C3BB"/>
            <path d="m523.254 82.64-25.64 15.068a3.901 3.901 0 0 0-1.72 3.034v3.53c0 1.123.774 1.575 1.72 1.014l25.64-15.061a3.871 3.871 0 0 0 1.728-3.034v-3.545c0-1.115-.775-1.568-1.728-1.006Z" fill="#22689F"/>
            <path d="M523.16 85.638v1.72a.732.732 0 0 1-.344.606l-.387.226c-.186.117-.344 0-.344-.197v-1.72a.776.776 0 0 1 .344-.606l.387-.234c.194-.124.345-.014.345.205Z" fill="#18C3BB"/>
            <path d="M521.418 86.659v1.72a.732.732 0 0 1-.344.606l-.387.226c-.186.117-.344 0-.344-.197v-1.72a.776.776 0 0 1 .344-.606l.387-.234c.194-.109.344-.014.344.205Z" fill="#0E4D7F"/>
            <path d="M519.683 87.68v1.72a.776.776 0 0 1-.344.606l-.394.226c-.187.117-.344 0-.344-.197v-1.72a.776.776 0 0 1 .344-.606l.394-.234a.212.212 0 0 1 .24-.015.22.22 0 0 1 .104.22ZM517.94 88.7v1.715a.776.776 0 0 1-.343.605l-.387.226c-.194.117-.345 0-.345-.197v-1.721a.732.732 0 0 1 .345-.605l.387-.234a.212.212 0 0 1 .244-.015.22.22 0 0 1 .1.227Z" fill="#18C3BB"/>
            <path d="M516.199 89.722v1.721a.776.776 0 0 1-.345.605l-.387.226c-.193.117-.344 0-.344-.196v-1.722a.732.732 0 0 1 .344-.605l.387-.233c.187-.11.345-.022.345.204Z" fill="#0E4D7F"/>
            <path d="M514.47 90.743v1.721a.732.732 0 0 1-.343.605l-.373.263c-.194.117-.344 0-.344-.197v-1.721a.732.732 0 0 1 .344-.606l.387-.233c.165-.16.33-.058.33.168ZM512.714 91.764v1.721a.732.732 0 0 1-.344.605l-.387.227c-.187.116-.344 0-.344-.197v-1.722a.776.776 0 0 1 .344-.605l.387-.233c.194-.11.344-.022.344.204ZM510.972 92.785v1.721a.732.732 0 0 1-.344.605l-.387.227c-.187.116-.345 0-.345-.197v-1.722a.776.776 0 0 1 .345-.605l.387-.233c.193-.11.344-.022.344.204Z" fill="#18C3BB"/>
            <path d="M509.237 93.806v1.714a.776.776 0 0 1-.344.605l-.395.226c-.186.117-.344 0-.344-.197v-1.72a.776.776 0 0 1 .344-.606l.395-.234c.186-.102.344-.014.344.212Z" fill="#0E4D7F"/>
            <path d="M507.495 94.827v1.721a.776.776 0 0 1-.345.606l-.387.226c-.193.116-.344 0-.344-.197v-1.721a.732.732 0 0 1 .344-.606l.387-.233c.187-.11.345-.022.345.204Z" fill="#18C3BB"/>
            <path d="M505.752 95.848v1.721a.776.776 0 0 1-.344.606l-.387.226c-.194.116-.344 0-.344-.197v-1.721a.732.732 0 0 1 .344-.606l.387-.233c.187-.124.344-.022.344.204Z" fill="#0E4D7F"/>
            <path d="M504.01 96.87v1.72a.732.732 0 0 1-.344.606l-.387.226c-.194.117-.344 0-.344-.197v-1.721a.732.732 0 0 1 .344-.606l.387-.233c.193-.11.344-.022.344.204Z" fill="#18C3BB"/>
            <path d="M502.282 97.89v1.721a.768.768 0 0 1-.344.606l-.387.226c-.187.117-.344 0-.344-.197v-1.721a.805.805 0 0 1 .344-.613l.387-.226c.18-.11.344-.022.344.204Z" fill="#0E4D7F"/>
            <path d="M500.525 98.911v1.714a.768.768 0 0 1-.344.606l-.387.226c-.186.116-.344 0-.344-.197v-1.721a.805.805 0 0 1 .344-.613l.387-.226c.194-.102.344-.015.344.211ZM498.79 99.932v1.722a.79.79 0 0 1-.344.605l-.394.226c-.187.117-.344 0-.344-.197v-1.721a.805.805 0 0 1 .344-.613l.394-.226c.187-.11.344-.022.344.204Z" fill="#18C3BB"/>
            <path d="m523.254 59.841-25.64 15.054a3.908 3.908 0 0 0-1.72 3.04v3.545c0 1.116.774 1.568 1.72 1.007l25.64-15.053a3.893 3.893 0 0 0 1.728-3.034v-3.552c0-1.116-.775-1.568-1.728-1.007Z" fill="#22689F"/>
            <path d="M523.16 62.839v1.721a.732.732 0 0 1-.344.605l-.387.234c-.186.11-.344 0-.344-.204v-1.722a.776.776 0 0 1 .344-.605l.387-.226c.194-.117.345-.022.345.197ZM521.418 63.86v1.758a.732.732 0 0 1-.344.605l-.387.233c-.186.11-.344 0-.344-.204v-1.721a.776.776 0 0 1 .344-.606l.387-.226c.194-.153.344-.058.344.16ZM519.683 64.888v1.721a.776.776 0 0 1-.344.606l-.394.233a.212.212 0 0 1-.24.016.22.22 0 0 1-.104-.22v-1.721a.776.776 0 0 1 .344-.606l.394-.226c.186-.124.344-.029.344.197ZM517.94 65.902v1.721a.776.776 0 0 1-.343.606l-.387.233c-.194.11-.345 0-.345-.204v-1.722a.732.732 0 0 1 .345-.605l.387-.226c.186-.087.344-.022.344.197Z" fill="#18C3BB"/>
            <path d="M516.199 66.923v1.721a.776.776 0 0 1-.345.606l-.387.233c-.193.11-.344 0-.344-.204v-1.721a.732.732 0 0 1 .344-.606l.387-.226c.187-.117.345-.022.345.197ZM514.47 67.944v1.721a.732.732 0 0 1-.343.606l-.388.233c-.193.11-.344 0-.344-.204v-1.721a.732.732 0 0 1 .344-.606l.388-.226c.179-.117.344-.022.344.197Z" fill="#37474F"/>
            <path d="M512.714 68.965v1.758a.732.732 0 0 1-.344.605l-.387.234a.212.212 0 0 1-.24.015.22.22 0 0 1-.104-.22v-1.72a.776.776 0 0 1 .344-.606l.387-.226c.194-.153.344-.059.344.16ZM510.972 69.993v1.722a.732.732 0 0 1-.344.605l-.387.233a.212.212 0 0 1-.24.016.22.22 0 0 1-.105-.22v-1.721a.776.776 0 0 1 .345-.605l.387-.226c.193-.124.344-.03.344.196ZM509.237 71.007v1.721a.776.776 0 0 1-.344.606l-.395.233a.212.212 0 0 1-.24.016.22.22 0 0 1-.104-.22v-1.721a.776.776 0 0 1 .344-.606l.395-.226c.186-.087.344-.022.344.197Z" fill="#18C3BB"/>
            <path d="M507.495 72.028v1.722a.776.776 0 0 1-.345.605l-.387.226c-.193.117-.344 0-.344-.197v-1.721a.732.732 0 0 1 .344-.606l.387-.226c.187-.116.345-.021.345.197Z" fill="#37474F"/>
            <path d="M505.752 73.05v1.72a.776.776 0 0 1-.344.606l-.387.226c-.194.117-.344 0-.344-.197v-1.721a.732.732 0 0 1 .344-.605l.387-.234a.212.212 0 0 1 .24-.015.22.22 0 0 1 .104.22ZM504.01 74.07v1.758a.732.732 0 0 1-.344.605l-.387.227c-.194.116-.344 0-.344-.197V74.74a.732.732 0 0 1 .344-.605l.387-.233c.193-.146.344-.051.344.167Z" fill="#18C3BB"/>
            <path d="M502.282 75.099v1.721a.732.732 0 0 1-.344.605l-.387.226c-.187.117-.344 0-.344-.197v-1.72a.776.776 0 0 1 .358-.635l.387-.234c.165-.087.33.008.33.234Z" fill="#37474F"/>
            <path d="M500.525 76.113v1.72a.732.732 0 0 1-.344.606l-.387.226c-.186.117-.344 0-.344-.197v-1.72a.776.776 0 0 1 .344-.606l.387-.234c.194-.08.344-.014.344.205Z" fill="#18C3BB"/>
            <path d="M498.79 77.134v1.72a.776.776 0 0 1-.344.606l-.394.226c-.187.117-.344 0-.344-.197v-1.72a.776.776 0 0 1 .344-.606l.394-.234a.212.212 0 0 1 .24-.015.22.22 0 0 1 .104.22Z" fill="#37474F"/>
            <path d="m523.254 37.079-25.64 15.06a3.901 3.901 0 0 0-1.72 3.035v3.544c0 1.116.774 1.575 1.72 1.014l25.64-15.06a3.879 3.879 0 0 0 1.728-3.035v-3.544c0-1.116-.775-1.568-1.728-1.014Z" fill="#22689F"/>
            <path d="M523.16 40.091v1.721a.768.768 0 0 1-.344.606l-.387.226c-.186.116-.344 0-.344-.204v-1.714a.805.805 0 0 1 .344-.613l.387-.226c.194-.117.345-.03.345.204Z" fill="#18C3BB"/>
            <path d="M521.418 41.105v1.721a.768.768 0 0 1-.344.605l-.387.226c-.186.11-.344 0-.344-.204V41.74a.805.805 0 0 1 .344-.612l.387-.226c.194-.08.344-.022.344.204Z" fill="#0E4D7F"/>
            <path d="M519.683 42.126v1.721a.79.79 0 0 1-.344.605l-.394.227c-.187.109-.344 0-.344-.205V42.76a.805.805 0 0 1 .344-.612l.394-.226c.186-.11.344-.022.344.204ZM517.94 43.147v1.721a.79.79 0 0 1-.343.606l-.387.226c-.194.109-.345 0-.345-.205v-1.714a.783.783 0 0 1 .345-.612l.387-.226c.186-.11.344-.022.344.204ZM516.199 44.168v1.758a.79.79 0 0 1-.345.605l-.387.226c-.193.11-.344 0-.344-.204v-1.714a.783.783 0 0 1 .344-.613l.387-.226c.187-.146.345-.058.345.168Z" fill="#18C3BB"/>
            <path d="M514.47 45.196v1.722a.768.768 0 0 1-.343.605l-.388.226c-.193.11-.344 0-.344-.204V45.83a.783.783 0 0 1 .359-.635l.387-.226c.165-.095.33-.007.33.226ZM512.714 46.21v1.721a.768.768 0 0 1-.344.606l-.387.226c-.187.11-.344 0-.344-.204v-1.714a.805.805 0 0 1 .344-.613l.387-.226c.194-.08.344-.022.344.204Z" fill="#0E4D7F"/>
            <path d="M510.972 47.231v1.721a.768.768 0 0 1-.344.606l-.387.226c-.187.11-.345 0-.345-.204v-1.714a.805.805 0 0 1 .345-.613l.387-.226c.193-.11.344-.022.344.204Z" fill="#18C3BB"/>
            <path d="M509.237 48.252v1.721a.79.79 0 0 1-.344.606l-.395.226c-.186.11-.344 0-.344-.204v-1.714a.805.805 0 0 1 .344-.613l.395-.226c.186-.11.344-.022.344.204Z" fill="#0E4D7F"/>
            <path d="M507.495 49.273v1.758a.79.79 0 0 1-.345.605l-.387.226c-.193.11-.344 0-.344-.204v-1.721a.783.783 0 0 1 .344-.605l.387-.226c.187-.146.345-.059.345.167ZM505.752 50.302v1.72a.79.79 0 0 1-.344.606l-.387.226c-.194.11-.344 0-.344-.204V50.93a.783.783 0 0 1 .344-.605l.387-.227c.187-.116.344-.029.344.205ZM504.01 51.315v1.722a.783.783 0 0 1-.344.605l-.387.226c-.194.11-.344 0-.344-.204v-1.721a.783.783 0 0 1 .344-.606l.387-.226c.193-.08.344-.022.344.204Z" fill="#18C3BB"/>
            <path d="M502.282 52.336v1.722a.783.783 0 0 1-.344.605l-.387.226c-.187.11-.344 0-.344-.204v-1.721a.798.798 0 0 1 .344-.606l.387-.226c.18-.11.344-.022.344.204Z" fill="#0E4D7F"/>
            <path d="M500.525 53.358v1.72a.783.783 0 0 1-.344.606l-.387.226c-.186.11-.344 0-.344-.204v-1.721a.798.798 0 0 1 .344-.606l.387-.226c.194-.11.344-.022.344.205ZM498.79 54.379v1.757a.798.798 0 0 1-.344.606l-.394.226c-.187.11-.344 0-.344-.205v-1.72a.798.798 0 0 1 .344-.606l.394-.226c.187-.146.344-.058.344.168ZM490.215 127.041a3.382 3.382 0 0 0-1.491 2.64c0 .97.667 1.364 1.491.876a3.352 3.352 0 0 0 1.499-2.64c0-.97-.667-1.364-1.499-.876ZM483.72 130.856a3.396 3.396 0 0 0-1.499 2.64c0 .97.674 1.364 1.498.875a3.374 3.374 0 0 0 1.499-2.633c0-.977-.674-1.37-1.499-.882ZM490.215 104.272a3.389 3.389 0 0 0-1.491 2.64c0 .97.667 1.364 1.491.875a3.352 3.352 0 0 0 1.499-2.633c0-.977-.667-1.37-1.499-.882ZM483.72 108.079a3.396 3.396 0 0 0-1.499 2.64c0 .97.674 1.364 1.498.883a3.396 3.396 0 0 0 1.499-2.64c0-.97-.674-1.364-1.499-.883ZM490.215 81.488a3.389 3.389 0 0 0-1.491 2.64c0 .97.667 1.364 1.491.882a3.374 3.374 0 0 0 1.499-2.64c0-.97-.667-1.364-1.499-.882ZM483.72 85.31a3.396 3.396 0 0 0-1.499 2.64c0 .97.674 1.363 1.498.882a3.396 3.396 0 0 0 1.499-2.64c0-.977-.674-1.371-1.499-.883ZM490.215 58.71a3.389 3.389 0 0 0-1.491 2.641c0 .97.667 1.364 1.491.882a3.374 3.374 0 0 0 1.499-2.64c0-.97-.667-1.364-1.499-.882ZM483.72 62.532a3.374 3.374 0 0 0-1.499 2.633c0 .97.674 1.364 1.498.883a3.395 3.395 0 0 0 1.499-2.618c0-.992-.674-1.386-1.499-.898Z" fill="#18C3BB"/>
            <path d="m441.748 65.464 29.46 17.293c.564.37.919.995.954 1.677v8.278c0 .62-.423.875-.954.562l-29.46-17.285c-.565-.375-.92-1-.954-1.685v-8.278c0-.62.423-.868.954-.562Z" fill="#22689F"/>
            <path d="M442.586 69.111c.049.66.402 1.26.954 1.612l25.876 15.184c.53.307.96.088.96-.496a2.099 2.099 0 0 0-.96-1.611L443.54 68.622c-.53-.306-.954-.087-.954.489Z" fill="#18C3BB"/>
            <path d="M442.586 73.32c.045.661.4 1.26.954 1.611l25.876 15.185c.53.313.96.094.96-.489a2.077 2.077 0 0 0-.96-1.612L443.54 72.831c-.53-.307-.954-.088-.954.488Z" fill="#FFF"/>
            <path d="m443.54 72.83 14.29 8.38v2.108l-14.297-8.387a2.07 2.07 0 0 1-.954-1.612c.007-.576.43-.795.961-.488Z" fill="#18C3BB"/>
            <path d="m441.748 88.292 29.46 17.293c.565.37.92.994.954 1.677v8.278c0 .62-.423.868-.954.562l-29.46-17.293a2.13 2.13 0 0 1-.954-1.677v-8.278c0-.627.423-.868.954-.562Z" fill="#22689F"/>
            <path d="M442.586 91.939c.045.662.4 1.262.954 1.612l25.876 15.184c.53.314.96.095.96-.488a2.077 2.077 0 0 0-.96-1.612L443.54 91.45c-.53-.306-.954-.095-.954.489Z" fill="#18C3BB"/>
            <path d="M442.586 96.147c.045.662.4 1.262.954 1.612l25.876 15.185c.53.313.96.087.96-.49a2.077 2.077 0 0 0-.96-1.61L443.54 95.657c-.53-.313-.954-.094-.954.49Z" fill="#FFF"/>
            <path d="m443.54 95.658 17.874 10.48v2.109L443.54 97.759a2.07 2.07 0 0 1-.954-1.612c0-.583.423-.802.954-.489Z" fill="#18C3BB"/>
            <path d="m441.748 110.952 29.46 17.293c.565.37.92.995.954 1.677v8.278c0 .62-.423.868-.954.562l-29.46-17.293a2.13 2.13 0 0 1-.954-1.677v-8.278c0-.62.423-.868.954-.562Z" fill="#22689F"/>
            <path d="M442.586 114.6c.045.661.4 1.26.954 1.61l25.876 15.186c.53.313.96.094.96-.49a2.077 2.077 0 0 0-.96-1.611L443.54 114.11c-.53-.313-.954-.094-.954.49Z" fill="#18C3BB"/>
            <path d="M442.586 118.807c.045.662.4 1.262.954 1.612l25.876 15.214c.53.314.96.087.96-.489a2.077 2.077 0 0 0-.96-1.612L443.54 118.32c-.53-.314-.954-.095-.954.488Z" fill="#FFF"/>
            <path d="M443.54 118.319 465 130.907v2.1l-21.46-12.588a2.07 2.07 0 0 1-.954-1.612c0-.583.423-.802.954-.488Z" fill="#18C3BB"/>
            <path d="m441.748 42.863 29.46 17.285c.564.374.919 1 .954 1.684v8.278c0 .62-.423.868-.954.562l-29.46-17.293c-.566-.373-.92-1-.954-1.684v-8.27c0-.62.423-.876.954-.562Z" fill="#22689F"/>
            <path d="M442.586 46.51a2.07 2.07 0 0 0 .954 1.604l25.876 15.184c.53.307.96.088.96-.488a2.077 2.077 0 0 0-.96-1.612L443.54 46.02c-.53-.314-.954-.095-.954.488Z" fill="#18C3BB"/>
            <path d="M442.586 50.717c.049.661.402 1.26.954 1.612l25.876 15.185c.53.306.96.087.96-.489a2.099 2.099 0 0 0-.96-1.619L443.54 50.221c-.53-.306-.954-.087-.954.496Z" fill="#FFF"/>
            <path d="m443.54 50.221 23.252 13.646v2.1L443.54 52.33a2.092 2.092 0 0 1-.954-1.612c0-.583.423-.802.954-.496Z" fill="#18C3BB"/>
            <path d="m477.718 51.749 34.602-20.327c.53-.352.862-.94.896-1.582v-1.182a2.027 2.027 0 0 0-.896-1.582L477.704 6.749a1.942 1.942 0 0 0-1.792 0l-34.573 20.327c-.53.352-.863.94-.896 1.582v1.182c.033.642.366 1.23.896 1.582l34.623 20.327c.553.28 1.203.28 1.756 0Z" fill="#6AA6D6"/>
            <path d="m512.32 28.126-34.616 20.333a1.942 1.942 0 0 1-1.792 0l-34.573-20.326a.561.561 0 0 1-.366-.529c0-.237.146-.449.366-.528l34.623-20.327a1.942 1.942 0 0 1 1.792 0l34.566 20.327c.221.076.37.287.37.525a.554.554 0 0 1-.37.525Z" fill="#B5D6F3"/>
            <path d="M476.815 48.678v3.29c.314.006.625-.07.903-.22l34.602-20.333c.53-.348.863-.934.896-1.575v-1.19a2.033 2.033 0 0 0-.717-1.458c.323.292.272.686-.165.934l-34.616 20.333c-.278.15-.589.226-.903.22Z" fill="#3C80B6"/>
        </g>
        <g fill-rule="nonzero">
            <path fill="#B5D6F3" d="m454.332 322.557-51.698 30.282-51.705-30.275 51.705-30.283z"/>
            <path d="M402.634 352.847v20.72a6.938 6.938 0 0 0 3.441-.83l22.397-13.09 23.788-13.942a4.631 4.631 0 0 0 2.072-3.636v-19.512l-51.698 30.29Z" fill="#3C80B6"/>
            <path d="M350.922 322.557v19.483a4.653 4.653 0 0 0 2.072 3.636l20.554 12.043 25.644 15.018a6.917 6.917 0 0 0 3.442.83v-20.72l-51.712-30.29Z" fill="#6AA6D6"/>
            <path fill="#B5D6F3" d="m454.332 299.852-51.698 30.275-51.705-30.275 51.705-30.283z"/>
            <path fill="#3C80B6" d="m454.332 314.986-51.705 30.283.007-15.142 51.698-30.275z"/>
            <path fill="#6AA6D6" d="m402.627 345.269-51.698-30.283v-15.134l51.705 30.275z"/>
            <path fill="#22689F" d="M447.872 322.557v-3.782l-45.245 26.494.007 3.789zM354.155 316.884l.008 3.782 48.47 28.392-.006-3.789z"/>
            <path fill="#B5D6F3" d="m454.332 277.14-51.698 30.282-51.705-30.282 51.705-30.283z"/>
            <path fill="#3C80B6" d="m454.332 292.281-51.705 30.283.007-15.142 51.698-30.282z"/>
            <path fill="#6AA6D6" d="m402.627 322.564-51.698-30.283V277.14l51.705 30.282z"/>
            <path fill="#22689F" d="M447.872 299.852v-3.789l-45.245 26.501.007 3.782zM354.155 294.172l.008 3.782 48.47 28.392-.006-3.782zM447.872 277.14v-3.789l-45.245 26.501.007 3.781zM354.155 271.46l.008 3.781 48.47 28.392-.006-3.781z"/>
            <path fill="#B5D6F3" d="m454.332 254.427-51.698 30.283-51.705-30.283 51.705-30.282z"/>
            <path fill="#3C80B6" d="m454.332 269.569-51.705 30.283.007-15.142 51.698-30.283z"/>
            <path fill="#6AA6D6" d="m402.627 299.852-51.698-30.283v-15.142l51.705 30.283z"/>
            <path fill="#22689F" d="M447.872 254.435v-3.789l-45.245 26.501.007 3.782zM354.155 248.755l.008 3.782 48.47 28.392-.006-3.782z"/>
            <path fill="#B5D6F3" d="m454.332 231.672-51.698 30.282-51.705-30.282 51.705-30.283z"/>
            <path fill="#3C80B6" d="m454.332 246.813-51.705 30.283.007-15.142 51.698-30.282z"/>
            <path fill="#6AA6D6" d="m402.627 277.096-51.698-30.283v-15.141l51.705 30.282zM352.994 207.76l47.596-27.862a4.516 4.516 0 0 1 4.137 0l47.54 27.862a4.653 4.653 0 0 1 2.072 3.636v12.727l-51.741 30.268-51.676-30.268v-12.734a4.653 4.653 0 0 1 2.072-3.63Z"/>
            <path d="M402.598 238.537v15.854l51.734-30.268v-12.734a4.728 4.728 0 0 0-1.692-3.368c.716.677.63 1.571-.373 2.182l-47.604 27.861a4.209 4.209 0 0 1-2.065.473Z" fill="#3C80B6"/>
            <path d="m452.267 210.181-47.604 27.861a4.502 4.502 0 0 1-4.13 0l-47.54-27.86c-1.147-.67-1.147-1.753 0-2.422l47.597-27.862a4.516 4.516 0 0 1 4.137 0l47.54 27.862c1.147.669 1.147 1.752 0 2.421Z" fill="#B5D6F3"/>
            <path fill="#22689F" d="M447.872 231.679v-3.782l-45.245 26.494.007 3.782zM354.155 225.999l.008 3.789 48.47 28.385-.006-3.782z"/>
            <path d="m355.202 328.847 6.072 3.542a3.851 3.851 0 0 1 1.72 3.025v3.535c0 1.113-.766 1.563-1.72 1.003l-6.072-3.534a3.88 3.88 0 0 1-1.728-3.025v-3.542c0-1.135.774-1.586 1.728-1.004Z" opacity=".75" fill="#22689F"/>
            <path d="M357.926 332.898a3.362 3.362 0 0 1 1.498 2.625c0 .975-.674 1.368-1.498.88a3.384 3.384 0 0 1-1.498-2.632c0-.967.674-1.36 1.498-.873Z" fill="#18C3BB"/>
            <path d="m355.202 306.099 6.072 3.534a3.873 3.873 0 0 1 1.72 3.026v3.541c0 1.113-.766 1.564-1.72 1.004l-6.072-3.542a3.858 3.858 0 0 1-1.728-2.996v-3.564c0-1.112.774-1.527 1.728-1.003Z" opacity=".75" fill="#22689F"/>
            <path d="M357.926 310.171a3.362 3.362 0 0 1 1.498 2.626c0 .967-.674 1.36-1.498.88a3.384 3.384 0 0 1-1.498-2.633c0-.967.674-1.36 1.498-.873Z" fill="#18C3BB"/>
            <path d="m355.202 283.38 6.072 3.541a3.873 3.873 0 0 1 1.72 3.025v3.535c0 1.12-.766 1.57-1.72 1.01l-6.072-3.54a3.865 3.865 0 0 1-1.728-3.026v-3.535c0-1.112.774-1.563 1.728-1.01Z" opacity=".75" fill="#22689F"/>
            <path d="M357.926 287.452a3.384 3.384 0 0 1 1.498 2.633c0 .967-.674 1.36-1.498.88a3.384 3.384 0 0 1-1.498-2.633c0-.938.674-1.36 1.498-.88Z" fill="#18C3BB"/>
            <path d="m355.202 260.696 6.072 3.542a3.858 3.858 0 0 1 1.72 3.025v3.535c0 1.113-.766 1.563-1.72 1.01l-6.072-3.541a3.88 3.88 0 0 1-1.728-3.025v-3.535c0-1.12.774-1.57 1.728-1.01Z" opacity=".75" fill="#22689F"/>
            <path d="M357.926 264.769a3.362 3.362 0 0 1 1.498 2.633c0 .967-.674 1.36-1.498.872a3.362 3.362 0 0 1-1.498-2.632c0-.968.674-1.36 1.498-.873Z" fill="#18C3BB"/>
            <path d="m355.202 237.94 6.072 3.542a3.873 3.873 0 0 1 1.72 3.026v3.534c0 1.113-.766 1.571-1.72 1.011l-6.072-3.542a3.865 3.865 0 0 1-1.728-3.025v-3.535c0-1.112.774-1.563 1.728-1.01Z" opacity=".75" fill="#22689F"/>
            <path d="M357.926 242.013a3.384 3.384 0 0 1 1.498 2.633c0 .967-.674 1.36-1.498.873a3.362 3.362 0 0 1-1.498-2.626c0-.967.674-1.36 1.498-.88Z" fill="#18C3BB"/>
            <path d="m355.202 215.214 6.072 3.534a3.873 3.873 0 0 1 1.72 3.033v3.534c0 1.113-.766 1.564-1.72 1.004l-6.072-3.534a3.88 3.88 0 0 1-1.728-3.026v-3.534c0-1.12.774-1.557 1.728-1.011Z" opacity=".75" fill="#22689F"/>
            <path d="M357.926 219.287a3.363 3.363 0 0 1 1.498 2.654c0 .975-.674 1.367-1.498.88a3.384 3.384 0 0 1-1.498-2.633c0-.996.674-1.389 1.498-.901Z" fill="#18C3BB"/>
            <path d="m449.378 329.255-25.638 15.01a3.895 3.895 0 0 0-1.72 3.033v3.534c0 1.113.774 1.564 1.72 1.004l25.638-14.989a3.88 3.88 0 0 0 1.727-3.025v-3.542c0-1.135-.774-1.585-1.727-1.025Z" fill="#22689F"/>
            <path d="M449.284 332.244v1.694a.73.73 0 0 1-.344.604l-.387.232c-.186.11-.344 0-.344-.203v-1.717a.773.773 0 0 1 .344-.603l.387-.226c.194-.094.344 0 .344.219ZM447.542 333.262v1.716a.73.73 0 0 1-.344.604l-.387.232c-.186.11-.344 0-.344-.203v-1.717a.773.773 0 0 1 .344-.603l.387-.226c.194-.116.344-.021.344.197ZM445.807 334.28v1.716a.773.773 0 0 1-.344.604l-.394.232c-.187.11-.344 0-.344-.203v-1.716a.773.773 0 0 1 .344-.604l.394-.226c.187-.145.344-.021.344.197Z" fill="#18C3BB"/>
            <path d="M444.065 335.298v1.716a.773.773 0 0 1-.344.604l-.387.233c-.194.109-.344 0-.344-.204v-1.716a.73.73 0 0 1 .344-.604l.387-.225c.186-.117.344-.022.344.196ZM442.323 336.316v1.716a.773.773 0 0 1-.344.604l-.387.233c-.194.109-.344 0-.344-.204v-1.716a.73.73 0 0 1 .344-.604l.387-.225c.186-.117.344 0 .344.196Z" fill="#0E4D7F"/>
            <path d="M440.595 337.334v1.695a.73.73 0 0 1-.344.603l-.387.233c-.194.11-.344 0-.344-.203v-1.717a.73.73 0 0 1 .344-.603l.387-.226c.18-.094.344 0 .344.218ZM438.839 338.352v1.717a.73.73 0 0 1-.344.603l-.388.233a.213.213 0 0 1-.24.016.22.22 0 0 1-.104-.22v-1.716a.773.773 0 0 1 .344-.603l.388-.226c.193-.116.344-.022.344.196ZM437.097 339.37v1.717a.73.73 0 0 1-.345.604l-.387.232a.213.213 0 0 1-.24.016.22.22 0 0 1-.104-.22v-1.716a.773.773 0 0 1 .344-.603l.387-.226c.194-.145.345-.022.345.197ZM435.362 340.389v1.716a.773.773 0 0 1-.345.604l-.394.232a.213.213 0 0 1-.24.016.22.22 0 0 1-.104-.22v-1.716a.773.773 0 0 1 .344-.603l.394-.226c.187-.116.345-.021.345.197ZM433.62 341.407v1.716a.773.773 0 0 1-.345.604l-.387.233c-.193.109-.344 0-.344-.204v-1.716a.73.73 0 0 1 .344-.604l.387-.225c.187-.117.344 0 .344.196ZM431.877 342.425v1.695a.773.773 0 0 1-.344.603l-.387.233c-.194.109-.344 0-.344-.204v-1.716a.73.73 0 0 1 .344-.604l.387-.225c.187-.095.344 0 .344.218ZM430.135 343.443v1.717a.73.73 0 0 1-.344.603l-.387.233c-.194.109-.344 0-.344-.204v-1.716a.73.73 0 0 1 .344-.604l.387-.225c.194-.116.344-.022.344.196Z" fill="#18C3BB"/>
            <path d="M428.407 344.461v1.717a.73.73 0 0 1-.344.603l-.373.248a.213.213 0 0 1-.24.015.22.22 0 0 1-.104-.219v-1.716a.773.773 0 0 1 .344-.604l.388-.225c.164-.16.33-.037.33.181Z" fill="#0E4D7F"/>
            <path d="M426.65 345.48v1.716a.73.73 0 0 1-.343.603l-.387.226c-.187.116-.345 0-.345-.196v-1.717a.773.773 0 0 1 .345-.603l.387-.226c.193-.116.344-.022.344.197ZM424.916 346.498v1.716a.773.773 0 0 1-.344.604l-.395.225c-.186.116-.344 0-.344-.196v-1.717a.773.773 0 0 1 .344-.603l.395-.233a.213.213 0 0 1 .24-.016.22.22 0 0 1 .104.22Z" fill="#18C3BB"/>
            <path d="m449.378 306.55-25.638 15.025a3.888 3.888 0 0 0-1.72 3.025v3.52c0 1.12.774 1.57 1.72 1.01l25.638-15.017a3.858 3.858 0 0 0 1.727-3.025v-3.535c0-1.112-.774-1.563-1.727-1.003Z" fill="#22689F"/>
            <path d="M449.284 309.539v1.716a.73.73 0 0 1-.344.604l-.387.225c-.186.116-.344 0-.344-.196v-1.717a.773.773 0 0 1 .344-.603l.387-.233c.194-.124.344-.015.344.204Z" fill="#18C3BB"/>
            <path d="M447.542 310.557v1.716a.73.73 0 0 1-.344.604l-.387.225c-.186.117-.344 0-.344-.196v-1.716a.773.773 0 0 1 .344-.604l.387-.233c.194-.109.344-.014.344.204Z" fill="#0E4D7F"/>
            <path d="M445.807 311.575v1.716a.773.773 0 0 1-.344.604l-.394.225c-.187.117-.344 0-.344-.196v-1.716a.773.773 0 0 1 .344-.604l.394-.233a.213.213 0 0 1 .24-.015.22.22 0 0 1 .104.219ZM444.065 312.593v1.71a.773.773 0 0 1-.344.603l-.387.225c-.194.117-.344 0-.344-.196v-1.716a.73.73 0 0 1 .344-.604l.387-.233a.213.213 0 0 1 .244-.015.22.22 0 0 1 .1.226Z" fill="#18C3BB"/>
            <path d="M442.323 313.611v1.717a.773.773 0 0 1-.344.603l-.387.226c-.194.116-.344 0-.344-.197v-1.716a.73.73 0 0 1 .344-.604l.387-.232c.186-.11.344-.022.344.203Z" fill="#0E4D7F"/>
            <path d="M440.595 314.63v1.716a.73.73 0 0 1-.344.603l-.373.262c-.193.117-.344 0-.344-.196v-1.716a.73.73 0 0 1 .344-.604l.387-.233c.165-.16.33-.058.33.167ZM438.839 315.648v1.716a.73.73 0 0 1-.344.604l-.388.225c-.186.116-.344 0-.344-.196v-1.717a.773.773 0 0 1 .344-.603l.388-.233c.193-.11.344-.022.344.204ZM437.097 316.666v1.716a.73.73 0 0 1-.345.604l-.387.225c-.186.117-.344 0-.344-.196v-1.717a.773.773 0 0 1 .344-.603l.387-.233c.194-.109.345-.022.345.204Z" fill="#18C3BB"/>
            <path d="M435.362 317.684v1.709a.773.773 0 0 1-.345.604l-.394.225c-.186.116-.344 0-.344-.196v-1.717a.773.773 0 0 1 .344-.603l.394-.233c.187-.102.345-.015.345.21Z" fill="#0E4D7F"/>
            <path d="M433.62 318.702v1.716a.773.773 0 0 1-.345.604l-.387.225c-.193.117-.344 0-.344-.196v-1.716a.73.73 0 0 1 .344-.604l.387-.233c.187-.109.344-.021.344.204Z" fill="#18C3BB"/>
            <path d="M431.877 319.72v1.717a.773.773 0 0 1-.344.603l-.387.226c-.194.116-.344 0-.344-.197v-1.716a.73.73 0 0 1 .344-.604l.387-.232c.187-.124.344-.022.344.203Z" fill="#0E4D7F"/>
            <path d="M430.135 320.738v1.717a.73.73 0 0 1-.344.603l-.387.226c-.194.116-.344 0-.344-.197v-1.716a.73.73 0 0 1 .344-.604l.387-.232c.194-.11.344-.022.344.203Z" fill="#18C3BB"/>
            <path d="M428.407 321.757v1.716a.766.766 0 0 1-.344.603l-.387.226c-.186.116-.344 0-.344-.196v-1.717a.802.802 0 0 1 .344-.61l.387-.226c.18-.11.344-.022.344.204Z" fill="#0E4D7F"/>
            <path d="M426.65 322.775v1.709a.766.766 0 0 1-.343.603l-.387.226c-.187.116-.345 0-.345-.197V323.4a.802.802 0 0 1 .345-.61l.387-.226c.193-.102.344-.015.344.21ZM424.916 323.793v1.716a.788.788 0 0 1-.344.604l-.395.225c-.186.117-.344 0-.344-.196v-1.716a.802.802 0 0 1 .344-.611l.395-.226c.186-.109.344-.022.344.204Z" fill="#18C3BB"/>
            <path d="m449.378 283.816-25.638 15.01a3.895 3.895 0 0 0-1.72 3.033v3.534c0 1.113.774 1.564 1.72 1.004l25.638-15.01a3.88 3.88 0 0 0 1.727-3.026v-3.542c0-1.112-.774-1.563-1.727-1.003Z" fill="#22689F"/>
            <path d="M449.284 286.805v1.716a.73.73 0 0 1-.344.604l-.387.232c-.186.11-.344 0-.344-.203v-1.717a.773.773 0 0 1 .344-.603l.387-.226c.194-.116.344-.021.344.197ZM447.542 287.823v1.753a.73.73 0 0 1-.344.603l-.387.233c-.186.109-.344 0-.344-.204v-1.716a.773.773 0 0 1 .344-.604l.387-.225c.194-.153.344-.058.344.16ZM445.807 288.848v1.717a.773.773 0 0 1-.344.603l-.394.233a.213.213 0 0 1-.24.016.22.22 0 0 1-.104-.22v-1.716a.773.773 0 0 1 .344-.604l.394-.225c.187-.124.344-.03.344.196ZM444.065 289.86v1.716a.773.773 0 0 1-.344.603l-.387.233c-.194.109-.344 0-.344-.204v-1.716a.73.73 0 0 1 .344-.604l.387-.225c.186-.087.344-.022.344.196Z" fill="#18C3BB"/>
            <path d="M442.323 290.877v1.717a.773.773 0 0 1-.344.603l-.387.233c-.194.11-.344 0-.344-.204v-1.716a.73.73 0 0 1 .344-.604l.387-.225c.186-.116.344-.022.344.196ZM440.595 291.896v1.716a.73.73 0 0 1-.344.603l-.387.233c-.194.11-.344 0-.344-.203v-1.717a.73.73 0 0 1 .344-.603l.387-.226c.18-.116.344-.022.344.197Z" fill="#37474F"/>
            <path d="M438.839 292.914v1.752a.73.73 0 0 1-.344.604l-.388.233a.213.213 0 0 1-.24.015.22.22 0 0 1-.104-.219v-1.716a.773.773 0 0 1 .344-.604l.388-.225c.193-.153.344-.059.344.16ZM437.097 293.94v1.715a.73.73 0 0 1-.345.604l-.387.233a.213.213 0 0 1-.24.015.22.22 0 0 1-.104-.219v-1.716a.773.773 0 0 1 .344-.604l.387-.225c.194-.124.345-.03.345.196ZM435.362 294.95v1.716a.773.773 0 0 1-.345.604l-.394.233a.213.213 0 0 1-.24.015.22.22 0 0 1-.104-.219v-1.716a.773.773 0 0 1 .344-.604l.394-.225c.187-.088.345-.022.345.196Z" fill="#18C3BB"/>
            <path d="M433.62 295.968v1.716a.773.773 0 0 1-.345.604l-.387.226c-.193.116-.344 0-.344-.197v-1.716a.73.73 0 0 1 .344-.604l.387-.225c.187-.117.344-.022.344.196Z" fill="#37474F"/>
            <path d="M431.877 296.986v1.717a.773.773 0 0 1-.344.603l-.387.226c-.194.116-.344 0-.344-.197v-1.716a.73.73 0 0 1 .344-.604l.387-.232a.213.213 0 0 1 .24-.016.22.22 0 0 1 .104.22ZM430.135 298.004v1.753a.73.73 0 0 1-.344.604l-.387.225c-.194.117-.344 0-.344-.196v-1.716a.73.73 0 0 1 .344-.604l.387-.233c.194-.145.344-.05.344.167Z" fill="#18C3BB"/>
            <path d="M428.407 299.03v1.716a.73.73 0 0 1-.344.604l-.387.225c-.186.117-.344 0-.344-.196v-1.716a.773.773 0 0 1 .358-.633l.388-.233c.164-.087.33.007.33.233Z" fill="#37474F"/>
            <path d="M426.65 300.04v1.717a.73.73 0 0 1-.343.604l-.387.225c-.187.116-.345 0-.345-.196v-1.717a.773.773 0 0 1 .345-.603l.387-.233c.193-.08.344-.014.344.204Z" fill="#18C3BB"/>
            <path d="M424.916 301.059v1.716a.773.773 0 0 1-.344.604l-.395.225c-.186.117-.344 0-.344-.196v-1.716a.773.773 0 0 1 .344-.604l.395-.233a.213.213 0 0 1 .24-.015.22.22 0 0 1 .104.219Z" fill="#37474F"/>
            <path d="m449.378 261.118-25.638 15.018a3.888 3.888 0 0 0-1.72 3.025v3.535c0 1.112.774 1.57 1.72 1.01l25.638-15.017a3.865 3.865 0 0 0 1.727-3.026v-3.534c0-1.113-.774-1.564-1.727-1.01Z" fill="#22689F"/>
            <path d="M449.284 264.122v1.716a.766.766 0 0 1-.344.604l-.387.225c-.186.116-.344 0-.344-.204v-1.709a.802.802 0 0 1 .344-.61l.387-.226c.194-.116.344-.029.344.204Z" fill="#18C3BB"/>
            <path d="M447.542 265.133v1.716a.766.766 0 0 1-.344.604l-.387.225c-.186.109-.344 0-.344-.204v-1.709a.802.802 0 0 1 .344-.61l.387-.226c.194-.08.344-.022.344.204Z" fill="#0E4D7F"/>
            <path d="M445.807 266.15v1.717a.788.788 0 0 1-.344.604l-.394.225c-.187.11-.344 0-.344-.204v-1.709a.802.802 0 0 1 .344-.61l.394-.226c.187-.109.344-.022.344.204ZM444.065 267.169v1.716a.788.788 0 0 1-.344.604l-.387.225c-.194.11-.344 0-.344-.203v-1.71a.78.78 0 0 1 .344-.61l.387-.226c.186-.109.344-.022.344.204ZM442.323 268.187v1.753a.788.788 0 0 1-.344.603l-.387.226c-.194.109-.344 0-.344-.204v-1.709a.78.78 0 0 1 .344-.61l.387-.226c.186-.146.344-.058.344.167Z" fill="#18C3BB"/>
            <path d="M440.595 269.212v1.717a.766.766 0 0 1-.344.603l-.387.226c-.194.109-.344 0-.344-.204v-1.709a.78.78 0 0 1 .358-.633l.387-.225c.165-.095.33-.007.33.225ZM438.839 270.223v1.717a.766.766 0 0 1-.344.603l-.388.226c-.186.109-.344 0-.344-.204v-1.709a.802.802 0 0 1 .344-.61l.388-.226c.193-.08.344-.022.344.203Z" fill="#0E4D7F"/>
            <path d="M437.097 271.242v1.716a.766.766 0 0 1-.345.603l-.387.226c-.186.109-.344 0-.344-.204v-1.709a.802.802 0 0 1 .344-.61l.387-.226c.194-.11.345-.022.345.204Z" fill="#18C3BB"/>
            <path d="M435.362 272.26v1.716a.788.788 0 0 1-.345.604l-.394.225c-.186.11-.344 0-.344-.204v-1.709a.802.802 0 0 1 .344-.61l.394-.226c.187-.11.345-.022.345.204Z" fill="#0E4D7F"/>
            <path d="M433.62 273.278v1.752a.788.788 0 0 1-.345.604l-.387.226c-.193.109-.344 0-.344-.204v-1.716a.78.78 0 0 1 .344-.604l.387-.225c.187-.146.344-.059.344.167ZM431.877 274.303v1.717a.788.788 0 0 1-.344.603l-.387.226c-.194.109-.344 0-.344-.204v-1.716a.78.78 0 0 1 .344-.604l.387-.225c.187-.117.344-.03.344.203ZM430.135 275.314v1.716a.78.78 0 0 1-.344.604l-.387.226c-.194.109-.344 0-.344-.204v-1.716a.78.78 0 0 1 .344-.604l.387-.226c.194-.08.344-.021.344.204Z" fill="#18C3BB"/>
            <path d="M428.407 276.332v1.717a.78.78 0 0 1-.344.603l-.387.226c-.186.109-.344 0-.344-.204v-1.716a.795.795 0 0 1 .344-.604l.387-.225c.18-.11.344-.022.344.203Z" fill="#0E4D7F"/>
            <path d="M426.65 277.35v1.717a.78.78 0 0 1-.343.603l-.387.226c-.187.109-.345 0-.345-.204v-1.716a.795.795 0 0 1 .345-.604l.387-.225c.193-.11.344-.022.344.203ZM424.916 278.369v1.752a.795.795 0 0 1-.344.604l-.395.225c-.186.11-.344 0-.344-.203v-1.717a.795.795 0 0 1 .344-.603l.395-.226c.186-.145.344-.058.344.168Z" fill="#18C3BB"/>
            <path d="m449.378 238.37-25.638 15.01a3.888 3.888 0 0 0-1.72 3.026v3.541c0 1.113.774 1.564 1.72 1.004l25.638-15.01a3.88 3.88 0 0 0 1.727-3.033v-3.513c0-1.134-.774-1.585-1.727-1.025Z" fill="#22689F"/>
            <path d="M449.284 241.359v1.716a.73.73 0 0 1-.344.604l-.387.232a.213.213 0 0 1-.24.016.22.22 0 0 1-.104-.22v-1.716a.773.773 0 0 1 .344-.603l.387-.226c.194-.116.344-.022.344.197Z" fill="#18C3BB"/>
            <path d="M447.542 242.377v1.716a.73.73 0 0 1-.344.604l-.387.232a.213.213 0 0 1-.24.016.22.22 0 0 1-.104-.22v-1.694a.773.773 0 0 1 .344-.603l.387-.226c.194-.138.344-.043.344.175Z" fill="#0E4D7F"/>
            <path d="M445.807 243.395v1.716a.773.773 0 0 1-.344.604l-.394.233a.213.213 0 0 1-.24.015.22.22 0 0 1-.104-.219v-1.716a.773.773 0 0 1 .344-.604l.394-.225c.187-.117.344-.022.344.196ZM444.065 244.413v1.716a.773.773 0 0 1-.344.604l-.387.226c-.194.116-.344 0-.344-.197v-1.716a.73.73 0 0 1 .344-.604l.387-.225c.186-.117.344-.022.344.196ZM442.323 245.431v1.717a.773.773 0 0 1-.344.603l-.387.226c-.194.116-.344 0-.344-.197v-1.716a.73.73 0 0 1 .344-.604l.387-.232a.213.213 0 0 1 .24-.016.22.22 0 0 1 .104.22Z" fill="#18C3BB"/>
            <path d="M440.595 246.45v1.716a.73.73 0 0 1-.344.603l-.387.226c-.194.116-.344 0-.344-.197v-1.716a.73.73 0 0 1 .344-.603l.387-.233c.18-.11.344-.015.344.203ZM438.839 247.468v1.716a.73.73 0 0 1-.344.604l-.388.225c-.186.116-.344 0-.344-.196v-1.695a.773.773 0 0 1 .344-.604l.388-.232c.193-.131.344-.037.344.182Z" fill="#0E4D7F"/>
            <path d="M437.097 248.486v1.716a.73.73 0 0 1-.345.604l-.387.225c-.186.116-.344 0-.344-.196v-1.717a.773.773 0 0 1 .344-.603l.387-.233c.194-.109.345-.014.345.204Z" fill="#18C3BB"/>
            <path d="M435.362 249.504v1.716a.773.773 0 0 1-.345.604l-.394.225c-.186.117-.344 0-.344-.196v-1.716a.773.773 0 0 1 .344-.604l.394-.233a.213.213 0 0 1 .24-.015.22.22 0 0 1 .105.219Z" fill="#0E4D7F"/>
            <path d="M433.62 250.522v1.716a.773.773 0 0 1-.345.604l-.387.225c-.193.117-.344 0-.344-.196v-1.716a.73.73 0 0 1 .344-.604l.387-.233a.213.213 0 0 1 .24-.015.22.22 0 0 1 .104.22ZM431.877 251.54v1.717a.773.773 0 0 1-.344.603l-.387.226c-.194.116-.344 0-.344-.197v-1.716a.73.73 0 0 1 .344-.604l.387-.232c.187-.11.344-.022.344.203ZM430.135 252.558v1.717a.73.73 0 0 1-.344.603l-.387.226c-.194.116-.344 0-.344-.197v-1.694a.73.73 0 0 1 .344-.604l.387-.232c.194-.131.344-.044.344.181Z" fill="#18C3BB"/>
            <path d="M428.407 253.577v1.716a.73.73 0 0 1-.344.603l-.373.226c-.186.116-.344 0-.344-.196v-1.717a.773.773 0 0 1 .344-.603l.388-.233c.164-.11.33-.022.33.204Z" fill="#0E4D7F"/>
            <path d="M426.65 254.595v1.716a.73.73 0 0 1-.343.604l-.387.225c-.187.116-.345 0-.345-.196v-1.717a.773.773 0 0 1 .345-.603l.387-.233c.193-.109.344-.022.344.204ZM424.916 255.613v1.716a.773.773 0 0 1-.344.604l-.395.225c-.186.117-.344 0-.344-.196v-1.716a.773.773 0 0 1 .344-.604l.395-.233c.186-.109.344-.014.344.204Z" fill="#18C3BB"/>
            <path d="m449.378 215.65-25.638 15.018a3.888 3.888 0 0 0-1.72 3.025v3.52c0 1.12.774 1.571 1.72 1.011l25.638-15.018a3.858 3.858 0 0 0 1.727-3.025v-3.534c0-1.099-.774-1.55-1.727-.997Z" fill="#22689F"/>
            <path d="M449.284 218.647v1.716a.73.73 0 0 1-.344.603l-.387.226c-.186.116-.344 0-.344-.196v-1.717a.773.773 0 0 1 .344-.603l.387-.233c.194-.138.344-.015.344.204Z" fill="#37474F"/>
            <path d="M447.542 219.665v1.716a.73.73 0 0 1-.344.604l-.387.225c-.186.116-.344 0-.344-.196v-1.717a.773.773 0 0 1 .344-.603l.387-.233c.194-.109.344-.014.344.204Z" fill="#18C3BB"/>
            <path d="M445.807 220.683v1.716a.773.773 0 0 1-.344.604l-.394.225c-.187.117-.344 0-.344-.196v-1.716a.773.773 0 0 1 .344-.604l.394-.233a.213.213 0 0 1 .24-.015.22.22 0 0 1 .104.219ZM444.065 221.701v1.694a.773.773 0 0 1-.344.604l-.387.226c-.194.116-.344 0-.344-.197v-1.716a.73.73 0 0 1 .344-.604l.387-.232c.186-.088.344 0 .344.225ZM442.323 222.72v1.715a.773.773 0 0 1-.344.604l-.387.226c-.194.116-.344 0-.344-.197v-1.716a.73.73 0 0 1 .344-.604l.387-.232c.186-.11.344-.022.344.203Z" fill="#0E4D7F"/>
            <path d="M440.595 223.737v1.717a.73.73 0 0 1-.344.603l-.373.248c-.193.116-.344 0-.344-.197v-1.716a.73.73 0 0 1 .344-.604l.387-.233c.165-.16.33-.043.33.182ZM438.839 224.755v1.717a.73.73 0 0 1-.344.603l-.388.226c-.186.116-.344 0-.344-.197v-1.716a.773.773 0 0 1 .344-.603l.388-.233c.193-.11.344-.022.344.203Z" fill="#18C3BB"/>
            <path d="M437.097 225.774v1.716a.73.73 0 0 1-.345.604l-.387.225c-.186.116-.344 0-.344-.196v-1.717a.773.773 0 0 1 .344-.603l.387-.233c.194-.11.345.007.345.204Z" fill="#0E4D7F"/>
            <path d="M435.362 226.792v1.694a.773.773 0 0 1-.345.604l-.394.225c-.186.117-.344 0-.344-.196v-1.716a.773.773 0 0 1 .344-.604l.394-.233c.187-.087.345 0 .345.226Z" fill="#18C3BB"/>
            <path d="M433.62 227.81v1.716a.788.788 0 0 1-.345.604l-.387.225c-.193.117-.344 0-.344-.196v-1.716a.73.73 0 0 1 .344-.604l.387-.233c.187-.109.344-.022.344.204ZM431.877 228.828v1.716a.788.788 0 0 1-.344.604l-.387.225c-.194.117-.344 0-.344-.196v-1.716a.78.78 0 0 1 .344-.611l.387-.226c.187-.138.344-.021.344.204ZM430.135 229.846v1.717a.766.766 0 0 1-.344.603l-.387.226c-.194.116-.344 0-.344-.197v-1.716a.78.78 0 0 1 .344-.61l.387-.226c.194-.11.344-.022.344.203Z" fill="#0E4D7F"/>
            <path d="M428.407 230.864v1.717a.766.766 0 0 1-.344.603l-.387.226c-.186.116-.344 0-.344-.197v-1.716a.802.802 0 0 1 .344-.61l.387-.226c.18-.11.344.007.344.203Z" fill="#18C3BB"/>
            <path d="M426.65 231.883v1.694a.766.766 0 0 1-.343.604l-.387.225c-.187.116-.345 0-.345-.204v-1.709a.802.802 0 0 1 .345-.61l.387-.226c.193-.087.344 0 .344.226ZM424.916 232.9v1.717a.788.788 0 0 1-.344.604l-.395.225c-.186.116-.344 0-.344-.204v-1.709a.802.802 0 0 1 .344-.61l.395-.226c.186-.109.344-.022.344.204Z" fill="#0E4D7F"/>
            <path d="M416.341 350.825a3.37 3.37 0 0 0-1.49 2.633c0 .967.666 1.36 1.49.872a3.34 3.34 0 0 0 1.499-2.632c0-.968-.667-1.36-1.499-.873ZM409.846 354.628a3.384 3.384 0 0 0-1.498 2.633c0 .967.674 1.36 1.498.873a3.362 3.362 0 0 0 1.498-2.626c0-.974-.673-1.367-1.498-.88ZM416.341 328.12a3.377 3.377 0 0 0-1.49 2.633c0 .967.666 1.36 1.49.872A3.34 3.34 0 0 0 417.84 329c0-.975-.667-1.367-1.499-.88ZM409.846 331.916a3.384 3.384 0 0 0-1.498 2.633c0 .967.674 1.36 1.498.88a3.384 3.384 0 0 0 1.498-2.633c0-.967-.673-1.36-1.498-.88ZM416.341 305.4a3.377 3.377 0 0 0-1.49 2.633c0 .968.666 1.36 1.49.88a3.362 3.362 0 0 0 1.499-2.632c0-.968-.667-1.36-1.499-.88ZM409.846 309.211a3.384 3.384 0 0 0-1.498 2.633c0 .967.674 1.36 1.498.88a3.384 3.384 0 0 0 1.498-2.633c0-.974-.673-1.367-1.498-.88ZM416.341 282.688a3.377 3.377 0 0 0-1.49 2.633c0 .967.666 1.36 1.49.88a3.362 3.362 0 0 0 1.499-2.633c0-.967-.667-1.36-1.499-.88ZM409.846 286.5a3.362 3.362 0 0 0-1.498 2.625c0 .967.674 1.36 1.498.88a3.384 3.384 0 0 0 1.498-2.611c0-.99-.673-1.382-1.498-.895ZM416.341 259.94a3.355 3.355 0 0 0-1.49 2.625c0 .975.666 1.368 1.49.88a3.362 3.362 0 0 0 1.499-2.632c0-.968-.667-1.36-1.499-.873ZM409.846 263.744a3.376 3.376 0 0 0-1.513 2.632c0 .967.674 1.36 1.499.873a3.362 3.362 0 0 0 1.498-2.633c.014-.967-.66-1.36-1.484-.872ZM416.341 237.213a3.355 3.355 0 0 0-1.49 2.626c0 .974.666 1.367 1.49.88a3.355 3.355 0 0 0 1.499-2.633c0-.945-.667-1.338-1.499-.873ZM409.846 241.039a3.377 3.377 0 0 0-1.498 2.632c0 .968.674 1.36 1.498.873a3.362 3.362 0 0 0 1.498-2.625c0-.975-.673-1.368-1.498-.88Z" fill="#18C3BB"/>
            <path d="m367.877 289.423 29.459 17.243c.564.37.918.992.953 1.673v8.254c0 .618-.423.873-.953.56l-29.459-17.236a2.144 2.144 0 0 1-.954-1.68v-8.254c0-.618.423-.866.954-.56Z" fill="#22689F"/>
            <path d="M368.716 293.06c.048.658.402 1.255.953 1.606l25.874 15.142c.53.305.961.087.961-.495a2.092 2.092 0 0 0-.96-1.607l-25.875-15.134c-.53-.306-.953-.087-.953.487Z" fill="#18C3BB"/>
            <path d="M368.716 297.255c.044.66.4 1.258.953 1.608l25.874 15.141c.53.313.961.095.961-.487a2.07 2.07 0 0 0-.96-1.607l-25.875-15.142c-.53-.305-.953-.087-.953.487Z" fill="#FFF"/>
            <path d="m369.67 296.768 14.288 8.356v2.102l-14.296-8.363a2.063 2.063 0 0 1-.953-1.608c.007-.574.43-.792.96-.487Z" fill="#18C3BB"/>
            <path d="m367.877 312.186 29.459 17.243c.564.37.92.992.953 1.673v8.254c0 .618-.423.865-.953.56l-29.459-17.243a2.122 2.122 0 0 1-.954-1.673v-8.254c0-.626.423-.866.954-.56Z" fill="#22689F"/>
            <path d="M368.716 315.822c.044.66.4 1.258.953 1.607l25.874 15.142c.53.313.961.094.961-.487a2.07 2.07 0 0 0-.96-1.608l-25.875-15.141c-.53-.306-.953-.095-.953.487Z" fill="#18C3BB"/>
            <path d="M368.716 320.018c.044.66.4 1.258.953 1.608l25.874 15.141c.53.313.961.087.961-.487a2.07 2.07 0 0 0-.96-1.607l-25.875-15.142c-.53-.313-.953-.094-.953.487Z" fill="#FFF"/>
            <path d="m369.67 319.531 17.872 10.45v2.103l-17.873-10.458a2.063 2.063 0 0 1-.953-1.608c0-.581.423-.8.953-.487Z" fill="#18C3BB"/>
            <path d="m367.877 334.782 29.459 17.243c.564.37.92.992.953 1.673v8.254c0 .618-.423.865-.953.56l-29.459-17.243a2.122 2.122 0 0 1-.954-1.673v-8.254c0-.619.423-.866.954-.56Z" fill="#22689F"/>
            <path d="M368.716 338.418c.044.66.4 1.258.953 1.607l25.874 15.142c.53.312.961.094.961-.488a2.07 2.07 0 0 0-.96-1.607l-25.875-15.141c-.53-.313-.953-.095-.953.487Z" fill="#18C3BB"/>
            <path d="M368.716 342.614c.044.66.4 1.258.953 1.607l25.874 15.17c.53.314.961.088.961-.486a2.07 2.07 0 0 0-.96-1.608l-25.875-15.17c-.53-.313-.953-.095-.953.487Z" fill="#FFF"/>
            <path d="m369.67 342.127 21.457 12.552v2.095l-21.458-12.553a2.063 2.063 0 0 1-.953-1.607c0-.582.423-.8.953-.487Z" fill="#18C3BB"/>
            <path d="m367.877 266.885 29.459 17.236c.564.373.918.998.953 1.68v8.254c0 .619-.423.866-.953.56l-29.459-17.243a2.137 2.137 0 0 1-.954-1.68v-8.247c0-.618.423-.872.954-.56Z" fill="#22689F"/>
            <path d="M368.716 270.522c.047.657.401 1.252.953 1.6l25.874 15.14c.53.306.961.088.961-.486a2.07 2.07 0 0 0-.96-1.608l-25.875-15.134c-.53-.312-.953-.094-.953.488Z" fill="#18C3BB"/>
            <path d="M368.716 274.718c.048.659.402 1.255.953 1.607l25.874 15.141c.53.306.961.088.961-.487a2.092 2.092 0 0 0-.96-1.614l-25.875-15.142c-.53-.305-.953-.087-.953.495Z" fill="#FFF"/>
            <path d="m369.67 274.223 23.25 13.607v2.095l-23.25-13.6a2.085 2.085 0 0 1-.954-1.607c0-.582.423-.8.953-.495Z" fill="#18C3BB"/>
            <path d="m367.877 221.41 29.459 17.258c.564.37.92.992.953 1.673v8.254c0 .618-.423.865-.953.56l-29.459-17.258a2.122 2.122 0 0 1-.954-1.673v-8.283c0-.59.423-.836.954-.53Z" fill="#22689F"/>
            <path d="M368.716 225.046c.044.66.4 1.258.953 1.608l25.874 15.141c.53.313.961.095.961-.487a2.07 2.07 0 0 0-.96-1.607l-25.875-15.142c-.53-.313-.953-.094-.953.487Z" fill="#18C3BB"/>
            <path d="M368.716 229.214c.044.66.4 1.258.953 1.607l25.874 15.141c.53.313.961.087.961-.487a2.07 2.07 0 0 0-.96-1.607l-25.875-15.113c-.53-.312-.953-.094-.953.459Z" fill="#FFF"/>
            <path d="m369.67 228.755 17.872 10.451v2.102L369.67 230.85a2.063 2.063 0 0 1-.953-1.636c0-.553.423-.771.953-.459Z" fill="#18C3BB"/>
            <path d="m367.877 244.13 29.459 17.243c.564.369.92.992.953 1.672v8.255c0 .618-.423.865-.953.56l-29.459-17.244a2.122 2.122 0 0 1-.954-1.672v-8.255c0-.618.423-.865.954-.56Z" fill="#22689F"/>
            <path d="M368.716 247.766c.044.66.4 1.258.953 1.607l25.874 15.141c.53.313.961.095.961-.487a2.07 2.07 0 0 0-.96-1.607l-25.875-15.141c-.53-.313-.953-.088-.953.487Z" fill="#18C3BB"/>
            <path d="M368.716 251.962c.044.66.4 1.258.953 1.607l25.874 15.142c.53.312.961.094.961-.488a2.07 2.07 0 0 0-.96-1.607l-25.875-15.141c-.53-.313-.953-.095-.953.487Z" fill="#FFF"/>
            <path d="m369.67 251.475 23.25 13.6v2.101l-23.25-13.607a2.063 2.063 0 0 1-.954-1.607c0-.582.423-.8.953-.487Z" fill="#18C3BB"/>
            <path d="m403.845 229.41 34.6-20.269a2.02 2.02 0 0 0 .896-1.578v-1.178a2.02 2.02 0 0 0-.897-1.578l-34.613-20.269a1.947 1.947 0 0 0-1.792 0l-34.57 20.269a2.02 2.02 0 0 0-.897 1.578v1.178a2.02 2.02 0 0 0 .896 1.578l34.62 20.269c.554.28 1.204.28 1.757 0Z" fill="#6AA6D6"/>
            <path d="m438.444 205.854-34.613 20.276a1.947 1.947 0 0 1-1.792 0l-34.57-20.269a.56.56 0 0 1-.367-.527.56.56 0 0 1 .366-.527l34.62-20.269a1.947 1.947 0 0 1 1.793 0l34.563 20.269c.222.076.37.286.37.524a.552.552 0 0 1-.37.523Z" fill="#B5D6F3"/>
            <path d="M402.942 226.348v3.28c.315.006.625-.069.903-.218l34.6-20.276c.53-.347.863-.932.896-1.57v-1.186a2.025 2.025 0 0 0-.717-1.455c.322.291.272.684-.165.931l-34.614 20.276c-.278.15-.588.225-.903.218Z" fill="#3C80B6"/>
        </g>
        <g fill-rule="nonzero">
            <path d="m217.272 11.813 47.63 27.2a3.477 3.477 0 0 1 1.597 2.726v143.117a3.477 3.477 0 0 1-1.598 2.727l-51.515 29.424a3.565 3.565 0 0 1-3.186 0l-47.63-27.2a3.496 3.496 0 0 1-1.598-2.735V43.964a3.477 3.477 0 0 1 1.598-2.727l51.515-29.424c1-.51 2.187-.51 3.187 0Z" fill="#AD5CBB"/>
            <path d="M160.981 43.964v143.108c.06 1.11.65 2.126 1.589 2.736l47.63 27.2c.487.26 1.034.39 1.588.379V70.643a3.33 3.33 0 0 1-1.588-.379l-47.63-27.2-.44-.36-.565-.463a3.215 3.215 0 0 0-.584 1.723Z" fill="#C37CCF"/>
            <path d="m162.57 41.237 51.515-29.424c1-.51 2.187-.51 3.187 0l47.63 27.2a.948.948 0 0 1 .688.908c0 .42-.28.791-.689.909l-51.515 29.424c-1 .51-2.187.51-3.186 0l-47.63-27.2a.948.948 0 0 1-.689-.908c0-.42.28-.791.689-.909Z" fill="#DDA9E6"/>
            <path d="M215.712 11.434a3.224 3.224 0 0 1 1.588.379l47.63 27.2a.948.948 0 0 1 .69.908c0 .42-.282.791-.69.909l-51.515 29.424a3.546 3.546 0 0 1-3.187 0l-47.63-27.2a.948.948 0 0 1-.688-.908c0-.42.28-.791.689-.909l51.515-29.424a3.244 3.244 0 0 1 1.598-.379m0-.88a4.132 4.132 0 0 0-2.039.492L162.12 40.518a1.836 1.836 0 0 0-1.096 1.675c0 .724.429 1.38 1.096 1.676l47.63 27.2a4.464 4.464 0 0 0 4.077 0l51.524-29.425a1.836 1.836 0 0 0 1.097-1.675c0-.724-.43-1.38-1.097-1.676l-47.63-27.247a4.16 4.16 0 0 0-2.038-.492h.029Z" fill="#F0F0F0"/>
            <path d="M204.324 73.123c-1.656-.947-2.996-.085-2.996 1.894v72.292a6.77 6.77 0 0 0 2.986 5.35c1.656.946 2.995.084 2.995-1.894V78.472a6.77 6.77 0 0 0-2.985-5.349Z" fill="#7F328C"/>
            <path d="M204.314 150.935a3.38 3.38 0 0 1-1.493-2.68v-35.407l2.996 1.704v35.417c0 1.004-.632 1.44-1.503.966Z" fill="#FFF"/>
            <path d="M195.347 67.973c-1.646-.947-2.986-.085-2.986 1.893v72.264a6.77 6.77 0 0 0 2.986 5.35c1.656.946 2.995.085 2.995-1.894V73.35a6.752 6.752 0 0 0-2.995-5.377Z" fill="#7F328C"/>
            <path d="M195.347 145.813a3.38 3.38 0 0 1-1.493-2.68V70.663c0-1.013.67-1.44 1.493-.947a3.343 3.343 0 0 1 1.503 2.67v72.463c0 1.003-.67 1.439-1.503.965Z" fill="#FFF"/>
            <path d="M186.38 62.88c-1.646-.947-2.986-.086-2.986 1.893v72.311a6.77 6.77 0 0 0 2.986 5.35c1.656.946 2.995.085 2.995-1.894V68.228a6.752 6.752 0 0 0-2.995-5.349Z" fill="#7F328C"/>
            <path d="M186.38 140.691a3.38 3.38 0 0 1-1.493-2.679V85.383l2.996 1.714v52.629c-.01 1.003-.67 1.439-1.503.965Z" fill="#FFF"/>
            <path d="M177.432 57.758c-1.646-.947-2.986-.086-2.986 1.893v72.264a6.77 6.77 0 0 0 2.986 5.35c1.656.946 2.996.084 2.996-1.894V63.107a6.752 6.752 0 0 0-2.996-5.35Z" fill="#7F328C"/>
            <path d="M177.432 135.57a3.38 3.38 0 0 1-1.493-2.68v-13.254l2.986 1.714v13.254c-.02 1.003-.689 1.439-1.493.966Z" fill="#FFF"/>
            <path d="M168.446 52.636c-1.646-.947-2.986-.085-2.986 1.893v72.264a6.77 6.77 0 0 0 2.986 5.35c1.656.946 2.995.085 2.995-1.894V57.985a6.752 6.752 0 0 0-2.995-5.35Z" fill="#7F328C"/>
            <path d="M168.446 130.457a3.38 3.38 0 0 1-1.493-2.68V88.963l2.986 1.704v38.816c0 .975-.67 1.44-1.493.975Z" fill="#FFF"/>
            <g opacity=".1" fill="#000">
                <path d="M172.025 189.969c.42.263.683.711.708 1.202 0 .445-.316.625-.708.407a1.568 1.568 0 0 1-.698-1.212c0-.445.363-.624.698-.397ZM177.901 193.33c.42.263.683.711.708 1.202 0 .445-.316.625-.708.398a1.53 1.53 0 0 1-.699-1.203c0-.445.316-.625.7-.397ZM183.681 196.624c.414.268.673.715.699 1.203 0 .445-.316.615-.699.397a1.502 1.502 0 0 1-.698-1.202c0-.436.306-.615.698-.398ZM189.5 199.957c.414.262.674.707.698 1.193 0 .445-.306.615-.698.397a1.52 1.52 0 0 1-.69-1.193c0-.445.307-.615.69-.397Z"/>
            </g>
            <path d="M230.42 97.322a1.37 1.37 0 0 1-.726-.19 1.717 1.717 0 0 1-.785-1.6v-3.72a4.516 4.516 0 0 1 2.096-3.598l27.666-15.801a1.777 1.777 0 0 1 1.8-.123c.54.348.843.964.784 1.6v3.72a4.516 4.516 0 0 1-2.096 3.598L231.493 97.01a2.219 2.219 0 0 1-1.072.313Z" fill="#7F328C"/>
            <path d="M258.777 75.935v1.799a.813.813 0 0 1-.374.634l-.42.246c-.202.114-.374 0-.374-.218v-1.798a.84.84 0 0 1 .373-.644l.421-.237c.24-.113.374-.019.374.218ZM255.054 78.074v1.8a.812.812 0 0 1-.373.643l-.412.237c-.21.113-.373 0-.373-.209v-1.808c.01-.26.15-.497.373-.634l.412-.246c.21-.114.373-.02.373.217ZM251.302 80.214v1.808a.813.813 0 0 1-.373.635l-.42.236c-.202.123-.374 0-.374-.208v-1.808a.822.822 0 0 1 .373-.634l.421-.237c.192-.123.373-.029.373.208ZM247.541 82.354v1.808a.784.784 0 0 1-.373.634l-.42.246c-.202.114-.364 0-.364-.217v-1.8a.831.831 0 0 1 .363-.643l.421-.237c.21-.113.373.029.373.209ZM243.78 84.503v1.799a.812.812 0 0 1-.373.643l-.411.237c-.21.114-.373 0-.373-.208v-1.808c.01-.26.15-.497.373-.635l.411-.246c.21-.114.373-.019.373.218ZM240.03 86.642v1.809a.813.813 0 0 1-.374.634l-.421.237c-.201.123-.373 0-.373-.209v-1.808a.813.813 0 0 1 .373-.634l.42-.237c.202-.123.374-.028.374.208ZM236.268 88.801v1.808a.784.784 0 0 1-.373.635l-.412.246c-.21.113-.373 0-.373-.218v-1.799a.812.812 0 0 1 .373-.644l.412-.236c.21-.133.373-.038.373.208ZM232.517 90.931v1.799a.84.84 0 0 1-.374.644l-.42.236c-.202.114-.374 0-.374-.208v-1.76a.813.813 0 0 1 .373-.635l.421-.246c.201-.161.374-.067.374.17Z" fill="#FFF"/>
            <path d="M218.899 126.178a1.248 1.248 0 0 1-.642-.161 1.556 1.556 0 0 1-.698-1.42v-13.434a3.921 3.921 0 0 1 1.837-3.134l39.562-22.598c.462-.35 1.09-.391 1.594-.103.503.288.78.849.703 1.419v13.415a3.95 3.95 0 0 1-1.828 3.133l-39.562 22.59c-.29.181-.623.283-.966.293Z" fill="#7F328C"/>
            <path d="M257.82 91.755a3.365 3.365 0 0 1-1.589 2.613l-33.59 19.18c-.871.502-1.59.152-1.59-.795a3.393 3.393 0 0 1 1.59-2.613l33.59-19.18c.842-.502 1.589-.152 1.589.795ZM256.193 97.785l-14.26 8.142v3.409l14.26-8.133a3.365 3.365 0 0 0 1.588-2.622c.039-.938-.708-1.26-1.588-.796Z" fill="#FFF"/>
            <path d="M230.42 131.811a1.46 1.46 0 0 1-.726-.18 1.745 1.745 0 0 1-.785-1.61v-3.72a4.516 4.516 0 0 1 2.096-3.598l27.666-15.8a1.777 1.777 0 0 1 1.8-.124c.54.349.843.964.784 1.6v3.721a4.516 4.516 0 0 1-2.096 3.598l-27.666 15.8a2.221 2.221 0 0 1-1.072.313Z" fill="#7F328C"/>
            <path d="M258.777 110.472v1.798a.813.813 0 0 1-.374.635l-.42.246c-.202.114-.374 0-.374-.218v-1.799a.84.84 0 0 1 .373-.643l.421-.237c.24-.114.374-.019.374.218ZM255.054 112.611v1.809a.813.813 0 0 1-.373.634l-.412.237c-.21.113-.373 0-.373-.209v-1.808c.01-.26.15-.497.373-.634l.412-.246c.21-.114.373-.02.373.217Z" fill="#FAFAFA"/>
            <path d="M251.302 114.75v1.81a.813.813 0 0 1-.373.633l-.42.237c-.202.123-.374 0-.374-.208v-1.808a.822.822 0 0 1 .373-.635l.421-.236c.192-.123.373-.029.373.208Z" fill="#E0E0E0"/>
            <path d="M247.541 116.9v1.799a.784.784 0 0 1-.373.634l-.42.246c-.202.114-.364 0-.364-.218v-1.798a.831.831 0 0 1 .363-.644l.421-.237c.21-.113.373-.019.373.218ZM243.78 119.04v1.808a.813.813 0 0 1-.373.634l-.411.237c-.21.113-.373 0-.373-.208v-1.809c.01-.26.15-.497.373-.634l.411-.246c.21-.114.373-.02.373.218ZM240.03 121.18v1.807a.813.813 0 0 1-.374.635l-.421.236c-.201.124-.373 0-.373-.208v-1.808a.813.813 0 0 1 .373-.634l.402-.218c.22-.142.392 0 .392.19Z" fill="#FAFAFA"/>
            <path d="M236.268 123.328v1.8a.784.784 0 0 1-.373.633l-.412.247c-.21.113-.373 0-.373-.218v-1.799a.812.812 0 0 1 .373-.644l.412-.236c.21-.114.373-.02.373.217ZM232.517 125.468v1.799a.84.84 0 0 1-.374.643l-.42.237c-.202.114-.374 0-.374-.208v-1.808a.813.813 0 0 1 .373-.635l.421-.246c.201-.113.374-.019.374.218Z" fill="#E0E0E0"/>
            <path d="M218.899 160.466a1.248 1.248 0 0 1-.642-.161 1.556 1.556 0 0 1-.698-1.42V145.45a3.921 3.921 0 0 1 1.837-3.134l39.562-22.598c.462-.35 1.09-.391 1.594-.103.503.288.78.849.703 1.419v13.415a3.95 3.95 0 0 1-1.828 3.133l-39.562 22.59c-.29.181-.623.283-.966.293Z" fill="#7F328C"/>
            <path d="M257.82 126.292a3.365 3.365 0 0 1-1.589 2.613l-33.59 19.18c-.871.512-1.59.152-1.59-.795a3.392 3.392 0 0 1 1.551-2.632l33.59-19.18c.881-.483 1.628-.133 1.628.814ZM256.193 132.35l-14.26 8.143v3.417l14.26-8.142a3.365 3.365 0 0 0 1.588-2.622c.039-.966-.708-1.326-1.588-.795Z" fill="#FAFAFA"/>
            <path d="M230.42 166.348a1.46 1.46 0 0 1-.726-.18 1.745 1.745 0 0 1-.785-1.61v-3.72a4.516 4.516 0 0 1 2.096-3.598l27.666-15.8a1.777 1.777 0 0 1 1.8-.124c.54.348.843.964.784 1.6v3.72a4.516 4.516 0 0 1-2.096 3.598l-27.666 15.801a2.221 2.221 0 0 1-1.072.313Z" fill="#7F328C"/>
            <path d="M258.777 145.008v1.8a.84.84 0 0 1-.374.643l-.42.237c-.202.113-.374 0-.374-.218v-1.799a.84.84 0 0 1 .373-.644l.421-.236c.24-.133.374-.02.374.217ZM255.054 147.148v1.808a.813.813 0 0 1-.373.635l-.412.236c-.21.114-.373 0-.373-.208v-1.808c.01-.26.15-.497.373-.635l.412-.246c.21-.113.373-.019.373.218Z" fill="#FAFAFA"/>
            <path d="M251.302 149.288v1.808a.813.813 0 0 1-.373.634l-.42.237c-.202.123-.374 0-.374-.208v-1.809a.822.822 0 0 1 .373-.634l.421-.237c.192-.123.373-.028.373.209Z" fill="#E0E0E0"/>
            <path d="M247.541 151.437v1.799a.784.784 0 0 1-.373.634l-.42.246c-.202.114-.364 0-.364-.218V152.1a.831.831 0 0 1 .363-.644l.421-.237c.21-.114.373-.019.373.218ZM243.78 153.576v1.809a.813.813 0 0 1-.373.634l-.411.237c-.21.113-.373 0-.373-.209v-1.808c.01-.26.15-.497.373-.634l.411-.246c.21-.114.373-.02.373.217ZM240.03 155.716v1.808a.813.813 0 0 1-.374.635l-.421.236c-.201.123-.373 0-.373-.208v-1.808a.822.822 0 0 1 .373-.635l.42-.236c.202-.123.374-.029.374.208Z" fill="#FAFAFA"/>
            <path d="M236.268 157.912v1.8a.784.784 0 0 1-.373.634l-.412.246c-.21.113-.373 0-.373-.218v-1.799a.812.812 0 0 1 .373-.644l.412-.236c.21-.161.373-.067.373.217ZM232.517 160.005v1.799a.84.84 0 0 1-.374.643l-.42.237c-.202.114-.374 0-.374-.208v-1.809a.813.813 0 0 1 .373-.634l.421-.246c.201-.114.374.019.374.218Z" fill="#E0E0E0"/>
            <path d="M218.899 195.252a1.248 1.248 0 0 1-.642-.161 1.556 1.556 0 0 1-.698-1.42v-13.435a3.921 3.921 0 0 1 1.837-3.133l39.562-22.599c.462-.35 1.09-.39 1.594-.102.503.288.78.848.703 1.418v13.453a3.95 3.95 0 0 1-1.828 3.134l-39.562 22.589a1.934 1.934 0 0 1-.966.256Z" fill="#7F328C"/>
            <path d="M257.82 160.828a3.365 3.365 0 0 1-1.589 2.613l-33.629 19.181c-.87.511-1.588.152-1.588-.795a3.393 3.393 0 0 1 1.588-2.613l33.59-19.18c.881-.503 1.628-.152 1.628.794ZM256.193 166.86 241.933 175v3.418l14.26-8.142a3.365 3.365 0 0 0 1.588-2.623c.039-.937-.708-1.297-1.588-.795Z" fill="#FAFAFA"/>
            <path d="M230.42 200.885a1.46 1.46 0 0 1-.726-.18 1.745 1.745 0 0 1-.785-1.61v-3.72a4.516 4.516 0 0 1 2.096-3.598l27.666-15.8a1.777 1.777 0 0 1 1.8-.124c.54.348.843.964.784 1.6v3.72a4.516 4.516 0 0 1-2.096 3.598l-27.666 15.801a2.221 2.221 0 0 1-1.072.313Z" fill="#7F328C"/>
            <path d="M258.777 179.545v1.8a.84.84 0 0 1-.374.643l-.42.237c-.202.113-.374 0-.374-.218v-1.799a.84.84 0 0 1 .373-.644l.421-.236c.24-.114.374-.02.374.217ZM255.054 181.685v1.79a.813.813 0 0 1-.373.634l-.412.236c-.21.114-.373 0-.373-.208v-1.808c.01-.26.15-.497.373-.635l.412-.236c.21-.104.373-.01.373.227Z" fill="#FAFAFA"/>
            <path d="M251.302 183.825v1.808a.813.813 0 0 1-.373.634l-.42.237c-.202.123-.374 0-.374-.209v-1.808a.822.822 0 0 1 .373-.634l.421-.237c.192-.142.373-.028.373.209Z" fill="#E0E0E0"/>
            <path d="M247.541 185.974v1.798a.812.812 0 0 1-.373.644l-.42.237c-.202.113-.364 0-.364-.218v-1.799a.831.831 0 0 1 .363-.643l.421-.237c.21-.114.373-.02.373.218ZM243.78 188.113v1.808a.813.813 0 0 1-.373.635l-.411.236c-.21.114-.373 0-.373-.208v-1.808c.01-.26.15-.497.373-.634l.411-.237c.21-.123.373-.028.373.208ZM240.03 190.253v1.808a.813.813 0 0 1-.374.634l-.421.237c-.201.123-.373 0-.373-.208v-1.808a.822.822 0 0 1 .373-.635l.42-.236c.202-.124.374-.029.374.208Z" fill="#FAFAFA"/>
            <path d="M236.268 192.402v1.799a.784.784 0 0 1-.373.634l-.412.246c-.21.114-.373 0-.373-.218v-1.798a.812.812 0 0 1 .373-.644l.412-.237c.21-.113.373-.019.373.218ZM232.517 194.542v1.808a.84.84 0 0 1-.374.634l-.42.237c-.202.113-.374 0-.374-.209v-1.808a.813.813 0 0 1 .373-.634l.421-.246c.201-.114.374-.02.374.218Z" fill="#E0E0E0"/>
            <path d="M218.899 91.641a1.248 1.248 0 0 1-.642-.16 1.556 1.556 0 0 1-.698-1.42V76.625a3.94 3.94 0 0 1 1.828-3.134l39.562-22.56c.461-.35 1.09-.391 1.593-.103.504.289.781.849.704 1.419v13.434a3.921 3.921 0 0 1-1.828 3.124l-39.562 22.598c-.293.16-.623.242-.957.237Z" fill="#7F328C"/>
            <path d="M257.82 57.218a3.365 3.365 0 0 1-1.589 2.613l-33.59 19.18c-.871.503-1.59.152-1.59-.794a3.393 3.393 0 0 1 1.59-2.613l33.59-19.181c.842-.502 1.589-.152 1.589.795ZM256.193 63.24l-14.26 8.141v3.408l14.26-8.132a3.365 3.365 0 0 0 1.588-2.623c.039-.927-.708-1.287-1.588-.795Z" fill="#FFF"/>
            <path d="m166.78 176.023.776-.445a1.043 1.043 0 0 1 1.034.105 3.203 3.203 0 0 1 1.473 2.518c.041.37-.123.732-.43.947l-.728.407-.124-.218a1.368 1.368 0 0 1-.421-.161 3.202 3.202 0 0 1-1.455-2.518 1.517 1.517 0 0 1 0-.379l-.124-.256Z" fill="#E0E0E0"/>
            <path d="M167.862 176.109a3.203 3.203 0 0 1 1.474 2.518c0 .947-.66 1.306-1.474.843a3.212 3.212 0 0 1-1.474-2.528c-.01-.928.651-1.297 1.474-.833Z" fill="#F0F0F0"/>
            <path d="m165.173 172.199 5.972 3.398a3.675 3.675 0 0 1 1.694 2.897v3.39c0 1.07-.756 1.505-1.694.946l-5.972-3.389a3.704 3.704 0 0 1-1.694-2.906v-3.39c0-1.032.756-1.477 1.694-.946Z" fill="#E0E0E0"/>
            <path d="m165.173 172.199 5.972 3.398a3.675 3.675 0 0 1 1.694 2.897v3.39c0 1.07-.756 1.505-1.694.946l-5.972-3.389a3.704 3.704 0 0 1-1.694-2.906v-3.39c0-1.032.756-1.477 1.694-.946ZM177.633 177.993l28.959 16.53c.56.35.915.945.957 1.6v7.914c0 .597-.421.833-.957.54l-28.959-16.53a2.041 2.041 0 0 1-.957-1.61v-7.905c.02-.596.44-.833.957-.54Z" fill="#7F328C"/>
            <path d="M178.456 181.477c.05.636.406 1.21.957 1.543l25.437 14.513c.517.294.957.085.957-.464a1.985 1.985 0 0 0-.957-1.543l-25.456-14.513c-.517-.294-.938-.085-.938.464Z" fill="#E0E0E0"/>
            <path d="M178.456 185.5c.05.637.406 1.21.957 1.543l25.437 14.514c.517.293.957.085.957-.474a1.986 1.986 0 0 0-.957-1.533l-25.437-14.514c-.536-.303-.957-.085-.957.464Z" fill="#F0F0F0"/>
            <path d="m179.394 185.036 14.049 8.01v2.007l-14.049-8.01a1.985 1.985 0 0 1-.957-1.543c.02-.549.44-.767.957-.464Z" fill="#E0E0E0"/>
            <path d="m165.173 155.792 5.972 3.39c1 .646 1.63 1.725 1.694 2.906v3.398c0 1.07-.756 1.496-1.694.947l-5.972-3.399a3.675 3.675 0 0 1-1.694-2.897v-3.389c0-1.06.756-1.486 1.694-.956ZM165.173 139.47l5.972 3.399c1 .642 1.63 1.719 1.694 2.897v3.39c0 1.069-.756 1.504-1.694.946l-5.972-3.39a3.704 3.704 0 0 1-1.694-2.906v-3.38c0-1.05.756-1.448 1.694-.956ZM177.633 145.264l28.959 16.53c.562.353.918.952.957 1.61v7.905c0 .596-.421.833-.957.54l-28.959-16.53a2.041 2.041 0 0 1-.957-1.6v-7.915c.02-.587.44-.833.957-.54Z" fill="#7F328C"/>
            <path d="M178.456 148.758c.053.633.409 1.203.957 1.533l25.437 14.514c.517.303.957.085.957-.464a1.985 1.985 0 0 0-.957-1.543l-25.437-14.514c-.536-.293-.957-.085-.957.474ZM178.456 152.772c.05.636.406 1.21.957 1.543l25.437 14.513c.517.294.957.085.957-.464a1.985 1.985 0 0 0-.957-1.543l-25.437-14.513c-.536-.294-.957-.076-.957.464Z" fill="#FFF"/>
            <path d="m177.633 161.633 28.959 16.52c.562.353.918.952.957 1.61v7.905c0 .597-.421.833-.957.54l-28.959-16.52a2.07 2.07 0 0 1-.957-1.61v-7.915c.02-.587.44-.833.957-.53Z" fill="#7F328C"/>
            <path d="M178.456 165.117c.055.635.41 1.207.957 1.543l25.437 14.514c.517.293.957.085.957-.474a1.985 1.985 0 0 0-.957-1.543l-25.437-14.513c-.536-.294-.957-.104-.957.473Z" fill="#E0E0E0"/>
            <path d="M178.456 169.14c.053.634.409 1.204.957 1.534l25.437 14.514c.517.303.957.085.957-.464a1.985 1.985 0 0 0-.957-1.543l-25.437-14.514c-.536-.293-.957-.085-.957.474Z" fill="#F0F0F0"/>
            <path d="m179.394 168.667 17.57 10.074v2.007l-17.57-10.026c-.548-.33-.904-.9-.957-1.534.02-.606.44-.814.957-.52Z" fill="#E0E0E0"/>
        </g>
    </g>
</svg>
