<svg width="60" height="60" viewBox="0 0 60 60" fill="none" xmlns="http://www.w3.org/2000/svg">
  <g id="icon-dedicatedservers">
    <rect id="Rectangle" x="6" y="4" width="22" height="12" rx="2" fill="url(#paint0_linear_1_37937)"/>
    <rect id="Rectangle_2" x="9" y="12" width="1" height="1" fill="white"/>
    <rect id="Rectangle_3" x="11" y="12" width="1" height="1" fill="white"/>
    <rect id="Rectangle_4" x="13" y="12" width="1" height="1" fill="white"/>
    <rect id="Rectangle_5" x="6" y="18" width="22" height="12" rx="2" fill="url(#paint1_linear_1_37937)"/>
    <rect id="Rectangle_6" x="9" y="26" width="1" height="1" fill="white"/>
    <rect id="Rectangle_7" x="11" y="26" width="1" height="1" fill="white"/>
    <g id="Group 37">
      <rect id="Rectangle Copy 5" x="32" y="18" width="22" height="12" rx="2" fill="url(#paint2_linear_1_37937)"/>
      <rect id="Rectangle_8" x="35" y="26" width="1" height="1" fill="white"/>
      <rect id="Rectangle_9" x="37" y="26" width="1" height="1" fill="white"/>
      <rect id="Rectangle_10" x="39" y="26" width="1" height="1" fill="white"/>
      <rect id="Rectangle Copy 6" x="32" y="32" width="22" height="12" rx="2" fill="url(#paint3_linear_1_37937)"/>
      <rect id="Rectangle_11" x="35" y="40" width="1" height="1" fill="white"/>
      <rect id="Rectangle_12" x="37" y="40" width="1" height="1" fill="white"/>
      <rect id="Rectangle_13" x="39" y="40" width="1" height="1" fill="white"/>
      <rect id="Rectangle Copy 7" x="32" y="46" width="22" height="12" rx="2" fill="url(#paint4_linear_1_37937)"/>
      <rect id="Rectangle_14" x="35" y="54" width="1" height="1" fill="white"/>
      <rect id="Rectangle_15" x="37" y="54" width="1" height="1" fill="white"/>
    </g>
    <rect id="Rectangle_16" x="6" y="32" width="22" height="12" rx="2" fill="url(#paint5_linear_1_37937)"/>
    <rect id="Rectangle_17" x="9" y="40" width="1" height="1" fill="white"/>
    <rect id="Rectangle_18" x="6" y="46" width="22" height="12" rx="2" fill="url(#paint6_linear_1_37937)"/>
    <rect id="Rectangle_19" x="9" y="54" width="1" height="1" fill="white"/>
    <rect id="Rectangle_20" x="11" y="54" width="1" height="1" fill="white"/>
    <rect id="Rectangle_21" x="13" y="54" width="1" height="1" fill="white"/>
  </g>
  <defs>
    <linearGradient id="paint0_linear_1_37937" x1="-5" y1="10" x2="5.08917" y2="28.4968" gradientUnits="userSpaceOnUse">
      <stop stop-color="#C56FF0"/>
      <stop offset="1" stop-color="#933CDD"/>
      <stop offset="1" stop-color="#933CDD"/>
    </linearGradient>
    <linearGradient id="paint1_linear_1_37937" x1="-5" y1="24" x2="5.08917" y2="42.4968" gradientUnits="userSpaceOnUse">
      <stop stop-color="#C56FF0"/>
      <stop offset="1" stop-color="#933CDD"/>
      <stop offset="1" stop-color="#933CDD"/>
    </linearGradient>
    <linearGradient id="paint2_linear_1_37937" x1="21" y1="24" x2="31.0892" y2="42.4968" gradientUnits="userSpaceOnUse">
      <stop stop-color="#18C3BB"/>
      <stop offset="1" stop-color="#03B2AA"/>
    </linearGradient>
    <linearGradient id="paint3_linear_1_37937" x1="21" y1="38" x2="31.0892" y2="56.4968" gradientUnits="userSpaceOnUse">
      <stop stop-color="#18C3BB"/>
      <stop offset="1" stop-color="#03B2AA"/>
    </linearGradient>
    <linearGradient id="paint4_linear_1_37937" x1="21" y1="52" x2="31.0892" y2="70.4968" gradientUnits="userSpaceOnUse">
      <stop stop-color="#18C3BB"/>
      <stop offset="1" stop-color="#03B2AA"/>
    </linearGradient>
    <linearGradient id="paint5_linear_1_37937" x1="-5" y1="38" x2="5.08917" y2="56.4968" gradientUnits="userSpaceOnUse">
      <stop stop-color="#C56FF0"/>
      <stop offset="1" stop-color="#933CDD"/>
      <stop offset="1" stop-color="#933CDD"/>
    </linearGradient>
    <linearGradient id="paint6_linear_1_37937" x1="-5" y1="52" x2="5.08917" y2="70.4968" gradientUnits="userSpaceOnUse">
      <stop stop-color="#C56FF0"/>
      <stop offset="1" stop-color="#933CDD"/>
      <stop offset="1" stop-color="#933CDD"/>
    </linearGradient>
  </defs>
</svg>
