<svg width="662" height="420" xmlns="http://www.w3.org/2000/svg">
    <defs>
        <linearGradient x1="50%" y1="0%" x2="50%" y2="100%" id="a">
            <stop stop-color="#CDD7DD" offset="0%"/>
            <stop stop-color="#FFF" offset="100%"/>
        </linearGradient>
    </defs>
    <g fill="none" fill-rule="evenodd">
        <path fill="#FFF" fill-rule="nonzero" d="M0 0h661.5v420H0z"/>
        <path d="m352.462 67.27 306.49 172.396a5 5 0 0 1 2.548 4.358v131.293a5 5 0 0 1-4.96 5l-416.53 3.295a10 10 0 0 1-5.053-1.324L7.893 252.103a5 5 0 0 1 .159-8.762l334.85-176.205a10 10 0 0 1 9.56.133Z" fill="url(#a)" fill-rule="nonzero"/>
        <g stroke="#933CDD" stroke-width="2">
            <path d="m158.272 273.838 11.274-6.516a5.41 5.41 0 0 1 4.881 0l67.104 38.679c.77.44 1.717.44 2.485-.003a2.486 2.486 0 0 0 1.247-2.147"/>
            <path d="m153.66 271.194 15.886-9.15a5.41 5.41 0 0 1 4.881 0l71.681 41.312c.77.441 1.717.44 2.486-.003a2.486 2.486 0 0 0 1.246-2.146"/>
            <path d="m149.083 268.55 20.463-11.783a5.41 5.41 0 0 1 4.881 0l76.292 43.956a2.484 2.484 0 0 0 2.483-.002 2.475 2.475 0 0 0 1.238-2.148"/>
            <path d="m144.495 265.916 25.05-14.427a5.41 5.41 0 0 1 4.882 0l80.802 46.59a2.484 2.484 0 0 0 2.483-.002 2.475 2.475 0 0 0 1.237-2.148"/>
        </g>
        <g fill-rule="nonzero">
            <path d="m160.996 2.63 68.695 39.216a5.013 5.013 0 0 1 2.305 3.932v206.348a5.013 5.013 0 0 1-2.305 3.932l-74.3 42.424a5.144 5.144 0 0 1-4.596 0L82.1 259.266a5.04 5.04 0 0 1-2.305-3.945V48.985a5.013 5.013 0 0 1 2.305-3.93L156.4 2.63a5.06 5.06 0 0 1 4.596 0Z" fill="#AD5CBB"/>
            <path d="M79.809 48.985v206.336a5.026 5.026 0 0 0 2.291 3.945l68.695 39.216a4.665 4.665 0 0 0 2.292.547V87.451a4.805 4.805 0 0 1-2.292-.546L82.1 47.69l-.635-.519-.814-.669a4.634 4.634 0 0 0-.842 2.484Z" fill="#C37CCF"/>
            <path d="M82.1 45.054 156.4 2.63a5.06 5.06 0 0 1 4.596 0l68.695 39.216c.589.17.994.704.994 1.31 0 .608-.405 1.141-.994 1.311l-74.3 42.425a5.06 5.06 0 0 1-4.596 0L82.1 47.675a1.367 1.367 0 0 1-.994-1.31c0-.607.405-1.14.994-1.31Z" fill="#DDA9E6"/>
            <path d="M158.746 2.084a4.652 4.652 0 0 1 2.29.546l68.696 39.216c.59.17.994.704.994 1.31 0 .608-.405 1.141-.994 1.311l-74.299 42.425a5.116 5.116 0 0 1-4.596 0L82.142 47.675a1.367 1.367 0 0 1-.994-1.31c0-.607.405-1.14.994-1.31L156.44 2.63a4.68 4.68 0 0 1 2.305-.546m0-1.27a5.96 5.96 0 0 0-2.94.71L81.45 44.017a2.647 2.647 0 0 0-1.581 2.416c0 1.043.62 1.989 1.581 2.416l68.696 39.217a6.44 6.44 0 0 0 5.88 0L230.34 45.64a2.647 2.647 0 0 0 1.581-2.416c0-1.043-.62-1.989-1.581-2.416L161.644 1.524a6.002 6.002 0 0 0-2.94-.71h.042Z" fill="#F0F0F0"/>
            <path d="M142.32 91.028c-2.387-1.365-4.32-.123-4.32 2.73V197.99a9.761 9.761 0 0 0 4.307 7.712c2.388 1.365 4.32.123 4.32-2.73V98.74a9.761 9.761 0 0 0-4.306-7.712Z" fill="#7F328C"/>
            <path d="M142.307 203.218a4.874 4.874 0 0 1-2.153-3.863v-51.051l4.32 2.457v51.065c0 1.447-.911 2.075-2.167 1.392Z" fill="#FFF"/>
            <path d="M129.374 83.602c-2.374-1.365-4.306-.123-4.306 2.73v104.192a9.761 9.761 0 0 0 4.306 7.712c2.388 1.365 4.32.123 4.32-2.73V91.356a9.734 9.734 0 0 0-4.32-7.754Z" fill="#7F328C"/>
            <path d="M129.374 195.833a4.874 4.874 0 0 1-2.153-3.863V87.48c0-1.46.966-2.075 2.153-1.365a4.82 4.82 0 0 1 2.167 3.85V194.44c0 1.447-.966 2.075-2.167 1.392Z" fill="#FFF"/>
            <path d="M116.44 76.258c-2.373-1.365-4.305-.122-4.305 2.73v104.26a9.761 9.761 0 0 0 4.306 7.712c2.388 1.365 4.32.123 4.32-2.73V83.97a9.735 9.735 0 0 0-4.32-7.712Z" fill="#7F328C"/>
            <path d="M116.44 188.449a4.874 4.874 0 0 1-2.152-3.863v-75.881l4.32 2.47v75.881c-.014 1.447-.966 2.075-2.167 1.393Z" fill="#FFF"/>
            <path d="M103.536 68.874c-2.374-1.365-4.307-.123-4.307 2.73v104.191a9.761 9.761 0 0 0 4.307 7.712c2.387 1.365 4.32.123 4.32-2.73V76.586a9.735 9.735 0 0 0-4.32-7.712Z" fill="#7F328C"/>
            <path d="M103.536 181.064a4.874 4.874 0 0 1-2.154-3.863v-19.11l4.307 2.47v19.11c-.028 1.448-.994 2.075-2.153 1.393Z" fill="#FFF"/>
            <path d="M90.575 61.489c-2.374-1.365-4.306-.123-4.306 2.73V168.41a9.761 9.761 0 0 0 4.306 7.713c2.388 1.365 4.32.122 4.32-2.73V69.2a9.735 9.735 0 0 0-4.32-7.712Z" fill="#7F328C"/>
            <path d="M90.575 173.693a4.874 4.874 0 0 1-2.153-3.863v-55.966l4.306 2.457v55.966c0 1.406-.966 2.075-2.153 1.406Z" fill="#FFF"/>
            <g opacity=".1" fill="#000">
                <path d="M95.737 259.498a2.18 2.18 0 0 1 1.021 1.733c0 .642-.455.901-1.02.587a2.26 2.26 0 0 1-1.008-1.747c0-.642.524-.901 1.007-.573ZM104.212 264.343a2.18 2.18 0 0 1 1.021 1.734c0 .641-.455.9-1.021.573a2.207 2.207 0 0 1-1.008-1.733c0-.642.456-.901 1.008-.574ZM112.549 269.094c.596.386.97 1.03 1.007 1.733 0 .642-.455.887-1.007.573a2.166 2.166 0 0 1-1.008-1.733c0-.628.442-.887 1.008-.573ZM120.94 273.898c.598.379.973 1.02 1.008 1.72 0 .642-.442.888-1.007.574a2.193 2.193 0 0 1-.994-1.72c0-.642.441-.888.994-.574Z"/>
            </g>
            <path d="M179.96 125.918a1.977 1.977 0 0 1-1.049-.273 2.475 2.475 0 0 1-1.132-2.307v-5.365a6.511 6.511 0 0 1 3.023-5.187l39.903-22.782a2.564 2.564 0 0 1 2.595-.177 2.475 2.475 0 0 1 1.132 2.306v5.365a6.511 6.511 0 0 1-3.023 5.187l-39.903 22.782a3.2 3.2 0 0 1-1.546.45Z" fill="#7F328C"/>
            <path d="M220.857 95.082v2.593a1.172 1.172 0 0 1-.538.915l-.607.355c-.29.164-.539 0-.539-.314v-2.594c.025-.375.224-.717.539-.928l.607-.341c.345-.164.538-.027.538.314ZM215.488 98.167v2.593a1.171 1.171 0 0 1-.538.929l-.594.34c-.303.165-.538 0-.538-.3v-2.607a1.13 1.13 0 0 1 .538-.914l.594-.355c.303-.164.538-.027.538.314ZM210.077 101.252v2.607a1.172 1.172 0 0 1-.538.914l-.607.342c-.29.177-.539 0-.539-.3v-2.608c.025-.371.224-.71.539-.914l.607-.342c.276-.177.538-.04.538.3ZM204.653 104.337v2.607a1.13 1.13 0 0 1-.538.914l-.608.355c-.29.164-.524 0-.524-.314v-2.593c.02-.373.213-.717.524-.928l.608-.342c.303-.163.538.041.538.3ZM199.229 107.435v2.594a1.171 1.171 0 0 1-.539.928l-.593.341c-.304.164-.539 0-.539-.3v-2.607a1.13 1.13 0 0 1 .539-.915l.593-.355c.304-.163.539-.027.539.314ZM193.818 110.52v2.607a1.172 1.172 0 0 1-.538.915l-.608.341c-.29.178-.538 0-.538-.3v-2.607c.023-.372.222-.712.538-.915l.608-.341c.29-.178.538-.041.538.3ZM188.394 113.632v2.608a1.13 1.13 0 0 1-.539.914l-.593.355c-.304.164-.539 0-.539-.314v-2.593c.019-.377.219-.723.539-.929l.593-.34c.304-.192.539-.055.539.3ZM182.983 116.704v2.593a1.212 1.212 0 0 1-.538.928l-.608.342c-.29.163-.538 0-.538-.3v-2.54c.023-.372.222-.711.538-.914l.608-.355c.29-.232.538-.096.538.246Z" fill="#FFF"/>
            <path d="M163.342 167.524a1.801 1.801 0 0 1-.925-.233 2.244 2.244 0 0 1-1.007-2.047v-19.37a5.653 5.653 0 0 1 2.65-4.518l57.06-32.583a2.09 2.09 0 0 1 2.298-.148 2.04 2.04 0 0 1 1.014 2.045v19.343a5.694 5.694 0 0 1-2.636 4.518l-57.06 32.569c-.418.262-.9.408-1.394.424Z" fill="#7F328C"/>
            <path d="M219.477 117.891a4.852 4.852 0 0 1-2.291 3.768l-48.447 27.655c-1.256.723-2.291.218-2.291-1.147a4.892 4.892 0 0 1 2.29-3.767l48.448-27.655c1.214-.724 2.29-.219 2.29 1.146ZM217.13 126.586l-20.565 11.74v4.914l20.565-11.726a4.851 4.851 0 0 0 2.292-3.781c.055-1.351-1.022-1.815-2.292-1.147Z" fill="#FFF"/>
            <path d="M179.96 175.645a2.106 2.106 0 0 1-1.049-.26 2.516 2.516 0 0 1-1.132-2.32v-5.364a6.511 6.511 0 0 1 3.023-5.188l39.903-22.782a2.564 2.564 0 0 1 2.595-.177 2.475 2.475 0 0 1 1.132 2.307v5.364a6.511 6.511 0 0 1-3.023 5.187l-39.903 22.782c-.467.28-1 .435-1.546.451Z" fill="#7F328C"/>
            <path d="M220.857 144.878v2.593a1.172 1.172 0 0 1-.538.915l-.607.355c-.29.163-.539 0-.539-.314v-2.594c.025-.375.224-.718.539-.928l.607-.341c.345-.164.538-.028.538.314ZM215.488 147.962v2.608a1.172 1.172 0 0 1-.538.914l-.594.341c-.303.164-.538 0-.538-.3v-2.607a1.13 1.13 0 0 1 .538-.915l.594-.354c.303-.164.538-.028.538.313Z" fill="#FAFAFA"/>
            <path d="M210.077 151.047v2.608a1.172 1.172 0 0 1-.538.914l-.607.341c-.29.178-.539 0-.539-.3v-2.607c.025-.372.224-.71.539-.915l.607-.34c.276-.178.538-.042.538.3Z" fill="#E0E0E0"/>
            <path d="M204.653 154.146v2.593a1.13 1.13 0 0 1-.538.915l-.608.355c-.29.164-.524 0-.524-.314v-2.594c.02-.373.213-.716.524-.928l.608-.341c.303-.164.538-.027.538.314ZM199.229 157.23v2.608a1.172 1.172 0 0 1-.539.915l-.593.34c-.304.165-.539 0-.539-.3v-2.607a1.13 1.13 0 0 1 .539-.914l.593-.355c.304-.164.539-.027.539.314ZM193.818 160.316v2.607a1.172 1.172 0 0 1-.538.915l-.608.34c-.29.178-.538 0-.538-.3v-2.607c.023-.372.222-.711.538-.914l.58-.314c.318-.205.566 0 .566.273Z" fill="#FAFAFA"/>
            <path d="M188.394 163.414v2.594a1.13 1.13 0 0 1-.539.914l-.593.355c-.304.164-.539 0-.539-.314v-2.593c.019-.377.219-.722.539-.928l.593-.342c.304-.163.539-.027.539.314ZM182.983 166.5v2.593a1.212 1.212 0 0 1-.538.928l-.608.341c-.29.164-.538 0-.538-.3v-2.607c.023-.372.222-.712.538-.915l.608-.355c.29-.163.538-.027.538.314Z" fill="#E0E0E0"/>
            <path d="M163.342 216.96a1.801 1.801 0 0 1-.925-.232 2.244 2.244 0 0 1-1.007-2.048v-19.37a5.653 5.653 0 0 1 2.65-4.517l57.06-32.583a2.09 2.09 0 0 1 2.298-.148 2.04 2.04 0 0 1 1.014 2.045v19.342a5.694 5.694 0 0 1-2.636 4.519l-57.06 32.569c-.418.262-.9.408-1.394.423Z" fill="#7F328C"/>
            <path d="M219.477 167.687a4.852 4.852 0 0 1-2.291 3.767l-48.447 27.655c-1.256.738-2.291.219-2.291-1.146a4.89 4.89 0 0 1 2.236-3.795l48.446-27.655c1.27-.696 2.347-.191 2.347 1.174ZM217.13 176.423l-20.565 11.739v4.928l20.565-11.74a4.851 4.851 0 0 0 2.292-3.78c.055-1.393-1.022-1.911-2.292-1.147Z" fill="#FAFAFA"/>
            <path d="M179.96 225.44a2.106 2.106 0 0 1-1.049-.259 2.516 2.516 0 0 1-1.132-2.32v-5.365a6.511 6.511 0 0 1 3.023-5.187l39.903-22.782a2.564 2.564 0 0 1 2.595-.177 2.475 2.475 0 0 1 1.132 2.306v5.365a6.511 6.511 0 0 1-3.023 5.187l-39.903 22.782c-.467.28-1 .434-1.546.45Z" fill="#7F328C"/>
            <path d="M220.857 194.673v2.594a1.212 1.212 0 0 1-.538.928l-.607.341c-.29.164-.539 0-.539-.314v-2.593c.025-.375.224-.718.539-.929l.607-.34c.345-.192.538-.028.538.313ZM215.488 197.758v2.607a1.172 1.172 0 0 1-.538.915l-.594.341c-.303.164-.538 0-.538-.3v-2.607a1.13 1.13 0 0 1 .538-.915l.594-.355c.303-.164.538-.027.538.314Z" fill="#FAFAFA"/>
            <path d="M210.077 200.843v2.607a1.172 1.172 0 0 1-.538.915l-.607.341c-.29.177-.539 0-.539-.3v-2.607c.025-.372.224-.71.539-.915l.607-.341c.276-.178.538-.041.538.3Z" fill="#E0E0E0"/>
            <path d="M204.653 203.942v2.593a1.13 1.13 0 0 1-.538.915l-.608.355c-.29.163-.524 0-.524-.314v-2.594c.02-.373.213-.716.524-.928l.608-.341c.303-.164.538-.028.538.314ZM199.229 207.027v2.607a1.172 1.172 0 0 1-.539.914l-.593.341c-.304.164-.539 0-.539-.3v-2.607a1.13 1.13 0 0 1 .539-.915l.593-.354c.304-.164.539-.028.539.314ZM193.818 210.111v2.608a1.172 1.172 0 0 1-.538.914l-.608.341c-.29.178-.538 0-.538-.3v-2.607c.025-.371.224-.71.538-.915l.608-.34c.29-.178.538-.042.538.3Z" fill="#FAFAFA"/>
            <path d="M188.394 213.278v2.594a1.13 1.13 0 0 1-.539.914l-.593.355c-.304.164-.539 0-.539-.314v-2.593c.019-.377.219-.723.539-.928l.593-.342c.304-.232.539-.095.539.314ZM182.983 216.295v2.593a1.212 1.212 0 0 1-.538.929l-.608.34c-.29.165-.538 0-.538-.3v-2.607c.023-.372.222-.711.538-.914l.608-.355c.29-.164.538.027.538.314Z" fill="#E0E0E0"/>
            <path d="M163.342 267.115a1.801 1.801 0 0 1-.925-.233 2.244 2.244 0 0 1-1.007-2.047v-19.37a5.653 5.653 0 0 1 2.65-4.518l57.06-32.583a2.09 2.09 0 0 1 2.298-.147 2.04 2.04 0 0 1 1.014 2.045v19.396a5.694 5.694 0 0 1-2.636 4.519l-57.06 32.569a2.79 2.79 0 0 1-1.394.369Z" fill="#7F328C"/>
            <path d="M219.477 217.482a4.852 4.852 0 0 1-2.291 3.768l-48.502 27.655c-1.256.737-2.292.218-2.292-1.147a4.892 4.892 0 0 1 2.292-3.767l48.446-27.655c1.27-.724 2.347-.219 2.347 1.146ZM217.13 226.178l-20.565 11.739v4.927l20.565-11.739a4.851 4.851 0 0 0 2.292-3.78c.055-1.352-1.022-1.87-2.292-1.147Z" fill="#FAFAFA"/>
            <path d="M179.96 275.236a2.106 2.106 0 0 1-1.049-.26 2.516 2.516 0 0 1-1.132-2.32v-5.364a6.511 6.511 0 0 1 3.023-5.187l39.903-22.782a2.564 2.564 0 0 1 2.595-.178 2.475 2.475 0 0 1 1.132 2.307v5.365a6.511 6.511 0 0 1-3.023 5.187l-39.903 22.782c-.467.279-1 .434-1.546.45Z" fill="#7F328C"/>
            <path d="M220.857 244.469v2.593a1.212 1.212 0 0 1-.538.929l-.607.34c-.29.165-.539 0-.539-.313v-2.594c.025-.375.224-.718.539-.928l.607-.341c.345-.164.538-.027.538.314ZM215.488 247.554v2.58a1.172 1.172 0 0 1-.538.914l-.594.341c-.303.164-.538 0-.538-.3v-2.607a1.13 1.13 0 0 1 .538-.915l.594-.34c.303-.151.538-.015.538.327Z" fill="#FAFAFA"/>
            <path d="M210.077 250.639v2.607a1.172 1.172 0 0 1-.538.914l-.607.342c-.29.177-.539 0-.539-.3v-2.608c.025-.371.224-.71.539-.914l.607-.342c.276-.204.538-.04.538.3Z" fill="#E0E0E0"/>
            <path d="M204.653 253.737v2.594a1.171 1.171 0 0 1-.538.928l-.608.341c-.29.164-.524 0-.524-.314v-2.593c.02-.374.213-.717.524-.928l.608-.342c.303-.164.538-.027.538.314ZM199.229 256.822v2.607a1.172 1.172 0 0 1-.539.915l-.593.341c-.304.164-.539 0-.539-.3v-2.607a1.13 1.13 0 0 1 .539-.915l.593-.341c.304-.178.539-.041.539.3ZM193.818 259.907v2.607a1.172 1.172 0 0 1-.538.915l-.608.341c-.29.177-.538 0-.538-.3v-2.607c.025-.372.224-.71.538-.915l.608-.341c.29-.178.538-.041.538.3Z" fill="#FAFAFA"/>
            <path d="M188.394 263.006v2.593a1.13 1.13 0 0 1-.539.915l-.593.355c-.304.163-.539 0-.539-.314v-2.594c.019-.377.219-.722.539-.928l.593-.341c.304-.164.539-.028.539.314ZM182.983 266.09v2.608c-.029.37-.227.707-.538.914l-.608.342c-.29.163-.538 0-.538-.3v-2.608c.023-.372.222-.711.538-.914l.608-.355c.29-.164.538-.028.538.314Z" fill="#E0E0E0"/>
            <path d="M163.342 117.728a1.801 1.801 0 0 1-.925-.233 2.244 2.244 0 0 1-1.007-2.047v-19.37a5.68 5.68 0 0 1 2.636-4.518l57.06-32.528a2.09 2.09 0 0 1 2.298-.148 2.04 2.04 0 0 1 1.014 2.045V80.3a5.653 5.653 0 0 1-2.636 4.504l-57.06 32.583a2.79 2.79 0 0 1-1.38.342Z" fill="#7F328C"/>
            <path d="M219.477 68.096a4.852 4.852 0 0 1-2.291 3.767l-48.447 27.655c-1.256.724-2.291.219-2.291-1.146a4.892 4.892 0 0 1 2.29-3.768l48.448-27.655c1.214-.723 2.29-.218 2.29 1.147ZM217.13 76.777l-20.565 11.74v4.913l20.565-11.725a4.851 4.851 0 0 0 2.292-3.781c.055-1.338-1.022-1.857-2.292-1.147Z" fill="#FFF"/>
            <path d="m88.173 239.39 1.118-.64a1.505 1.505 0 0 1 1.491.15 4.618 4.618 0 0 1 2.126 3.63 1.468 1.468 0 0 1-.622 1.365l-1.049.587-.179-.314a1.973 1.973 0 0 1-.607-.232 4.617 4.617 0 0 1-2.098-3.63 2.187 2.187 0 0 1 0-.547l-.18-.368Z" fill="#E0E0E0"/>
            <path d="M89.733 239.514a4.618 4.618 0 0 1 2.126 3.63c0 1.366-.953 1.884-2.126 1.216a4.631 4.631 0 0 1-2.126-3.645c-.013-1.338.939-1.87 2.126-1.201Z" fill="#F0F0F0"/>
            <path d="m85.854 233.876 8.613 4.9a5.299 5.299 0 0 1 2.443 4.178v4.886c0 1.543-1.09 2.17-2.443 1.365l-8.613-4.886a5.34 5.34 0 0 1-2.443-4.191v-4.887c0-1.488 1.09-2.13 2.443-1.365Z" fill="#E0E0E0"/>
            <path d="m85.854 233.876 8.613 4.9a5.299 5.299 0 0 1 2.443 4.178v4.886c0 1.543-1.09 2.17-2.443 1.365l-8.613-4.886a5.34 5.34 0 0 1-2.443-4.191v-4.887c0-1.488 1.09-2.13 2.443-1.365ZM103.825 242.23l41.767 23.833a2.943 2.943 0 0 1 1.38 2.307v11.412c0 .86-.607 1.2-1.38.778l-41.767-23.833a2.943 2.943 0 0 1-1.38-2.32v-11.399c.028-.86.635-1.201 1.38-.778Z" fill="#7F328C"/>
            <path d="M105.012 247.253a2.863 2.863 0 0 0 1.38 2.225l36.688 20.926c.745.423 1.38.123 1.38-.669a2.863 2.863 0 0 0-1.38-2.225l-36.715-20.925c-.745-.424-1.353-.123-1.353.668Z" fill="#E0E0E0"/>
            <path d="M105.012 253.055a2.863 2.863 0 0 0 1.38 2.225l36.688 20.925c.745.423 1.38.123 1.38-.682a2.863 2.863 0 0 0-1.38-2.212l-36.687-20.925c-.773-.437-1.38-.123-1.38.669Z" fill="#F0F0F0"/>
            <path d="m106.365 252.386 20.262 11.548v2.894l-20.262-11.548a2.863 2.863 0 0 1-1.38-2.225c.027-.792.635-1.106 1.38-.67Z" fill="#E0E0E0"/>
            <path d="m85.854 210.22 8.613 4.887a5.34 5.34 0 0 1 2.443 4.191v4.9c0 1.543-1.09 2.157-2.443 1.365l-8.613-4.9a5.299 5.299 0 0 1-2.443-4.177v-4.887c0-1.529 1.09-2.143 2.443-1.378ZM85.854 186.688l8.613 4.9a5.312 5.312 0 0 1 2.443 4.177v4.887c0 1.542-1.09 2.17-2.443 1.365l-8.613-4.887a5.34 5.34 0 0 1-2.443-4.19v-4.874c0-1.515 1.09-2.088 2.443-1.378ZM103.825 195.042l41.767 23.833a2.943 2.943 0 0 1 1.38 2.32v11.398c0 .86-.607 1.201-1.38.778l-41.767-23.833a2.943 2.943 0 0 1-1.38-2.307V195.82c.028-.847.635-1.201 1.38-.778Z" fill="#7F328C"/>
            <path d="M105.012 200.079c.077.912.59 1.734 1.38 2.21l36.688 20.927c.745.436 1.38.122 1.38-.67a2.863 2.863 0 0 0-1.38-2.224l-36.687-20.926c-.773-.423-1.38-.123-1.38.683ZM105.012 205.866a2.863 2.863 0 0 0 1.38 2.225l36.688 20.926c.745.423 1.38.123 1.38-.669a2.863 2.863 0 0 0-1.38-2.225l-36.687-20.926c-.773-.423-1.38-.109-1.38.67Z" fill="#FFF"/>
            <path d="m103.825 218.643 41.767 23.82a2.943 2.943 0 0 1 1.38 2.32v11.398c0 .86-.607 1.2-1.38.778l-41.767-23.82a2.984 2.984 0 0 1-1.38-2.32v-11.412c.028-.846.635-1.201 1.38-.764Z" fill="#7F328C"/>
            <path d="M105.012 223.666c.08.916.59 1.74 1.38 2.225l36.688 20.926c.745.423 1.38.122 1.38-.683a2.863 2.863 0 0 0-1.38-2.225l-36.687-20.926c-.773-.423-1.38-.15-1.38.683Z" fill="#E0E0E0"/>
            <path d="M105.012 229.467c.077.913.59 1.735 1.38 2.212l36.688 20.925c.745.437 1.38.123 1.38-.669a2.863 2.863 0 0 0-1.38-2.225l-36.687-20.925c-.773-.423-1.38-.123-1.38.682Z" fill="#F0F0F0"/>
            <path d="m106.365 228.785 25.342 14.524v2.893l-25.342-14.455a2.863 2.863 0 0 1-1.38-2.211c.027-.874.635-1.174 1.38-.751Z" fill="#E0E0E0"/>
        </g>
        <path d="m414.194 263.71 11.274-6.516a5.41 5.41 0 0 1 4.882 0l67.104 38.678c.77.441 1.716.44 2.485-.002a2.486 2.486 0 0 0 1.246-2.147" stroke="#933CDD" stroke-width="2"/>
        <path d="m409.583 261.066 15.885-9.15a5.41 5.41 0 0 1 4.882 0l71.68 41.312c.77.44 1.717.44 2.486-.003a2.486 2.486 0 0 0 1.247-2.147" stroke="#933CDD" stroke-width="2"/>
        <path d="m405.006 258.421 20.462-11.782a5.41 5.41 0 0 1 4.882 0l76.292 43.956a2.484 2.484 0 0 0 2.483-.002 2.475 2.475 0 0 0 1.237-2.148" stroke="#933CDD" stroke-width="2"/>
        <path d="m400.417 255.788 25.051-14.427a5.41 5.41 0 0 1 4.882 0l80.802 46.589a2.484 2.484 0 0 0 2.482-.001 2.475 2.475 0 0 0 1.238-2.148" stroke="#933CDD" stroke-width="2"/>
        <path d="m419.628.582-72.977 42.054a5.377 5.377 0 0 0-2.435 4.22v200.222a5.4 5.4 0 0 0 2.435 4.22l72.977 42.054a5.41 5.41 0 0 0 4.882 0l72.966-42.054a5.377 5.377 0 0 0 2.447-4.22V46.856a5.377 5.377 0 0 0-2.447-4.22L424.51.582a5.41 5.41 0 0 0-4.882 0Z" fill="#6AA6D6" fill-rule="nonzero"/>
        <path d="M499.877 46.845v200.233a5.4 5.4 0 0 1-2.435 4.22l-72.977 42.054a4.915 4.915 0 0 1-2.435.586V88.078a5.058 5.058 0 0 0 2.435-.586l72.977-42.054.665-.551.869-.72c.55.789.862 1.718.901 2.678Z" fill="#3C80B6" fill-rule="nonzero"/>
        <path d="m355.817 66.561 54.657 31.51a5.377 5.377 0 0 1 2.435 4.22v20.762c0 1.553-1.128 2.183-2.447 1.407l-54.645-31.51a5.377 5.377 0 0 1-2.447-4.22V67.968c0-1.553 1.071-2.184 2.447-1.407Z" fill="#22689F" fill-rule="nonzero"/>
        <path d="M357.959 75.71a5.198 5.198 0 0 0 2.435 4.04l45.491 26.22c1.353.777 2.447.226 2.447-1.226a5.22 5.22 0 0 0-2.447-4.051l-45.491-26.22c-1.353-.777-2.435-.226-2.435 1.237Z" fill="#18C3BB" fill-rule="nonzero"/>
        <path d="M357.959 86.266a5.198 5.198 0 0 0 2.435 4.04l45.491 26.22c1.353.777 2.447.225 2.447-1.226a5.22 5.22 0 0 0-2.447-4.052l-45.491-26.22c-1.353-.777-2.435-.225-2.435 1.238Z" fill="#FFF" fill-rule="nonzero"/>
        <path d="m360.394 85.028 25.04 14.438v5.278l-25.04-14.438a5.198 5.198 0 0 1-2.435-4.04c0-1.463 1.082-2.015 2.435-1.238Z" fill="#18C3BB" fill-rule="nonzero"/>
        <path d="m355.817 103.506 54.657 31.51a5.4 5.4 0 0 1 2.435 4.22v20.751c0 1.553-1.128 2.183-2.447 1.407l-54.645-31.51a5.377 5.377 0 0 1-2.447-4.22v-20.751c0-1.553 1.071-2.183 2.447-1.407Z" fill="#22689F" fill-rule="nonzero"/>
        <path d="M357.959 112.655a5.209 5.209 0 0 0 2.435 4.051l45.491 26.21c1.353.776 2.447.225 2.447-1.227a5.22 5.22 0 0 0-2.447-4.051l-45.491-26.21c-1.353-.776-2.435-.225-2.435 1.227Z" fill="#18C3BB" fill-rule="nonzero"/>
        <path d="M357.959 123.21a5.209 5.209 0 0 0 2.435 4.052l45.491 26.22c1.353.777 2.447.226 2.447-1.237a5.231 5.231 0 0 0-2.447-4.052l-45.491-26.209c-1.353-.776-2.435-.225-2.435 1.227Z" fill="#FFF" fill-rule="nonzero"/>
        <path d="m360.394 121.984 38.772 22.338v5.278l-38.772-22.338a5.209 5.209 0 0 1-2.435-4.051c0-1.452 1.082-2.003 2.435-1.227Z" fill="#18C3BB" fill-rule="nonzero"/>
        <path d="m355.817 140.406 54.657 31.51a5.4 5.4 0 0 1 2.435 4.22v20.762c0 1.553-1.128 2.184-2.447 1.407l-54.645-31.51a5.377 5.377 0 0 1-2.447-4.22v-20.717c0-1.553 1.071-2.183 2.447-1.452Z" fill="#22689F" fill-rule="nonzero"/>
        <path d="M357.959 149.6a5.209 5.209 0 0 0 2.435 4.051l45.491 26.22c1.353.777 2.447.226 2.447-1.237a5.22 5.22 0 0 0-2.447-4.04l-45.491-26.22c-1.353-.777-2.435-.226-2.435 1.226Z" fill="#18C3BB" fill-rule="nonzero"/>
        <path d="M357.959 160.167a5.198 5.198 0 0 0 2.435 4.04l45.491 26.22c1.353.777 2.447.226 2.447-1.237a5.22 5.22 0 0 0-2.447-4.04l-45.491-26.22c-1.353-.777-2.435-.226-2.435 1.237Z" fill="#FFF" fill-rule="nonzero"/>
        <path d="m360.394 158.93 15.874 9.148v5.278l-15.874-9.149a5.198 5.198 0 0 1-2.435-4.04c0-1.463 1.082-2.014 2.435-1.238Z" fill="#18C3BB" fill-rule="nonzero"/>
        <path d="m355.817 177.407 54.657 31.51a5.4 5.4 0 0 1 2.435 4.22v20.774c0 1.553-1.128 2.183-2.447 1.407l-54.645-31.51a5.377 5.377 0 0 1-2.447-4.22v-20.774c0-1.553 1.071-2.183 2.447-1.407Z" fill="#22689F" fill-rule="nonzero"/>
        <path d="M357.959 186.545a5.198 5.198 0 0 0 2.435 4.04l45.491 26.22c1.353.777 2.447.226 2.447-1.226a5.22 5.22 0 0 0-2.447-4.051l-45.491-26.22c-1.353-.766-2.435-.214-2.435 1.237Z" fill="#18C3BB" fill-rule="nonzero"/>
        <path d="M357.959 197.112a5.198 5.198 0 0 0 2.435 4.063l45.491 26.22c1.353.777 2.447.225 2.447-1.226a5.22 5.22 0 0 0-2.447-4.052l-45.491-26.22c-1.353-.8-2.435-.248-2.435 1.215Z" fill="#FFF" fill-rule="nonzero"/>
        <path d="m360.394 195.874 25.04 14.438v5.278l-25.04-14.415a5.198 5.198 0 0 1-2.435-4.04c0-1.486 1.082-2.037 2.435-1.26Z" fill="#18C3BB" fill-rule="nonzero"/>
        <path d="m355.817 214.352 54.657 31.51a5.4 5.4 0 0 1 2.435 4.22v20.752c0 1.553-1.128 2.183-2.447 1.406l-54.645-31.51a5.377 5.377 0 0 1-2.447-4.22v-20.706c0-1.598 1.071-2.25 2.447-1.452Z" fill="#22689F" fill-rule="nonzero"/>
        <path d="M357.959 223.502a5.209 5.209 0 0 0 2.435 4.05l45.491 26.21c1.353.777 2.447.225 2.447-1.227a5.22 5.22 0 0 0-2.447-4.05l-45.491-26.21c-1.353-.777-2.435-.225-2.435 1.227Z" fill="#18C3BB" fill-rule="nonzero"/>
        <path d="M357.959 234.057a5.209 5.209 0 0 0 2.435 4.052l45.491 26.209c1.353.776 2.447.225 2.447-1.227a5.22 5.22 0 0 0-2.447-4.051l-45.491-26.21c-1.353-.776-2.435-.224-2.435 1.227Z" fill="#FFF" fill-rule="nonzero"/>
        <path d="m360.394 232.83 34.194 19.705v5.278l-34.194-19.704a5.209 5.209 0 0 1-2.435-4.052c0-1.451 1.082-2.003 2.435-1.226Z" fill="#18C3BB" fill-rule="nonzero"/>
        <path d="M433.518 100.794c2.525-1.463 4.577-.135 4.577 2.97v120.717a10.472 10.472 0 0 1-4.577 8.282c-2.525 1.463-4.577.135-4.577-2.982V109.065a10.472 10.472 0 0 1 4.577-8.271Z" fill="#22689F" fill-rule="nonzero"/>
        <path d="M433.518 230.085a5.208 5.208 0 0 0 2.255-4.13V104.9c0-1.553-1.026-2.25-2.255-1.496a5.242 5.242 0 0 0-2.255 4.141v121.053c-.034 1.553.97 2.217 2.255 1.486Z" fill="#FFF" fill-rule="nonzero"/>
        <path d="M433.518 230.085a5.208 5.208 0 0 0 2.255-4.13v-57.877l-4.577 2.645v57.876c.033 1.553 1.037 2.217 2.322 1.486Z" fill="#18C3BB" fill-rule="nonzero"/>
        <path d="M447.261 92.872c2.526-1.463 4.577-.124 4.577 2.982v120.715a10.472 10.472 0 0 1-4.577 8.272c-2.537 1.463-4.588.135-4.588-2.971V101.154a10.472 10.472 0 0 1 4.588-8.282Z" fill="#22689F" fill-rule="nonzero"/>
        <path d="M447.261 222.174a5.23 5.23 0 0 0 2.255-4.13V96.99c0-1.564-1.026-2.25-2.255-1.496a5.23 5.23 0 0 0-2.255 4.13v121.053c-.045 1.553.981 2.228 2.255 1.497Z" fill="#18C3BB" fill-rule="nonzero"/>
        <path d="M460.993 84.96c2.525-1.463 4.577-.135 4.577 2.971v120.716a10.461 10.461 0 0 1-4.577 8.283c-2.525 1.462-4.577.123-4.577-2.983V93.232a10.472 10.472 0 0 1 4.577-8.272Z" fill="#22689F" fill-rule="nonzero"/>
        <path d="M460.993 214.251a5.208 5.208 0 0 0 2.255-4.13V89.068c0-1.553-1.026-2.25-2.255-1.497a5.23 5.23 0 0 0-2.255 4.141v121.054c-.034 1.553.992 2.217 2.255 1.485Z" fill="#FFF" fill-rule="nonzero"/>
        <path d="M460.993 214.251a5.208 5.208 0 0 0 2.255-4.13v-93.505l-4.577 2.634v93.516c.033 1.553 1.06 2.217 2.322 1.485Z" fill="#18C3BB" fill-rule="nonzero"/>
        <path d="M474.736 77.038c2.526-1.463 4.577-.124 4.577 2.982v120.716a10.472 10.472 0 0 1-4.577 8.316c-2.536 1.463-4.577.135-4.577-2.97V85.32a10.45 10.45 0 0 1 4.577-8.282Z" fill="#22689F" fill-rule="nonzero"/>
        <path d="M474.736 206.34a5.23 5.23 0 0 0 2.255-4.13V81.145c0-1.553-1.026-2.25-2.255-1.485a5.208 5.208 0 0 0-2.255 4.13v121.053c-.033 1.553.992 2.229 2.255 1.497Z" fill="#FFF" fill-rule="nonzero"/>
        <path d="M474.736 206.34a5.23 5.23 0 0 0 2.255-4.13v-20.436l-4.577 2.644v20.425c.034 1.553 1.06 2.229 2.322 1.497Z" fill="#18C3BB" fill-rule="nonzero"/>
        <path d="M488.468 69.127c2.537-1.463 4.589-.135 4.589 2.97v120.716a10.472 10.472 0 0 1-4.589 8.283c-2.525 1.463-4.577.124-4.577-2.982V77.387a10.472 10.472 0 0 1 4.577-8.26Z" fill="#22689F" fill-rule="nonzero"/>
        <path d="M488.468 198.418a5.185 5.185 0 0 0 2.255-4.13V73.234c0-1.553-1.026-2.25-2.255-1.496a5.23 5.23 0 0 0-2.255 4.13v121.064c-.034 1.553.992 2.217 2.255 1.486Z" fill="#FFF" fill-rule="nonzero"/>
        <path d="M488.468 198.418a5.185 5.185 0 0 0 2.255-4.13v-63.155l-4.577 2.634v63.165c.033 1.553 1.06 2.217 2.322 1.486Z" fill="#18C3BB" fill-rule="nonzero"/>
        <path d="m430.891 247.449 60.204-34.695c1.127-.63 1.962-.123 1.962 1.126v21.888a4.309 4.309 0 0 1-1.962 3.376l-60.204 34.694c-1.127.63-1.95.124-1.95-1.125v-21.888a4.297 4.297 0 0 1 1.95-3.376Z" fill="#22689F" fill-rule="nonzero"/>
        <path d="M433.36 253.942c0 1.452 1.128 2.003 2.447 1.227l50.372-29.034a5.22 5.22 0 0 0 2.447-4.051c0-1.452-1.128-2.004-2.447-1.227l-50.372 29.034a5.22 5.22 0 0 0-2.447 4.051Z" fill="#FFF" fill-rule="nonzero"/>
        <path d="M433.36 253.942c0 1.452 1.128 2.003 2.447 1.227l36.64-21.123v-5.278l-36.64 21.123a5.22 5.22 0 0 0-2.447 4.051Z" fill="#18C3BB" fill-rule="nonzero"/>
        <path d="M433.36 264.498c0 1.452 1.128 2.014 2.447 1.226l50.372-29.033a5.22 5.22 0 0 0 2.424-4.007c0-1.451-1.127-2.003-2.446-1.226l-50.373 29.034a5.22 5.22 0 0 0-2.424 4.006Z" fill="#FFF" fill-rule="nonzero"/>
        <path d="M433.36 264.498c0 1.452 1.128 2.014 2.447 1.226l13.743-7.877v-5.278l-13.743 7.878a5.22 5.22 0 0 0-2.447 4.05Z" fill="#18C3BB" fill-rule="nonzero"/>
        <path d="M497.476 42.636 424.51.582a5.41 5.41 0 0 0-4.882 0l-72.977 42.054a1.486 1.486 0 0 0 0 2.814l72.977 42.065a5.375 5.375 0 0 0 4.882 0l72.966-42.043a1.486 1.486 0 0 0 0-2.836Z" fill="#9EC8EE" fill-rule="nonzero"/>
        <path d="m420.598 77.5-56.596-32.636a3.251 3.251 0 0 1-1.466-2.532V40.43a3.217 3.217 0 0 1 1.466-2.532l56.596-32.635a3.207 3.207 0 0 1 2.931 0l56.607 32.635a3.217 3.217 0 0 1 1.466 2.532v1.902a3.251 3.251 0 0 1-1.466 2.532L423.53 77.5a3.207 3.207 0 0 1-2.931 0Z" fill="#3C80B6" fill-rule="nonzero"/>
        <path d="m364.002 39.609 56.596 32.635c.92.473 2.011.473 2.931 0l56.607-32.635c.812-.473.812-1.227 0-1.688L423.53 5.286a3.207 3.207 0 0 0-2.931 0l-56.596 32.635c-.812.461-.812 1.204 0 1.688Z" fill="#B5D6F3" fill-rule="nonzero"/>
        <path d="M422.086 72.57v5.278a2.97 2.97 0 0 1-1.466-.349l-56.607-32.635a3.217 3.217 0 0 1-1.466-2.532V40.43a3.25 3.25 0 0 1 1.195-2.34c-.53.461-.44 1.125.271 1.496l56.607 32.635c.45.24.956.36 1.466.35Z" fill="#6AA6D6" fill-rule="nonzero"/>
        <g>
            <path d="m362.333 313.225 11.274-6.515a5.41 5.41 0 0 1 4.882 0l85.142 49.931" stroke="#933CDD" stroke-width="2"/>
            <path d="m357.722 310.58 15.885-9.148a5.41 5.41 0 0 1 4.882 0l89.72 52.565" stroke="#933CDD" stroke-width="2"/>
            <path d="m353.145 307.936 20.462-11.782a5.41 5.41 0 0 1 4.882 0l94.33 55.21" stroke="#933CDD" stroke-width="2"/>
            <path d="m348.556 305.303 25.051-14.427a5.41 5.41 0 0 1 4.882 0l98.84 57.843" stroke="#933CDD" stroke-width="2"/>
            <path d="m286.594 77.105-72.978 42.055a5.377 5.377 0 0 0-2.435 4.22V323.6a5.4 5.4 0 0 0 2.435 4.221l72.978 42.054a5.41 5.41 0 0 0 4.881 0l72.966-42.054a5.377 5.377 0 0 0 2.447-4.22V123.38a5.377 5.377 0 0 0-2.447-4.22l-72.966-42.055a5.41 5.41 0 0 0-4.881 0Z" fill="#6AA6D6" fill-rule="nonzero"/>
            <path d="M366.843 123.368v200.233a5.4 5.4 0 0 1-2.435 4.22l-72.978 42.054a4.915 4.915 0 0 1-2.435.587V164.6a5.058 5.058 0 0 0 2.435-.585l72.978-42.054.665-.552.868-.72c.55.789.862 1.718.902 2.678Z" fill="#3C80B6" fill-rule="nonzero"/>
            <path d="m222.782 143.084 54.657 31.51a5.377 5.377 0 0 1 2.435 4.22v20.763c0 1.553-1.127 2.183-2.446 1.406l-54.646-31.51a5.377 5.377 0 0 1-2.446-4.22v-20.762c0-1.553 1.07-2.183 2.446-1.407Z" fill="#22689F" fill-rule="nonzero"/>
            <path d="M224.924 152.233a5.198 5.198 0 0 0 2.435 4.04l45.491 26.221c1.353.776 2.447.225 2.447-1.227a5.22 5.22 0 0 0-2.447-4.05l-45.49-26.221c-1.354-.777-2.436-.225-2.436 1.237Z" fill="#18C3BB" fill-rule="nonzero"/>
            <path d="M224.924 162.79a5.198 5.198 0 0 0 2.435 4.04l45.491 26.22c1.353.776 2.447.225 2.447-1.227a5.22 5.22 0 0 0-2.447-4.051l-45.49-26.22c-1.354-.777-2.436-.226-2.436 1.237Z" fill="#FFF" fill-rule="nonzero"/>
            <path d="m227.36 161.551 25.04 14.438v5.278l-25.04-14.438a5.198 5.198 0 0 1-2.436-4.04c0-1.463 1.082-2.014 2.435-1.238Z" fill="#18C3BB" fill-rule="nonzero"/>
            <path d="m222.782 180.03 54.657 31.51a5.4 5.4 0 0 1 2.435 4.22v20.75c0 1.553-1.127 2.184-2.446 1.407l-54.646-31.51a5.377 5.377 0 0 1-2.446-4.22v-20.75c0-1.554 1.07-2.184 2.446-1.408Z" fill="#22689F" fill-rule="nonzero"/>
            <path d="M224.924 189.179a5.209 5.209 0 0 0 2.435 4.05l45.491 26.21c1.353.777 2.447.225 2.447-1.227a5.22 5.22 0 0 0-2.447-4.05l-45.49-26.21c-1.354-.777-2.436-.225-2.436 1.227Z" fill="#18C3BB" fill-rule="nonzero"/>
            <path d="M224.924 199.734a5.209 5.209 0 0 0 2.435 4.051l45.491 26.221c1.353.777 2.447.225 2.447-1.238a5.231 5.231 0 0 0-2.447-4.051l-45.49-26.21c-1.354-.776-2.436-.224-2.436 1.227Z" fill="#FFF" fill-rule="nonzero"/>
            <path d="m227.36 198.508 38.771 22.338v5.278l-38.772-22.339a5.209 5.209 0 0 1-2.435-4.05c0-1.452 1.082-2.004 2.435-1.227Z" fill="#18C3BB" fill-rule="nonzero"/>
            <path d="m222.782 216.93 54.657 31.51a5.4 5.4 0 0 1 2.435 4.22v20.762c0 1.553-1.127 2.183-2.446 1.407l-54.646-31.51a5.377 5.377 0 0 1-2.446-4.22V218.38c0-1.553 1.07-2.183 2.446-1.451Z" fill="#22689F" fill-rule="nonzero"/>
            <path d="M224.924 226.124a5.209 5.209 0 0 0 2.435 4.05l45.491 26.221c1.353.777 2.447.225 2.447-1.238a5.22 5.22 0 0 0-2.447-4.04l-45.49-26.22c-1.354-.777-2.436-.225-2.436 1.227Z" fill="#18C3BB" fill-rule="nonzero"/>
            <path d="M224.924 236.69a5.198 5.198 0 0 0 2.435 4.04l45.491 26.221c1.353.777 2.447.225 2.447-1.238a5.22 5.22 0 0 0-2.447-4.04l-45.49-26.22c-1.354-.777-2.436-.225-2.436 1.238Z" fill="#FFF" fill-rule="nonzero"/>
            <path d="m227.36 235.453 15.873 9.149v5.278l-15.874-9.15a5.198 5.198 0 0 1-2.435-4.04c0-1.462 1.082-2.014 2.435-1.237Z" fill="#18C3BB" fill-rule="nonzero"/>
            <path d="m222.782 253.93 54.657 31.51a5.4 5.4 0 0 1 2.435 4.22v20.774c0 1.553-1.127 2.184-2.446 1.407l-54.646-31.51a5.377 5.377 0 0 1-2.446-4.22v-20.773c0-1.553 1.07-2.184 2.446-1.407Z" fill="#22689F" fill-rule="nonzero"/>
            <path d="M224.924 263.069a5.198 5.198 0 0 0 2.435 4.04l45.491 26.22c1.353.777 2.447.225 2.447-1.226a5.22 5.22 0 0 0-2.447-4.052l-45.49-26.22c-1.354-.765-2.436-.214-2.436 1.238Z" fill="#18C3BB" fill-rule="nonzero"/>
            <path d="M224.924 273.636a5.198 5.198 0 0 0 2.435 4.062l45.491 26.22c1.353.777 2.447.226 2.447-1.226a5.22 5.22 0 0 0-2.447-4.051l-45.49-26.22c-1.354-.8-2.436-.248-2.436 1.215Z" fill="#FFF" fill-rule="nonzero"/>
            <path d="m227.36 272.398 25.04 14.438v5.278l-25.04-14.416a5.198 5.198 0 0 1-2.436-4.04c0-1.485 1.082-2.037 2.435-1.26Z" fill="#18C3BB" fill-rule="nonzero"/>
            <path d="m222.782 290.876 54.657 31.51a5.4 5.4 0 0 1 2.435 4.22v20.751c0 1.553-1.127 2.183-2.446 1.407l-54.646-31.51a5.377 5.377 0 0 1-2.446-4.22v-20.706c0-1.598 1.07-2.251 2.446-1.452Z" fill="#22689F" fill-rule="nonzero"/>
            <path d="M224.924 300.025a5.209 5.209 0 0 0 2.435 4.051l45.491 26.21c1.353.776 2.447.225 2.447-1.227a5.22 5.22 0 0 0-2.447-4.051l-45.49-26.21c-1.354-.776-2.436-.225-2.436 1.227Z" fill="#18C3BB" fill-rule="nonzero"/>
            <path d="M224.924 310.58a5.209 5.209 0 0 0 2.435 4.052l45.491 26.21c1.353.776 2.447.224 2.447-1.227a5.22 5.22 0 0 0-2.447-4.052l-45.49-26.209c-1.354-.776-2.436-.225-2.436 1.227Z" fill="#FFF" fill-rule="nonzero"/>
            <path d="m227.36 309.354 34.194 19.705v5.278l-34.195-19.705a5.209 5.209 0 0 1-2.435-4.051c0-1.452 1.082-2.003 2.435-1.227Z" fill="#18C3BB" fill-rule="nonzero"/>
            <path d="M300.483 177.317c2.526-1.463 4.578-.135 4.578 2.971v120.716a10.472 10.472 0 0 1-4.578 8.283c-2.525 1.463-4.577.135-4.577-2.983V185.59a10.472 10.472 0 0 1 4.577-8.272Z" fill="#22689F" fill-rule="nonzero"/>
            <path d="M300.483 306.608a5.208 5.208 0 0 0 2.255-4.13V181.425c0-1.553-1.026-2.25-2.255-1.497a5.242 5.242 0 0 0-2.255 4.141v121.054c-.033 1.553.97 2.217 2.255 1.485Z" fill="#FFF" fill-rule="nonzero"/>
            <path d="M300.483 306.608a5.208 5.208 0 0 0 2.255-4.13v-57.876l-4.577 2.644v57.877c.034 1.553 1.037 2.217 2.322 1.485Z" fill="#18C3BB" fill-rule="nonzero"/>
            <path d="M314.226 169.395c2.526-1.463 4.578-.124 4.578 2.982v120.716a10.472 10.472 0 0 1-4.578 8.271c-2.536 1.463-4.588.135-4.588-2.97V177.677a10.472 10.472 0 0 1 4.588-8.283Z" fill="#22689F" fill-rule="nonzero"/>
            <path d="M314.226 298.697a5.23 5.23 0 0 0 2.255-4.13V173.514c0-1.565-1.026-2.251-2.255-1.497a5.23 5.23 0 0 0-2.254 4.13V297.2c-.045 1.553.98 2.229 2.254 1.497Z" fill="#18C3BB" fill-rule="nonzero"/>
            <path d="M327.958 161.484c2.526-1.463 4.578-.135 4.578 2.97V285.17a10.461 10.461 0 0 1-4.578 8.283c-2.525 1.463-4.577.124-4.577-2.982V169.755a10.472 10.472 0 0 1 4.577-8.271Z" fill="#22689F" fill-rule="nonzero"/>
            <path d="M327.958 290.775a5.208 5.208 0 0 0 2.255-4.13V165.59c0-1.553-1.026-2.25-2.255-1.496a5.23 5.23 0 0 0-2.254 4.14V289.29c-.034 1.553.992 2.217 2.254 1.486Z" fill="#FFF" fill-rule="nonzero"/>
            <path d="M327.958 290.775a5.208 5.208 0 0 0 2.255-4.13V193.14l-4.577 2.633v93.516c.034 1.553 1.06 2.217 2.322 1.486Z" fill="#18C3BB" fill-rule="nonzero"/>
            <path d="M341.702 153.561c2.525-1.463 4.577-.123 4.577 2.983v120.715a10.472 10.472 0 0 1-4.577 8.317c-2.537 1.462-4.578.135-4.578-2.971V161.844a10.45 10.45 0 0 1 4.578-8.283Z" fill="#22689F" fill-rule="nonzero"/>
            <path d="M341.702 282.863a5.23 5.23 0 0 0 2.254-4.13V157.67c0-1.553-1.026-2.25-2.254-1.486a5.208 5.208 0 0 0-2.255 4.13v121.054c-.034 1.553.992 2.228 2.255 1.496Z" fill="#FFF" fill-rule="nonzero"/>
            <path d="M341.702 282.863a5.23 5.23 0 0 0 2.254-4.13v-20.436l-4.577 2.645v20.425c.034 1.553 1.06 2.228 2.323 1.496Z" fill="#18C3BB" fill-rule="nonzero"/>
            <path d="M355.433 145.65c2.537-1.463 4.589-.135 4.589 2.971v120.716a10.472 10.472 0 0 1-4.589 8.282c-2.525 1.463-4.577.124-4.577-2.982V153.91a10.472 10.472 0 0 1 4.577-8.26Z" fill="#22689F" fill-rule="nonzero"/>
            <path d="M355.433 274.941a5.185 5.185 0 0 0 2.255-4.13V149.758c0-1.553-1.026-2.251-2.255-1.497a5.23 5.23 0 0 0-2.254 4.13v121.065c-.034 1.553.992 2.217 2.254 1.485Z" fill="#FFF" fill-rule="nonzero"/>
            <path d="M355.433 274.941a5.185 5.185 0 0 0 2.255-4.13v-63.154l-4.577 2.633v63.166c.034 1.553 1.06 2.217 2.322 1.485Z" fill="#18C3BB" fill-rule="nonzero"/>
            <path d="m297.856 323.972 60.204-34.694c1.128-.63 1.962-.124 1.962 1.125v21.888a4.309 4.309 0 0 1-1.962 3.376l-60.204 34.695c-1.127.63-1.95.123-1.95-1.126v-21.888a4.297 4.297 0 0 1 1.95-3.376Z" fill="#22689F" fill-rule="nonzero"/>
            <path d="M300.325 330.466c0 1.451 1.128 2.003 2.447 1.226l50.373-29.034a5.22 5.22 0 0 0 2.446-4.051c0-1.452-1.127-2.003-2.446-1.227l-50.373 29.034a5.22 5.22 0 0 0-2.447 4.052Z" fill="#FFF" fill-rule="nonzero"/>
            <path d="M300.325 330.466c0 1.451 1.128 2.003 2.447 1.226l36.64-21.123v-5.277l-36.64 21.122a5.22 5.22 0 0 0-2.447 4.052Z" fill="#18C3BB" fill-rule="nonzero"/>
            <path d="M300.325 341.021c0 1.452 1.128 2.015 2.447 1.227l50.373-29.034a5.22 5.22 0 0 0 2.424-4.006c0-1.452-1.128-2.003-2.447-1.227l-50.373 29.034a5.22 5.22 0 0 0-2.424 4.006Z" fill="#FFF" fill-rule="nonzero"/>
            <path d="M300.325 341.021c0 1.452 1.128 2.015 2.447 1.227l13.743-7.878v-5.277l-13.743 7.877a5.22 5.22 0 0 0-2.447 4.051Z" fill="#18C3BB" fill-rule="nonzero"/>
            <path d="m364.441 119.16-72.966-42.055a5.41 5.41 0 0 0-4.881 0l-72.978 42.055a1.486 1.486 0 0 0 0 2.813l72.978 42.065a5.375 5.375 0 0 0 4.881 0l72.966-42.043a1.486 1.486 0 0 0 0-2.835Z" fill="#9EC8EE" fill-rule="nonzero"/>
            <path d="m287.563 154.023-56.596-32.635a3.251 3.251 0 0 1-1.466-2.532v-1.902a3.217 3.217 0 0 1 1.466-2.532l56.596-32.635a3.207 3.207 0 0 1 2.931 0l56.608 32.635a3.217 3.217 0 0 1 1.465 2.532v1.902a3.251 3.251 0 0 1-1.465 2.532l-56.608 32.635a3.207 3.207 0 0 1-2.93 0Z" fill="#3E7CAE" fill-rule="nonzero"/>
            <path d="m230.967 116.132 56.596 32.635c.92.473 2.012.473 2.931 0l56.608-32.635c.812-.472.812-1.226 0-1.688L290.494 81.81a3.207 3.207 0 0 0-2.93 0l-56.597 32.635c-.812.462-.812 1.205 0 1.688Z" fill="#B5D6F3" fill-rule="nonzero"/>
            <path d="M289.051 149.094v5.278a2.97 2.97 0 0 1-1.465-.35l-56.608-32.634a3.217 3.217 0 0 1-1.465-2.532v-1.902a3.25 3.25 0 0 1 1.195-2.34c-.53.46-.44 1.125.27 1.496l56.608 32.635c.45.24.955.36 1.465.349Z" fill="#6AA6D6" fill-rule="nonzero"/>
        </g>
        <g fill-rule="nonzero">
            <path d="m460.363 379.389 69.73 40.265c.913.461 1.99.461 2.903 0l123.423-71.57a.889.889 0 0 0 0-1.689l-69.73-40.265a3.148 3.148 0 0 0-2.903 0L460.363 377.7a.889.889 0 0 0 0 1.689Z" fill="#D7DEE2"/>
            <path d="M464.644 315.687v61.653a1.6 1.6 0 0 0 .728 1.26l58.837 34.12c.457.236 1 .236 1.457 0l1.961-1.126c.426-.288.695-.758.729-1.272v-61.698a.854.854 0 0 0-.84-.844l-62.032-32.937a.854.854 0 0 0-.84.844Z" fill="#FFF"/>
            <path d="M527.515 347.78h-1.737a.842.842 0 0 0-.84.844v63.634c0 .462.325.653.728.417l1.961-1.126c.426-.288.695-.758.729-1.272v-61.653a.854.854 0 0 0-.84-.844Z" fill="#C3CCD2"/>
            <path d="M581.813 245.051v61.642c.027.516.298.989.729 1.272l61.157 35.436c.46.226.997.226 1.457 0l1.95-1.126c.43-.283.701-.755.728-1.272v-61.652a.835.835 0 0 0-.84-.845l-64.34-34.299a.828.828 0 0 0-.84.844Z" fill="#AFBAC1"/>
            <path d="M646.994 278.506h-1.726a.828.828 0 0 0-.84.845v63.577c0 .473.324.653.728.428l1.95-1.126c.43-.283.701-.755.728-1.272v-61.607a.835.835 0 0 0-.84-.845Z" fill="#C3CCD2"/>
            <path d="M458.906 313.751v-.574a3.245 3.245 0 0 1 1.457-2.533l123.423-71.57a3.148 3.148 0 0 1 2.902 0l65.382 37.901a3.279 3.279 0 0 1 1.457 2.533v.586a3.245 3.245 0 0 1-1.457 2.532l-123.423 71.559a3.148 3.148 0 0 1-2.902 0l-65.382-37.901a3.245 3.245 0 0 1-1.457-2.533Z" fill="#C3CCD2"/>
            <path d="M527.201 350.594v3.963a3.063 3.063 0 0 1-1.501-.372l-65.371-37.913a3.233 3.233 0 0 1-1.457-2.532v-.586a3.235 3.235 0 0 1 1.188-2.341c-.527.45-.437 1.126.269 1.497l65.37 37.935c.462.248.98.369 1.502.35Z" fill="#C3CCD2"/>
            <path d="m460.363 312.333 65.337 37.9c.91.474 1.992.474 2.902 0l123.424-71.57a.889.889 0 0 0 0-1.688l-65.382-37.9a3.148 3.148 0 0 0-2.903 0l-123.378 71.57a.889.889 0 0 0 0 1.688Z" fill="#FFF"/>
            <g>
                <path d="m565.698 277.302 11.072 6.416a2.253 2.253 0 0 1 1.209 1.998c0 .84-.466 1.611-1.209 1.998l-35.75 20.724a2.646 2.646 0 0 1-2.399 0l-11.06-6.416a2.253 2.253 0 0 1-1.199-1.993c0-.836.461-1.603 1.198-1.992l35.75-20.735a2.623 2.623 0 0 1 2.388 0Z" fill="#292F3B"/>
                <path d="M539.82 308.73a2.49 2.49 0 0 1-1.199-.292l-11.06-6.416a2.253 2.253 0 0 1-1.199-1.993c0-.836.461-1.603 1.198-1.992l1.12-.676h11.118l.023 11.37Z" fill="#1E2022"/>
                <path d="m527.549 298.037 35.75-20.735a2.646 2.646 0 0 1 2.399 0l11.061 6.416a.731.731 0 0 1 0 1.385l-35.75 20.735a2.623 2.623 0 0 1-2.388 0l-11.072-6.417a.731.731 0 0 1 0-1.384Z" fill="#455A64"/>
                <path d="m560.229 286.87 1.12-.653c.056 0 0-.079 0-.112l-1.3-.755a.246.246 0 0 0-.179 0l-1.12.653v.102l1.3.754a.2.2 0 0 0 .179.011Zm-2.242-2.6-1.12.653v.1l1.3.755a.2.2 0 0 0 .179 0l1.12-.653v-.101l-1.266-.743a.201.201 0 0 0-.19-.011h-.023Zm-3.642 2.116-1.905 1.126v.101l1.3.754a.167.167 0 0 0 .18 0l1.904-1.125v-.102l-1.3-.754a.167.167 0 0 0-.157 0h-.022Zm1.995-1.126-1.12.653c-.057 0 0 .079 0 .102l1.3.754a.2.2 0 0 0 .178 0l1.121-.653v-.113l-1.3-.754a.201.201 0 0 0-.157-.022l-.022.033Zm-4.393 2.51-1.121.653v.113l1.3.754a.2.2 0 0 0 .18 0l1.12-.653v-.101l-1.3-.754a.2.2 0 0 0-.18-.011Zm-1.648.957-1.12.653c-.057 0 0 .08 0 .102l1.3.754a.2.2 0 0 0 .179 0l1.12-.653v-.101l-1.3-.755a.2.2 0 0 0-.123.012l-.056-.012Zm5.122 3.073 1.12-.652c.057 0 0-.08 0-.102l-1.3-.754a.2.2 0 0 0-.179 0l-1.12.653v.101l1.3.766a.246.246 0 0 0 .179 0v-.012Zm-1.648.957 1.121-.653v-.112l-1.3-.754a.246.246 0 0 0-.18 0l-1.12.653v.1l1.3.755c.053.036.12.044.18.023v-.012Zm-1.647.946 1.12-.653v-.101l-1.3-.755a.167.167 0 0 0-.179 0l-1.12.653c-.056 0 0 .068 0 .102l1.3.754a.167.167 0 0 0 .179.011v-.011Zm-1.636.957 1.12-.653v-.102l-1.3-.754a.167.167 0 0 0-.179 0l-1.12.642a.068.068 0 0 0 0 .112l1.31.755a.2.2 0 0 0 .169.01v-.01Zm8.091-6.856 1.12-.653v-.1l-1.3-.755a.167.167 0 0 0-.178 0l-1.121.653v.101l1.3.754a.168.168 0 0 0 .18-.033v.033Zm-1.513 3.04 2.51-1.452v-.113l-3.16-1.824a.2.2 0 0 0-.18 0l-1.3.755v.1l1.67.98c.057 0 .057.068 0 .102l-1.042.596v.113l1.3.754c.066.04.148.04.213 0l-.01-.011Zm-8.416-1.126-1.121.653 1.311.754a.2.2 0 0 0 .18 0l1.12-.653v-.112l-1.3-.755a.201.201 0 0 0-.19.09v.023Zm-1.636.957-1.121.653v.101l1.3.754a.167.167 0 0 0 .18 0l1.12-.653c.056 0 0-.067 0-.101l-1.3-.754a.168.168 0 0 0-.202-.023l.023.023Zm-8.226 10.694a.167.167 0 0 0 .179 0l1.12-.653c.057 0 0-.068 0-.102l-1.3-.754a.167.167 0 0 0-.179 0l-1.12.653v.101l1.3.755Zm-4.943-3.062-1.12.653v.101l1.3.754a.167.167 0 0 0 .179 0l1.12-.653v-.101l-1.3-.754a.168.168 0 0 0-.179-.023v.023Zm2.645 2.251a.246.246 0 0 0 .18 0l1.12-.653v-.101l-1.3-.754a.2.2 0 0 0-.18 0l-1.12.653c-.056 0 0 .078 0 .112l1.3.743Zm5.2 1.407 1.12-.653v-.112l-1.3-.754a.246.246 0 0 0-.178 0l-1.121.652v.102l1.3.754c.06.021.126.013.18-.023v.034Zm-1.827.946a.167.167 0 0 0 .18 0l1.12-.653v-.101l-1.3-.755a.167.167 0 0 0-.179 0l-1.12.653c-.057 0 0 .068 0 .102l1.3.754Zm-4.37-5.55-1.121.653v.101l1.3.755a.2.2 0 0 0 .18 0l1.12-.653v-.113l-1.3-.754a.246.246 0 0 0-.18-.023v.034Zm8.226-4.773-1.121.653v.102l1.3.765a.246.246 0 0 0 .18 0l1.12-.653v-.101l-1.3-.754a.201.201 0 0 0-.18-.045v.033Zm-6.579 3.816-1.12.653v.102l1.3.765a.246.246 0 0 0 .179 0l1.12-.653c.056 0 0-.079 0-.101l-1.3-.754a.201.201 0 0 0-.179-.045v.033Zm8.226-4.772-1.12.653v.112l1.3.754a.2.2 0 0 0 .179 0l1.12-.653c.056 0 0-.078 0-.1l-1.3-.755a.201.201 0 0 0-.179-.045v.034Zm-3.295 1.913-1.12.653c-.057 0 0 .079 0 .101l1.3.755a.2.2 0 0 0 .179 0l1.12-.653v-.113l-1.3-.754a.201.201 0 0 0-.179-.023v.034Zm-1.647.957-1.12.653v.101l1.31.754a.167.167 0 0 0 .18 0l1.12-.652v-.102l-1.31-.731a.167.167 0 0 0-.18 0v-.023Zm-1.636.946-1.121.653v.112l1.3.754a.2.2 0 0 0 .18 0l1.12-.653c.056 0 0-.078 0-.1l-1.3-.755a.201.201 0 0 0-.18-.045v.034Zm8.405 1.125 1.12-.653c.057 0 0-.078 0-.112l-1.3-.754a.246.246 0 0 0-.179 0l-1.12.653v.1l1.3.755c.052.036.119.044.179.023v-.012Zm14.446-14.43-1.121.652v.101l1.311.755a.167.167 0 0 0 .18 0l1.12-.653v-.102l-1.3-.754a.167.167 0 0 0-.19 0Zm-1.984 1.125-1.12.653v.112l1.3.755a.2.2 0 0 0 .179 0l1.12-.653c.056 0 0-.08 0-.102l-1.3-.754a.2.2 0 0 0-.179-.011Zm3.631-2.105-1.12.653c-.057 0 0 .079 0 .101l1.3.754a.2.2 0 0 0 .179 0l1.12-.653v-.112l-1.3-.754a.246.246 0 0 0-.179.056v-.045Zm-8.517 8.825 1.12-.653v-.112l-1.3-.755a.246.246 0 0 0-.179 0l-1.12.653v.102l1.3.754c.048.043.115.06.179.045v-.034Zm10.344-9.77a.2.2 0 0 0-.18 0l-1.12.652v.113l1.3.754a.246.246 0 0 0 .18 0l1.12-.653v-.101l-1.3-.766Zm-16.273 15.432 1.121-.653v-.101l-1.3-.754a.223.223 0 0 0-.19 0l-1.121.653v.112l1.3.755a.246.246 0 0 0 .19-.012Zm20.173-11.695 1.12-.653c.057 0 0-.08 0-.113l-1.3-.754a.2.2 0 0 0-.179 0l-1.12.653v.101l1.3.754a.2.2 0 0 0 .179-.011v.023Zm-3.508-.136 1.12-.652v-.102l-1.3-.754a.2.2 0 0 0-.178 0l-1.121.653c-.056 0 0 .068 0 .101l1.3.754c.059.029.129.02.18-.022v.022Zm1.468-2.465a.246.246 0 0 0-.179 0l-1.12.653v.101l1.3.755a.2.2 0 0 0 .179 0l1.12-.653v-.113l-1.3-.743Zm.348-.191 3.16 1.823a.2.2 0 0 0 .18 0l1.12-.652c.056 0 0-.08 0-.102l-3.16-1.835a.2.2 0 0 0-.18 0l-1.12.653s-.056.057 0 .09v.023Zm-3.822 2.105-1.12.653c-.057 0 0 .067 0 .101l1.3.754a.167.167 0 0 0 .179 0l1.12-.653v-.1l-1.3-.755a.167.167 0 0 0-.179 0Zm-12.384 7.17-1.12.665v.1l1.31.755a.2.2 0 0 0 .18 0l1.12-.653v-.101l-1.3-.754a.201.201 0 0 0-.19-.034v.022Zm16.049-5.56a.167.167 0 0 0 .18 0l1.12-.653v-.102l-1.3-.754a.167.167 0 0 0-.18 0l-1.12.653v.101l1.3.755Zm-14.424 4.592-1.12.653v.102l1.3.754a.167.167 0 0 0 .179 0l1.12-.653v-.101l-1.3-.755a.167.167 0 0 0-.156 0h-.023Zm-12.327 10.92a.2.2 0 0 0 .179 0l1.12-.654a.068.068 0 0 0 0-.112l-1.3-.754a.279.279 0 0 0-.19 0l-1.12.653v.1l1.31.766Zm-2.477-2.33-1.12.652v.101l1.3.755a.2.2 0 0 0 .178 0l1.121-.653v-.102l-1.3-.754a.167.167 0 0 0-.157 0h-.022Zm4.303 1.384 1.121-.653v-.101l-1.3-.755a.2.2 0 0 0-.18 0l-1.12.653a.068.068 0 0 0 0 .113l1.311.754a.246.246 0 0 0 .19-.011h-.022Zm1.637-.957 1.12-.653v-.101l-1.3-.754a.167.167 0 0 0-.18 0l-1.12.652c-.056 0 0 .068 0 .102l1.3.754c.063.036.14.036.202 0h-.022Zm1.647-.957 1.12-.653v-.101l-1.3-.754a.167.167 0 0 0-.179 0l-1.12.653v.1l1.3.755c.06.045.142.045.201 0h-.022Zm-5.94-.428-1.12.653v.102l1.3.754a.167.167 0 0 0 .179 0l1.12-.653v-.101l-1.3-.755a.167.167 0 0 0-.156 0h-.023Zm1.648-.956-1.121.652v.102l1.3.754a.2.2 0 0 0 .18 0l1.12-.653c.056 0 0-.079 0-.113l-1.3-.754a.246.246 0 0 0-.157.012h-.022Zm6.578-3.816-1.12.652v.102l1.3.754a.2.2 0 0 0 .179 0l1.12-.653c.057 0 0-.079 0-.113l-1.3-.754a.246.246 0 0 0-.156.012h-.023Zm-1.647.956-1.12.653v.102l1.3.754a.167.167 0 0 0 .178 0l1.121-.653v-.101l-1.3-.755a.167.167 0 0 0-.157 0h-.022Zm3.295-1.913-1.121.653v.112l1.3.754a.246.246 0 0 0 .18 0l1.12-.653v-.1l-1.3-.755a.2.2 0 0 0-.157-.011h-.022Zm-6.59 3.816-1.12.653a.068.068 0 0 0 0 .112l1.31.754a.246.246 0 0 0 .18 0l1.12-.653v-.1l-1.31-.755a.2.2 0 0 0-.158-.011h-.022Zm1.647-.946-1.12.653c-.056 0 0 .068 0 .101l1.3.755a.2.2 0 0 0 .179 0l1.12-.653v-.102l-1.3-.754a.167.167 0 0 0-.156 0h-.023Zm-1.199 6.754 1.12-.653c.057 0 0-.079 0-.101l-1.3-.754a.2.2 0 0 0-.178 0l-1.121.653v.101l1.3.765a.246.246 0 0 0 .202-.033l-.023.022Zm-9.65-.98-1.31-.753a.2.2 0 0 0-.18 0l-1.12.653a.068.068 0 0 0 0 .112l1.31.754a.2.2 0 0 0 .18 0l1.12-.653s.068-.1.023-.135l-.022.023Zm2.455.721-1.3-.754a.246.246 0 0 0-.18 0l-1.725 1.002a.068.068 0 0 0 0 .112l1.311.755a.246.246 0 0 0 .18 0l1.725-1.002s.068-.101.012-.135l-.023.022Zm-4.483-2.184-1.3-.754a.2.2 0 0 0-.179 0l-1.378.8c-.056 0 0 .078 0 .1l1.3.766a.246.246 0 0 0 .179 0l1.39-.81s.09-.09.033-.124l-.045.022Zm1.121-.607a.246.246 0 0 0 .18 0l1.12-.653v-.102l-1.3-.754a.2.2 0 0 0-.18 0l-1.12.653v.101l1.3.755Zm5.693 3.624-1.3-.754a.167.167 0 0 0-.179 0l-2.163 1.25c-.056 0 0 .078 0 .1l1.3.755a.2.2 0 0 0 .18 0l2.174-1.26s.033-.08-.023-.113l.011.022Zm1.121 1.531-1.3-.754a.2.2 0 0 0-.18 0l-1.378.81v.102l1.3.754a.167.167 0 0 0 .18 0l1.39-.8s-.012-.1-.068-.134l.056.022Zm5.47-12.258a.2.2 0 0 0 .178 0l1.121-.653v-.113l-1.3-.754a.246.246 0 0 0-.18 0l-1.12.653v.101l1.3.766Zm-3.296 1.913a.167.167 0 0 0 .18 0l1.12-.653c.056 0 0-.067 0-.1l-1.3-.755a.167.167 0 0 0-.18 0l-1.12.653v.101l1.3.754Zm-7.296 4.233a.2.2 0 0 0 .18 0l1.12-.653c.056 0 0-.079 0-.101l-1.3-.755a.2.2 0 0 0-.179 0l-1.12.653v.113l1.3.743Zm8.966-5.19a.167.167 0 0 0 .18 0l1.12-.652v-.102l-1.3-.754a.19.19 0 0 0-.19 0l-1.121.653v.101l1.311.754Zm-3.295 1.914a.246.246 0 0 0 .18 0l1.12-.653v-.101l-1.3-.754a.2.2 0 0 0-.18 0l-1.12.653v.112l1.3.743Zm.381 9.512a.2.2 0 0 0-.18 0l-1.725 1.013c-.056 0 0 .068 0 .101l1.3.755a.167.167 0 0 0 .18 0l1.736-1.002v-.102l-1.31-.765Zm-2.746-8.15a.2.2 0 0 0 .18 0l1.12-.653v-.112l-1.3-.754a.2.2 0 0 0-.179 0l-1.12.652v.102l1.3.765Zm-1.636.957a.167.167 0 0 0 .18 0l1.12-.653v-.101l-1.31-.754a.167.167 0 0 0-.18 0l-1.121.652v.102l1.311.754Zm34.787-10.514a.2.2 0 0 0-.18 0l-2.768 1.61v.101l1.3.754a.2.2 0 0 0 .18 0l2.768-1.61c.056 0 .056-.078 0-.1l-1.3-.755Zm-3.642 2.105a.167.167 0 0 0-.18 0l-1.12.653v.101l1.31.755a.167.167 0 0 0 .18 0l1.12-.653v-.102l-1.31-.754Zm-22.28 12.383 1.12-.653-1.31-.755a.2.2 0 0 0-.18 0l-1.12.653v.113l1.3.754a.202.202 0 0 0 .19-.101v-.011Zm19.052-10.48a.246.246 0 0 0-.18 0l-1.12.653v.1l1.3.755a.2.2 0 0 0 .18 0l1.12-.653c.056 0 0-.079 0-.112l-1.3-.743Zm8.573-4.965a.2.2 0 0 0-.179 0l-1.12.653v.113l1.3.754a.2.2 0 0 0 .179 0l1.12-.653v-.101l-1.3-.766Zm2.948-.202-3.172-1.835a.2.2 0 0 0-.179 0l-1.12.653v.101l3.16 1.835a.167.167 0 0 0 .179 0l1.12-.653s0-.067-.044-.067l.056-.034Zm-17.674 8.735a.2.2 0 0 0-.179 0l-1.39.8v.1l1.3.766a.246.246 0 0 0 .18 0l1.39-.81v-.102l-1.3-.754Zm4.158-2.409a.167.167 0 0 0-.18 0l-1.736 1.002v.101l1.3.754a.2.2 0 0 0 .18 0l1.736-1.013v-.101l-1.3-.743Zm-7.968 4.615a.246.246 0 0 0-.18 0l-9.268 5.37v.112l1.3.754a.2.2 0 0 0 .18 0l9.268-5.369v-.113l-1.3-.754Zm-9.784 5.629a.246.246 0 0 0-.18 0l-1.389.81v.101l1.3.755a.2.2 0 0 0 .18 0l1.39-.8v-.1l-1.3-.766Zm11.69-6.754a.2.2 0 0 0-.18 0l-1.39.799v.112l1.3.755a.246.246 0 0 0 .18 0l1.39-.8v-.112l-1.3-.754Zm-13.595 7.88a.2.2 0 0 0-.18 0l-1.389.81v.101l1.3.754a.167.167 0 0 0 .18 0l1.389-.799v-.101l-1.3-.766Zm17.405-10.132a.167.167 0 0 0-.18 0l-1.39.8v.1l1.3.755a.2.2 0 0 0 .18 0l1.39-.81v-.102l-1.3-.743Zm5.883-3.377a.2.2 0 0 0-.18 0l-1.12.653v.113l1.3.754a.246.246 0 0 0 .18 0l1.12-.653-1.3-.867Zm3.609-2.634 1.12-.653v-.101l-1.3-.754a.2.2 0 0 0-.179 0l-1.12.653v.112l1.3.754c.036.025.08.037.123.034l.056-.045Zm-7.352 0 1.12-.653v-.101l-1.3-.754a.223.223 0 0 0-.19 0l-1.12.653v.101l1.3.765a.246.246 0 0 0 .134-.01h.056Zm-3.732 6.473 3.295-1.903v-.112l-1.3-.754a.2.2 0 0 0-.18 0l-3.294 1.902v.113l1.3.754a.2.2 0 0 0 .18 0Zm9.257-5.482a.2.2 0 0 0 .18 0l1.12-.653v-.101l-1.3-.755a.2.2 0 0 0-.18 0l-1.12.653c-.056 0 0 .08 0 .102l1.3.754Zm-1.68-1.126 1.12-.653v-.101l-1.3-.754a.2.2 0 0 0-.18 0l-1.12.653c-.056 0 0 .078 0 .112l1.3.754a.201.201 0 0 0 .123.045l.056-.056Zm-9.28 7.62 1.12-.652v-.101l-1.3-.754a.2.2 0 0 0-.179 0l-1.12.652c-.057 0 0 .08 0 .102l1.3.754a.2.2 0 0 0 .179 0Zm7.273-4.322a.167.167 0 0 0 .18 0l1.12-.653c.056 0 0-.067 0-.1l-1.3-.755a.167.167 0 0 0-.18 0l-1.12.653v.101l1.3.754Zm-15.5 9.096 1.121-.653v-.113l-1.3-.754a.246.246 0 0 0-.179 0l-1.12.653c-.057 0 0 .079 0 .101l1.3.754a.201.201 0 0 0 .179-.045v.057Zm1.648-.957 1.12-.653v-.101l-1.3-.754a.2.2 0 0 0-.178 0l-1.121.652v.102l1.3.765a.246.246 0 0 0 .18-.067v.056Zm-3.284 1.812 1.121-.653v-.1l-1.3-.755a.167.167 0 0 0-.18 0l-1.12.653v.101l1.311.754c.052.03.116.03.168 0Zm6.579-3.816 1.12-.653v-.101l-1.31-.754a.167.167 0 0 0-.18 0l-1.12.653v.101l1.3.754c.05.05.126.064.19.034v-.034Zm-1.647.957 1.12-.653c.056 0 0-.079 0-.101l-1.3-.754a.2.2 0 0 0-.179 0l-1.12.653v.112l1.3.754c.052.036.119.044.179.023v-.034Zm3.272-1.869 1.12-.652v-.113l-1.3-.754a.2.2 0 0 0-.179 0l-1.12.653 1.31.754a.202.202 0 0 0 .169.112Zm7.52-14.115a.2.2 0 0 0 .18 0l1.12-.653v-.102l-.347-.202a.167.167 0 0 0-.18 0l-1.12.653c-.056 0 0 .067 0 .101l.347.203Zm-8.092 5.245a.167.167 0 0 0 .18 0l1.12-.653c.057 0 0-.067 0-.101l-1.3-.754a.167.167 0 0 0-.179 0l-1.12.653v.101l1.3.754Zm3.284-1.913a.2.2 0 0 0 .18 0l1.12-.653v-.102l-1.3-.765a.246.246 0 0 0-.18 0l-1.12.653v.101l1.3.766Zm-5.267 3.129a.2.2 0 0 0 .18 0l1.12-.653v-.101l-1.311-.766a.246.246 0 0 0-.18 0l-1.12.653v.101l1.31.766Zm3.653-2.116a.2.2 0 0 0 .18 0l1.12-.653a.068.068 0 0 0 0-.113l-1.31-.754a.2.2 0 0 0-.18 0l-1.12.653v.101l1.31.766Zm-6.948 4.03a.167.167 0 0 0 .18 0l1.12-.653c.056 0 0-.068 0-.102l-1.3-.754a.167.167 0 0 0-.18 0l-1.12.653v.101l1.3.755Zm1.647-.957a.2.2 0 0 0 .18 0l1.12-.653v-.113l-1.3-.754a.2.2 0 0 0-.179 0l-1.12.653v.101l1.3.766Zm8.462-5.46a.2.2 0 0 0 .179 0l1.12-.653v-.112l-.335-.203a.246.246 0 0 0-.18 0l-1.12.653v.101l.336.214Zm4.93-2.859a.167.167 0 0 0 .18 0l1.12-.653c.057 0 0-.067 0-.101l-.347-.203a.2.2 0 0 0-.179 0l-1.12.653v.101l.347.203Zm2.735 1.587a.167.167 0 0 0 .18 0l1.12-.653c.056 0 0-.067 0-.101l-1.3-.754a.167.167 0 0 0-.179 0l-1.12.653v.101l1.3.754Zm4.113 4.188 1.121-.653c.056 0 0-.068 0-.101l-1.3-.755a.167.167 0 0 0-.18 0l-1.12.653v.102l1.3.754a.168.168 0 0 0 .18-.057v.057Zm-10.142-3.873a.2.2 0 0 0 .18 0l1.12-.652v-.102l-.347-.202a.2.2 0 0 0-.18 0l-1.12.652a.068.068 0 0 0 0 .113l.347.191Zm-13.392 8.33a.2.2 0 0 0 .179 0l1.12-.653v-.1l-1.3-.755a.2.2 0 0 0-.179 0l-1.12.653v.112l1.3.743Z" fill="#C3CCD2"/>
                <g>
                    <path d="m546.545 279.216-13.449 7.8h-.067l-5.088-2.983a2.774 2.774 0 0 1-1.244-2.724l1.905-9.906 11.207-9.106 2.242 1.305-1.894 9.906a2.763 2.763 0 0 0 1.233 2.724l5.155 2.984Z" fill="#5C667A"/>
                    <path d="M533.096 287.016v2.6l-7.026-4.097a4.16 4.16 0 0 1-1.872-4.108l2.163-11.325 2.241 1.295-1.905 9.906a2.774 2.774 0 0 0 1.244 2.724l5.077 2.95.078.055Z" fill="#263238"/>
                    <path fill="#37474F" d="m546.545 279.216-13.449 7.8v2.6l13.45-7.8z"/>
                    <path d="M558.895 213.477a2.592 2.592 0 0 1 1.12 2.037v41.47a2.659 2.659 0 0 1-1.198 2.082l-51.452 29.83a2.233 2.233 0 0 1-2.326.047 2.254 2.254 0 0 1-1.115-2.05v-41.425a2.659 2.659 0 0 1 1.2-2.082l51.451-29.842a2.556 2.556 0 0 1 2.32-.067Z" fill="#292F3B"/>
                    <path d="M507.365 288.896a2.233 2.233 0 0 1-2.326.047 2.254 2.254 0 0 1-1.115-2.05v-41.425c.024-.398.143-.784.348-1.126l40.043 23.167-36.95 21.387Z" fill="#1E2022"/>
                    <path d="M560.016 257.006v-41.47c0-.765-.538-1.125-1.2-.686l-51.451 29.841a2.648 2.648 0 0 0-1.2 2.072v41.47c0 .765.539 1.125 1.2.697l51.452-29.841a2.659 2.659 0 0 0 1.199-2.083Z" fill="#292F3B"/>
                    <path d="m557.08 217.157-48.84 28.322c-.57.363-.928.98-.965 1.655v36.82c0 .608.426.867.964.552l48.84-28.254c.565-.37.92-.99.953-1.666v-36.81c.011-.675-.415-.922-.953-.619Z" fill="#FFF"/>
                </g>
            </g>
        </g>
    </g>
</svg>
