<svg width="550" height="549" xmlns="http://www.w3.org/2000/svg">
    <g fill-rule="nonzero" fill="none">
        <ellipse cx="274.53" cy="158.5" rx="274.53" ry="158.5" transform="translate(.47 231.691)" fill="#000" opacity=".2"/>
        <g fill="#F0F0F0" opacity=".2">
            <path d="m257.152 43.483-8.614 5.034c.049-.396.072-.794.07-1.193v-2.48c0-4.497-3.106-6.322-6.954-4.08a13.663 13.663 0 0 0-4.142 4.043c-.624-5.653-5.001-7.752-10.32-4.651-5.743 3.363-10.403 11.545-10.403 18.272v3.781c-.02 1.51.293 3.006.918 4.378l-7.143 4.186a8.67 8.67 0 0 0-3.86 6.775c0 2.492 1.73 3.506 3.86 2.254l46.588-27.29A8.66 8.66 0 0 0 261 45.738c0-2.529-1.718-3.507-3.848-2.255ZM124.214 74.077l5.566-4.342V57.32c0-9.84 7.743-21.266 16.157-26.24 8.413-4.878 15.286-.883 15.286 8.957v1.801a21.968 21.968 0 0 1 7.06-7.156c6.049-3.578 10.956-.668 10.956 6.417v.823l7.755-4.544c3.989-2.386 7.225-.442 7.225 4.222-.275 5.152-2.96 9.863-7.225 12.679l-62.78 36.7c-3.978 2.385-7.214.441-7.214-4.223.276-5.149 2.955-9.857 7.214-12.678Z"/>
        </g>
        <path d="m287.496 458.184 53.764-31.071c5.534-3.203 8.277-7.387 8.277-11.582v-7.47l-50.595-28.707a11.817 11.817 0 0 1-5.345-9.266v-66.22l-93.907 54.236v66.243a11.818 11.818 0 0 0 5.357 9.266l42.247 24.595c11.15 6.393 29.123 6.393 40.202-.024Z" fill="#F5F5F5"/>
        <path d="M222.298 436.06v7.445l-17.216-9.916a11.817 11.817 0 0 1-5.344-9.265V358.08l17.925-10.318c.378 4.538.78 9.242 1.182 13.804l-12.616 7.304v51.765a11.817 11.817 0 0 0 5.345 9.266l10.724 6.158Z" fill="#000" opacity=".15"/>
        <path d="M206.229 420.6a11.817 11.817 0 0 0 5.345 9.267l35.78 20.848c11.078 6.393 29.051 6.393 40.142 0l53.776-31.024c11.09-6.394 11.09-16.759 0-23.153l-35.803-20.86a11.818 11.818 0 0 1-5.357-9.265v-51.766l-93.883 54.224v51.73Z" fill="#E6E6E6"/>
        <path d="m316.382 381.93-10.902-6.287a11.818 11.818 0 0 1-5.356-9.266v-51.765L206.23 368.87v51.765a11.817 11.817 0 0 0 5.345 9.266l10.712 6.181 94.096-54.153Z" fill="#000" opacity=".15"/>
        <path d="M94.373 461.446c3.465 1.997 9.27 1.89 13.007-.237l308.928-178.283a14.748 14.748 0 0 0 6.692-11.57V12.766c0-4.255-2.814-9.337-6.279-11.335-3.464-1.997-9.27-1.89-13.006.237L94.787 179.95a14.784 14.784 0 0 0-6.692 11.582v258.579c0 4.255 2.814 9.337 6.278 11.334Z" fill="#5C667A"/>
        <path d="m107.332 461.198 308.976-178.272A14.772 14.772 0 0 0 423 271.344V12.765c0-4.266-2.991-5.992-6.692-3.864L107.344 187.184a14.762 14.762 0 0 0-6.693 11.582v258.579c-.047 4.254 2.992 5.992 6.681 3.853Z" fill="#292F3B"/>
        <path d="M100.604 434.594v22.75c0 4.255 2.992 5.993 6.681 3.854l309.023-178.272A14.772 14.772 0 0 0 423 271.344v-22.75l-322.396 186Z" fill="#EBEBEB"/>
        <path d="M109.484 413.439V201.744a9.1 9.1 0 0 1 4.115-7.09L409.994 23.578c2.27-1.312 4.114-.248 4.114 2.364v211.742a9.052 9.052 0 0 1-4.114 7.09L113.61 415.816c-2.282 1.3-4.127.248-4.127-2.376Z" fill="#01645F"/>
        <path d="m90.07 184.927 12.545 7.22a14.107 14.107 0 0 0-2.01 6.607v258.59c0 3.89 2.624 6.064 6.68 3.865a14.195 14.195 0 0 1-13.006.237A12.87 12.87 0 0 1 88 450.916V191.591a13.764 13.764 0 0 1 2.07-6.665Z" fill="#1E2022"/>
        <path d="m255.95 357.667 15.122-8.675c1.36-.78 2.46-.224 2.46 1.241a5.235 5.235 0 0 1-2.46 4.066l-15.123 8.663c-1.36.78-2.46.224-2.46-1.182a5.283 5.283 0 0 1 2.46-4.113Z" fill="#933CDD"/>
        <g>
            <path d="M116.874 225.054A6.51 6.51 0 0 1 114 219.91v-16.615a6.7 6.7 0 0 1 3.064-5.286L410.697 28.871a5.713 5.713 0 0 1 5.887-.106 5.684 5.684 0 0 1 2.842 5.145v16.602a6.7 6.7 0 0 1-3.04 5.25L122.765 224.949a6.52 6.52 0 0 1-5.89.106Z" fill="#18C3BB"/>
            <path d="M419.402 33.414c-.213-1.57-1.49-2.147-3.004-1.262L122.765 201.325a6.627 6.627 0 0 0-2.153 2.265l-5.701-3.292a6.485 6.485 0 0 1 2.153-2.289L410.708 28.883a5.678 5.678 0 0 1 5.657-.236 5.651 5.651 0 0 1 3.037 4.767Z" fill="#FFF" opacity=".2"/>
            <path d="M120.612 203.59a6.207 6.207 0 0 0-.887 2.986v9.133L114 212.44v-9.51c.02-.255.06-.507.118-.755a7.07 7.07 0 0 1 .757-1.877l5.737 3.292Z" fill="#000" opacity=".15"/>
            <path d="M411.11 39.656c1.089-.625 1.964-.118 1.964 1.18a4.328 4.328 0 0 1-1.963 3.387c-1.077.625-1.952.118-1.952-1.18a4.328 4.328 0 0 1 1.952-3.387ZM404.049 43.715c1.088-.625 1.963-.118 1.963 1.18a4.328 4.328 0 0 1-1.963 3.399c-1.088.613-1.964.118-1.964-1.18a4.328 4.328 0 0 1 1.964-3.399ZM396.975 47.786c1.089-.625 1.964-.118 1.964 1.18a4.328 4.328 0 0 1-1.964 3.387c-1.076.625-1.963.118-1.963-1.18a4.34 4.34 0 0 1 1.963-3.387Z" fill="#FFF"/>
            <path d="M122.765 414.228a5.463 5.463 0 0 1-2.366.72 6.045 6.045 0 0 1-3.548-.614 6.439 6.439 0 0 1-2.851-5.109V212.464l5.725 3.245V412.47c0 1.369.698 2.171 1.692 2.171.475-.03.937-.172 1.348-.413Z" fill="#E0E0E0"/>
            <path d="M419.438 239.804a6.664 6.664 0 0 1-3.04 5.25L122.765 414.229c-1.68.968-3.04.177-3.04-1.758V215.71l8.363-4.814 85.875-49.465L419.438 43.055v196.749Z" fill="#FAFAFA"/>
            <path d="M418.231 45.143V239.84a5.531 5.531 0 0 1-2.436 4.213L122.162 413.178c-.225.151-.487.24-.757.26-.414 0-.473-.602-.473-.968V216.43l7.77-4.472 85.841-49.453 203.688-117.36m1.183-2.09L213.964 161.43l-85.876 49.465-8.363 4.814V412.47c0 1.369.686 2.171 1.68 2.171.48-.02.949-.162 1.36-.413l293.633-169.173a6.664 6.664 0 0 0 3.04-5.251V43.054h-.024Z" fill="#EBEBEB"/>
            <g>
                <path d="m201.744 185.572-68.546 39.482a3.609 3.609 0 0 0-1.644 2.832V374.77c0 1.05.733 1.463 1.644.944l68.606-39.482a3.609 3.609 0 0 0 1.632-2.82V186.516c-.06-1.038-.793-1.487-1.692-.944Z" fill="#D7DEE2"/>
                <path d="m208.025 190.351-68.558 39.518a3.609 3.609 0 0 0-1.632 2.82v146.86a3.538 3.538 0 0 0 1.644 2.808l3.123 1.77a3.758 3.758 0 0 0 3.276 0l68.606-39.482a3.62 3.62 0 0 0 1.632-2.832V194.906a3.539 3.539 0 0 0-1.691-2.797l-3.123-1.77a3.675 3.675 0 0 0-3.277.012Z" fill="#933CDD"/>
                <path d="M145.937 384.115a3.758 3.758 0 0 1-3.276 0l-3.123-1.77a3.538 3.538 0 0 1-1.644-2.808V232.653c.023-.59.202-1.165.52-1.663l6.34 3.681a3.192 3.192 0 0 0-.485 1.605v146.883c-.023.956.65 1.51 1.668.956Z" fill="#FFF" opacity=".5"/>
                <path d="M216.045 194.61c-.13-.813-.792-1.108-1.62-.648l-68.488 39.447c-.486.289-.892.695-1.183 1.18l-6.41-3.54c.283-.49.691-.897 1.182-1.18l68.606-39.482a3.699 3.699 0 0 1 3.288 0l3.111 1.77a3.539 3.539 0 0 1 1.514 2.454Z" fill="#FFF" opacity=".9"/>
                <path d="m214.437 193.962-68.5 39.447a3.644 3.644 0 0 0-1.632 2.831v146.931c0 1.039.733 1.463 1.632.944l68.606-39.482a3.62 3.62 0 0 0 1.632-2.832V194.906c-.106-1.039-.84-1.463-1.738-.944Z" fill="#FFF" opacity=".9"/>
                <path d="M153.626 246.07a1.66 1.66 0 0 1-.805-.2 2.122 2.122 0 0 1-.91-1.96 6.357 6.357 0 0 1 2.886-4.98 1.873 1.873 0 0 1 2.149-.197 1.863 1.863 0 0 1 .903 1.956 6.357 6.357 0 0 1-2.887 4.98c-.401.25-.863.388-1.336.4Zm1.336-6.844a5.991 5.991 0 0 0-2.708 4.72c-.148.655.149 1.329.732 1.664a1.54 1.54 0 0 0 1.81-.201 5.991 5.991 0 0 0 2.71-4.72 1.792 1.792 0 0 0-.734-1.652 1.778 1.778 0 0 0-1.81.189Z" fill="#BA68C8"/>
                <path d="M154.88 240.665c.78-.448 1.419-.082 1.419.815a3.149 3.149 0 0 1-1.42 2.454c-.78.448-1.419.083-1.419-.814a3.149 3.149 0 0 1 1.42-2.455Z" fill="#BA68C8"/>
                <path d="m164.141 234.671 43.163-24.862c.875-.496 1.573-.094 1.573.909v.967a3.432 3.432 0 0 1-1.573 2.702l-43.163 24.921c-.863.496-1.573.095-1.573-.896v-.98a3.456 3.456 0 0 1 1.573-2.76Z" fill="#FFF"/>
                <path d="M153.626 259.64a1.54 1.54 0 0 1-.805-.213 2.122 2.122 0 0 1-.91-1.959 6.357 6.357 0 0 1 2.886-4.98 1.873 1.873 0 0 1 2.149-.197 1.863 1.863 0 0 1 .903 1.956 6.334 6.334 0 0 1-2.887 4.98 2.69 2.69 0 0 1-1.336.412Zm1.254-6.998.082.142a5.991 5.991 0 0 0-2.708 4.72c-.148.655.149 1.329.732 1.664a1.54 1.54 0 0 0 1.81-.201 5.991 5.991 0 0 0 2.71-4.72 1.533 1.533 0 0 0-.733-1.665 1.54 1.54 0 0 0-1.81.202l-.083-.142Z" fill="#BA68C8"/>
                <path d="m164.141 248.229 43.163-24.862c.875-.496 1.573-.094 1.573.908v.968a3.432 3.432 0 0 1-1.573 2.702l-43.163 24.862c-.863.496-1.573.095-1.573-.896v-.968a3.467 3.467 0 0 1 1.573-2.714Z" fill="#BA68C8" opacity=".2"/>
                <path d="M153.626 273.197a1.54 1.54 0 0 1-.805-.212 2.11 2.11 0 0 1-.91-1.959 6.357 6.357 0 0 1 2.886-4.98 1.873 1.873 0 0 1 2.149-.197 1.863 1.863 0 0 1 .903 1.956 6.334 6.334 0 0 1-2.887 4.98 2.69 2.69 0 0 1-1.336.412Zm1.336-6.855a5.991 5.991 0 0 0-2.708 4.72c-.148.654.149 1.329.732 1.664a1.54 1.54 0 0 0 1.81-.201 5.991 5.991 0 0 0 2.71-4.72 1.792 1.792 0 0 0-.734-1.652 1.837 1.837 0 0 0-1.81.189Z" fill="#BA68C8"/>
                <path d="M154.88 267.793c.78-.448 1.419-.094 1.419.814a3.125 3.125 0 0 1-1.42 2.443c-.78.448-1.419.082-1.419-.814.057-.993.584-1.9 1.42-2.443Z" fill="#BA68C8"/>
                <path d="m164.141 261.787 43.163-24.839c.875-.495 1.573-.094 1.573.909v.968a3.432 3.432 0 0 1-1.573 2.702l-43.163 24.838c-.863.496-1.573.095-1.573-.896v-.968a3.538 3.538 0 0 1 1.573-2.714Z" fill="#FFF"/>
                <path d="M153.626 286.755a1.54 1.54 0 0 1-.805-.212 2.098 2.098 0 0 1-.91-1.959 6.357 6.357 0 0 1 2.886-4.98 1.873 1.873 0 0 1 2.149-.197 1.863 1.863 0 0 1 .903 1.956 6.322 6.322 0 0 1-2.887 4.98 2.69 2.69 0 0 1-1.336.412Zm1.336-6.844a5.991 5.991 0 0 0-2.708 4.72c-.148.655.149 1.33.732 1.665a1.54 1.54 0 0 0 1.81-.201 5.991 5.991 0 0 0 2.71-4.72c.14-.653-.16-1.321-.74-1.653a1.54 1.54 0 0 0-1.804.201v-.012Z" fill="#BA68C8"/>
                <path d="M154.88 281.351c.78-.448 1.419-.083 1.419.814a3.125 3.125 0 0 1-1.42 2.443c-.78.448-1.419.082-1.419-.814.057-.994.584-1.9 1.42-2.443Z" fill="#BA68C8"/>
                <path d="m164.141 275.357 43.163-24.862c.875-.508 1.573-.095 1.573.896v.968a3.409 3.409 0 0 1-1.573 2.702l-43.163 24.862c-.863.508-1.573.095-1.573-.897v-.967a3.444 3.444 0 0 1 1.573-2.702Z" fill="#FFF"/>
                <path d="M153.626 300.313a1.54 1.54 0 0 1-.805-.212 2.087 2.087 0 0 1-.91-1.947 6.333 6.333 0 0 1 2.886-4.98 1.873 1.873 0 0 1 2.149-.197 1.863 1.863 0 0 1 .903 1.956 6.357 6.357 0 0 1-2.887 4.979 2.796 2.796 0 0 1-1.336.401Zm1.336-6.844a5.991 5.991 0 0 0-2.708 4.72c-.14.653.159 1.321.74 1.653.58.331 1.31.25 1.803-.201a5.991 5.991 0 0 0 2.709-4.72 1.533 1.533 0 0 0-.733-1.665 1.54 1.54 0 0 0-1.81.202v.011Z" fill="#BA68C8"/>
                <path d="m164.141 288.867 43.163-24.78c.875-.506 1.573-.093 1.573.898v.967a3.444 3.444 0 0 1-1.573 2.714l-43.163 24.827c-.863.496-1.573.094-1.573-.909v-.967a3.456 3.456 0 0 1 1.573-2.75Z" fill="#BA68C8" opacity=".2"/>
                <path d="M153.626 313.871a1.54 1.54 0 0 1-.805-.212 2.087 2.087 0 0 1-.91-1.947 6.334 6.334 0 0 1 2.886-4.98 1.873 1.873 0 0 1 2.149-.197 1.863 1.863 0 0 1 .903 1.955 6.357 6.357 0 0 1-2.887 4.98c-.401.25-.863.388-1.336.401Zm1.336-6.844a5.991 5.991 0 0 0-2.708 4.72 1.792 1.792 0 0 0 .733 1.652c.594.261 1.283.19 1.81-.189a5.991 5.991 0 0 0 2.709-4.72 1.533 1.533 0 0 0-.733-1.664 1.54 1.54 0 0 0-1.81.201Z" fill="#BA68C8"/>
                <path d="M154.88 308.467c.78-.449 1.419-.083 1.419.814a3.125 3.125 0 0 1-1.42 2.443c-.78.448-1.419.094-1.419-.815.057-.993.584-1.9 1.42-2.442Z" fill="#BA68C8"/>
                <path d="m164.141 302.473 43.163-24.863c.875-.495 1.573-.094 1.573.897v.92a3.432 3.432 0 0 1-1.573 2.715L164.14 307.05c-.863.495-1.573.094-1.573-.909v-.967a3.456 3.456 0 0 1 1.573-2.702Z" fill="#FFF"/>
                <path d="M153.626 327.43a1.54 1.54 0 0 1-.805-.213 2.087 2.087 0 0 1-.91-1.947 6.334 6.334 0 0 1 2.886-4.98 1.873 1.873 0 0 1 2.149-.197 1.863 1.863 0 0 1 .903 1.955 6.357 6.357 0 0 1-2.887 4.98c-.401.25-.863.388-1.336.401Zm2.496-7.199a2.37 2.37 0 0 0-1.183.354 5.991 5.991 0 0 0-2.709 4.72c-.147.655.15 1.33.732 1.665a1.54 1.54 0 0 0 1.811-.202 5.991 5.991 0 0 0 2.709-4.72 1.815 1.815 0 0 0-.733-1.663 1.328 1.328 0 0 0-.627-.154Z" fill="#BA68C8"/>
                <path d="m164.141 316.007 43.163-24.78c.875-.495 1.573-.094 1.573.897v.98a3.432 3.432 0 0 1-1.573 2.702l-43.163 24.803c-.863.495-1.573.094-1.573-.909v-.967a3.456 3.456 0 0 1 1.573-2.726Z" fill="#BA68C8" opacity=".2"/>
                <path d="M153.626 340.987a1.66 1.66 0 0 1-.805-.2 2.122 2.122 0 0 1-.91-1.96 6.357 6.357 0 0 1 2.886-4.979 1.873 1.873 0 0 1 2.149-.197 1.863 1.863 0 0 1 .903 1.955 6.357 6.357 0 0 1-2.887 4.98c-.401.25-.863.388-1.336.401Zm1.336-6.844a5.991 5.991 0 0 0-2.708 4.72 1.78 1.78 0 0 0 .733 1.652 1.813 1.813 0 0 0 1.81-.189 5.991 5.991 0 0 0 2.709-4.72 1.533 1.533 0 0 0-.733-1.664 1.54 1.54 0 0 0-1.81.201Z" fill="#BA68C8"/>
                <path d="m164.141 329.588 43.163-24.862c.875-.495 1.573-.094 1.573.909v.932a3.432 3.432 0 0 1-1.573 2.702l-43.163 24.898c-.863.495-1.573.094-1.573-.897v-.98a3.456 3.456 0 0 1 1.573-2.702Z" fill="#BA68C8" opacity=".2"/>
                <path d="M153.626 354.557a1.54 1.54 0 0 1-.805-.213 2.122 2.122 0 0 1-.91-1.958 6.357 6.357 0 0 1 2.886-4.98 1.873 1.873 0 0 1 2.149-.197 1.863 1.863 0 0 1 .903 1.955 6.334 6.334 0 0 1-2.887 4.98 2.69 2.69 0 0 1-1.336.413Zm1.336-6.856a5.991 5.991 0 0 0-2.708 4.72 1.804 1.804 0 0 0 .733 1.664c.597.255 1.284.179 1.81-.2a5.991 5.991 0 0 0 2.709-4.72 1.533 1.533 0 0 0-.733-1.665 1.54 1.54 0 0 0-1.81.201Z" fill="#BA68C8"/>
                <path d="m164.141 343.146 43.163-24.862c.875-.495 1.573-.094 1.573.909v.967a3.432 3.432 0 0 1-1.573 2.703l-43.163 24.862c-.863.495-1.573.094-1.573-.897v-.968a3.467 3.467 0 0 1 1.573-2.714Z" fill="#BA68C8" opacity=".2"/>
                <path d="M153.626 368.115a1.54 1.54 0 0 1-.805-.213 2.11 2.11 0 0 1-.91-1.958 6.357 6.357 0 0 1 2.886-4.98 1.873 1.873 0 0 1 2.149-.197 1.863 1.863 0 0 1 .903 1.955 6.334 6.334 0 0 1-2.887 4.98 2.69 2.69 0 0 1-1.336.413Zm1.336-6.856a5.991 5.991 0 0 0-2.708 4.72c-.148.655.149 1.33.732 1.665a1.54 1.54 0 0 0 1.81-.202 5.991 5.991 0 0 0 2.71-4.72 1.792 1.792 0 0 0-.734-1.652 1.837 1.837 0 0 0-1.81.19Z" fill="#BA68C8"/>
                <path d="M154.88 362.71c.78-.448 1.419-.094 1.419.815a3.125 3.125 0 0 1-1.42 2.442c-.78.449-1.419.083-1.419-.814.057-.993.584-1.9 1.42-2.443Z" fill="#BA68C8"/>
                <path d="m164.141 356.704 43.163-24.862c.875-.495 1.573-.094 1.573.909v.956a3.432 3.432 0 0 1-1.573 2.702l-43.163 24.874c-.863.507-1.573.094-1.573-.897v-.968a3.538 3.538 0 0 1 1.573-2.714Z" fill="#FFF"/>
            </g>
            <g>
                <path d="m387.785 78.43-156.682 90.221a3.609 3.609 0 0 0-1.644 2.832v146.884c0 1.05.733 1.463 1.644.944l156.658-90.21a3.611 3.611 0 0 0 1.633-2.831V79.374c.023-1.038-.699-1.463-1.61-.944Z" fill="#D7DEE2"/>
                <path d="m394.066 83.21-156.658 90.22a3.538 3.538 0 0 0-1.645 2.82v146.896a3.538 3.538 0 0 0 1.645 2.808l3.122 1.77a3.758 3.758 0 0 0 3.277 0l156.67-90.221a3.62 3.62 0 0 0 1.632-2.832V87.776a3.538 3.538 0 0 0-1.644-2.82l-3.111-1.759a3.663 3.663 0 0 0-3.288.012Z" fill="#933CDD"/>
                <path d="M243.807 327.712a3.758 3.758 0 0 1-3.277 0l-3.122-1.77a3.538 3.538 0 0 1-1.645-2.808V176.25c.023-.59.203-1.165.521-1.663l6.376 3.681a3.192 3.192 0 0 0-.485 1.605v146.884c0 .955.674 1.51 1.632.955Z" fill="#FFF" opacity=".5"/>
                <path d="M402.085 87.469c-.118-.814-.792-1.11-1.608-.65l-156.658 90.222c-.486.29-.893.695-1.183 1.18l-6.388-3.682a3.332 3.332 0 0 1 1.183-1.18l156.635-90.15a3.663 3.663 0 0 1 3.288 0l3.11 1.758a3.54 3.54 0 0 1 1.621 2.502Z" fill="#FFF" opacity=".9"/>
                <path d="m400.477 86.832-156.67 90.209a3.644 3.644 0 0 0-1.632 2.832v146.895c0 1.039.733 1.464 1.632.944l156.67-90.22a3.62 3.62 0 0 0 1.632-2.833V87.776c0-1.05-.674-1.463-1.632-.944Z" fill="#FFF" opacity=".9"/>
                <path d="m256.818 184.487 58.434-33.677c1.443-.826 2.602-.153 2.602 1.499v44.756a5.72 5.72 0 0 1-2.602 4.508l-58.434 33.653c-1.443.837-2.614.165-2.614-1.499v-44.733a5.767 5.767 0 0 1 2.614-4.507ZM329.21 202.399l58.444-33.653c1.443-.826 2.603-.154 2.603 1.498v56.085a5.72 5.72 0 0 1-2.603 4.507l-58.374 33.606c-1.443.826-2.614.153-2.614-1.51v-56.014a5.79 5.79 0 0 1 2.543-4.52ZM291.973 223.85l23.279-13.404c1.443-.826 2.602-.153 2.602 1.51v22.196a5.72 5.72 0 0 1-2.602 4.507l-23.279 13.405c-1.443.826-2.614.153-2.614-1.51v-22.196a5.732 5.732 0 0 1 2.614-4.507ZM291.973 257.692l23.279-13.404c1.443-.826 2.602-.153 2.602 1.498v22.208a5.72 5.72 0 0 1-2.602 4.507l-23.279 13.405c-1.443.826-2.614.153-2.614-1.51V262.2a5.732 5.732 0 0 1 2.614-4.508Z" fill="#410F6C" opacity=".1"/>
            </g>
            <g>
                <path d="m285.798 267.392-29.961 17.287a3.644 3.644 0 0 0-1.633 2.831v23.01c0 1.038.734 1.463 1.633.944l29.961-17.298a3.62 3.62 0 0 0 1.633-2.832v-23.01c0-1.038-.734-1.463-1.633-.932Z" fill="#410F6C" opacity=".1"/>
                <path d="m292.08 272.159-29.962 17.298a3.609 3.609 0 0 0-1.633 2.832v23.01a3.538 3.538 0 0 0 1.644 2.808l3.123 1.758a3.722 3.722 0 0 0 3.277 0l29.997-17.31a3.609 3.609 0 0 0 1.632-2.832v-22.998a3.538 3.538 0 0 0-1.644-2.82l-3.123-1.758a3.64 3.64 0 0 0-3.312.012Z" fill="#E0E0E0"/>
                <path d="M300.1 276.43c-.13-.825-.793-1.18-1.61-.648L268.53 293.08a3.355 3.355 0 0 0-1.183 1.18l-6.388-3.682c.27-.48.656-.886 1.124-1.18l29.962-17.298a3.663 3.663 0 0 1 3.288 0l3.111 1.758a3.54 3.54 0 0 1 1.656 2.572Z" fill="#FAFAFA"/>
                <path d="m298.526 275.782-29.962 17.298a3.609 3.609 0 0 0-1.632 2.82v23.01c0 1.038.733 1.463 1.632.944l29.962-17.299a3.609 3.609 0 0 0 1.632-2.832v-22.998c-.035-1.05-.769-1.463-1.632-.943Z" fill="#FAFAFA"/>
                <path d="M298.916 276.914v22.81a2.43 2.43 0 0 1-1.029 1.793l-29.784 17.192v-22.762a2.359 2.359 0 0 1 1.029-1.781l29.784-17.205m.308-1.356c-.26.007-.514.085-.733.224l-29.962 17.298a3.609 3.609 0 0 0-1.633 2.82v23.01c0 .743.367 1.18.9 1.18.26-.008.513-.086.733-.224l29.997-17.358a3.609 3.609 0 0 0 1.632-2.832v-22.998c0-.743-.366-1.18-.899-1.18l-.035.06Z" fill="#EBEBEB"/>
                <path d="M296.29 280.608v19.139c-.027.288-.178.55-.414.72l-25.147 14.525v-19.14c.025-.291.176-.558.414-.73l25.147-14.514m.178-.673a.546.546 0 0 0-.308.094l-25.301 14.573c-.406.262-.664.7-.698 1.18v19.305c0 .318.154.507.39.507a.664.664 0 0 0 .308-.094l25.301-14.502c.406-.262.664-.7.698-1.18v-19.352c0-.319-.154-.496-.39-.496v-.035Z" fill="#BA68C8"/>
            </g>
            <g>
                <path d="m285.798 227.945-29.961 17.263a3.609 3.609 0 0 0-1.633 2.82v23.01c0 1.038.734 1.463 1.633.944l29.961-17.298a3.609 3.609 0 0 0 1.633-2.832v-22.963c0-1.05-.734-1.463-1.633-.944Z" fill="#410F6C" opacity=".1"/>
                <path d="m292.08 232.712-29.962 17.299a3.62 3.62 0 0 0-1.633 2.832v23.045a3.538 3.538 0 0 0 1.644 2.808l3.123 1.758a3.722 3.722 0 0 0 3.277 0l29.997-17.345a3.609 3.609 0 0 0 1.632-2.82v-23.01a3.538 3.538 0 0 0-1.632-2.809l-3.123-1.77a3.675 3.675 0 0 0-3.324.012Z" fill="#E0E0E0"/>
                <path d="M300.1 236.948c-.13-.826-.793-1.12-1.61-.649l-29.961 17.299a3.355 3.355 0 0 0-1.183 1.18l-6.388-3.67a3.237 3.237 0 0 1 1.124-1.18l29.962-17.298a3.663 3.663 0 0 1 3.288 0l3.111 1.758a3.54 3.54 0 0 1 1.656 2.56Z" fill="#FAFAFA"/>
                <path d="m298.526 236.335-29.962 17.298a3.609 3.609 0 0 0-1.632 2.832v22.963c0 1.038.733 1.463 1.632.944l29.962-17.263a3.609 3.609 0 0 0 1.632-2.82v-23.01c-.035-1.039-.769-1.51-1.632-.944Z" fill="#FAFAFA"/>
                <path d="M298.916 237.48v22.808a2.43 2.43 0 0 1-1.029 1.782l-29.784 17.192v-22.797a2.43 2.43 0 0 1 1.029-1.793l29.784-17.193m.308-1.368c-.26.008-.514.085-.733.224l-29.962 17.298a3.609 3.609 0 0 0-1.633 2.832v22.963c0 .743.367 1.18.9 1.18.26-.008.513-.086.733-.225l29.997-17.274a3.609 3.609 0 0 0 1.632-2.82v-23.01c0-.744-.366-1.18-.899-1.18l-.035.012Z" fill="#EBEBEB"/>
                <path d="M296.29 241.208v19.128c-.03.29-.18.555-.414.731l-25.147 14.479v-19.14a.967.967 0 0 1 .414-.72l25.147-14.478m.178-.684a.664.664 0 0 0-.308.094l-25.301 14.573c-.406.262-.664.699-.698 1.18v19.316c0 .307.154.496.39.496a.664.664 0 0 0 .308-.095l25.301-14.537c.406-.262.664-.7.698-1.18v-19.34c0-.318-.154-.507-.39-.507Z" fill="#BA68C8"/>
            </g>
            <g>
                <path d="m441.652 75.587-107.64 62.043a3.609 3.609 0 0 0-1.644 2.832v87.684c0 1.038.733 1.463 1.644.944l107.64-62.043a3.623 3.623 0 0 0 1.633-2.832V76.53c.023-1.039-.71-1.464-1.633-.944Z" fill="#000" opacity=".1"/>
                <path d="M447.957 80.365 340.234 142.41a3.538 3.538 0 0 0-1.645 2.832v87.672a3.597 3.597 0 0 0 1.645 2.82l3.122 1.758a3.746 3.746 0 0 0 3.289 0l107.723-62.043a3.62 3.62 0 0 0 1.632-2.832V84.92a3.538 3.538 0 0 0-1.644-2.808l-3.123-1.758a3.64 3.64 0 0 0-3.276.011Z" fill="#E0E0E0"/>
                <path d="M455.976 84.625c-.13-.814-.804-1.109-1.62-.649L346.645 146.02a3.544 3.544 0 0 0-1.183 1.18l-6.376-3.681c.27-.481.656-.887 1.124-1.18l107.747-61.973a3.675 3.675 0 0 1 3.276 0l3.123 1.77a3.54 3.54 0 0 1 1.62 2.49Z" fill="#FAFAFA"/>
                <path d="m454.368 83.988-107.723 62.031a3.62 3.62 0 0 0-1.644 2.832v87.684c0 1.039.733 1.464 1.644.944l107.723-62.043a3.62 3.62 0 0 0 1.632-2.832V84.92c0-1.038-.733-1.463-1.632-.932Z" fill="#FAFAFA"/>
                <path d="M454.793 85.12v87.484a2.43 2.43 0 0 1-1.029 1.794l-107.557 61.937V148.85a2.43 2.43 0 0 1 1.041-1.781l107.545-61.95m.296-1.356c-.256.01-.505.087-.721.224l-107.723 62.031a3.62 3.62 0 0 0-1.644 2.832v87.684c0 .744.366 1.18.91 1.18.26-.01.512-.088.734-.224l107.723-62.043a3.62 3.62 0 0 0 1.632-2.832V84.92c0-.731-.367-1.18-.91-1.18v.024Z" fill="#EBEBEB"/>
                <path d="M448.524 95.8c.237 0 .249.59.249.66v71.554a4.588 4.588 0 0 1-2.011 3.47l-93.73 53.983a1.185 1.185 0 0 1-.556.19c-.236 0-.236-.59-.236-.662v-71.554a4.6 4.6 0 0 1 1.999-3.469L447.969 96c.165-.113.356-.182.555-.2m0-1.18a2.37 2.37 0 0 0-1.183.365l-93.73 53.973a5.79 5.79 0 0 0-2.602 4.507v71.554c0 1.18.58 1.864 1.444 1.864a2.37 2.37 0 0 0 1.182-.354l93.73-53.984a5.732 5.732 0 0 0 2.614-4.507V96.46c0-1.18-.591-1.864-1.455-1.864v.024Z" fill="#BA68C8"/>
            </g>
        </g>
        <g>
            <path d="M457.632 433.921c0 1.33.25 1.84-1.38 3s-5.16 1.76-7.84 1a7.23 7.23 0 0 1-4.33-2.61 34.83 34.83 0 0 1-2.52-3.8c-.47-.6-2.65-1.74-4.76-2.68-2.11-.94-6.47-3-8-6.55a8.56 8.56 0 0 1-.47-6.17l29.3 17.81Z" fill="#8AAECB"/>
            <path d="M443.462 415.661c4.3 2.81 7.91 9.85 13.78 7.71.3 3.44 1.21 7.16.39 10.55-2.5 3.09-8 3.69-11.14 1.46-1.59-1.35-2.48-2.94-4-4.37a15.19 15.19 0 0 0-4.22-2.57 47.48 47.48 0 0 1-5.11-2.83c-9.51-7-4.8-19.82 10.3-9.95Z" fill="#22689F"/>
            <path d="M428.322 454.011c0 1.44-.09 2.52-1 3.13-.91.61-7.47 1.69-9.22 1.9-1.75.21-2-.95-3.23-.54-1.23.41-4.09 2.5-8.38 3.45-4.29.95-7.81 2-13.77 0s-6.54-4.27-6.46-6.29c.08-2.02 42.06-1.65 42.06-1.65Z" fill="#8AAECB"/>
            <path d="M427.462 440.561c1 4.13 2 10.31.86 13.45-1.2 1.19-5.22 1.89-8.73 2.36a27.23 27.23 0 0 0-9.29 2.89c-6.81 2.85-18.78 3.88-23.55-2.53-4.77-8.56 20-6.45 23.07-16.36 1.08-3.6 13.14 1.17 17.64.19Z" fill="#22689F"/>
            <path d="M459.032 384.371a34.18 34.18 0 0 0-2.13-11.82c0-36.39 0-58-1.06-80.78 0 0-48.51-5.15-49.72 11.63-1.21 16.78-.89 64.35-.51 71.75.18 7.49 3.92 61 3.92 66.33 12.27 6.09 18.34.86 18.34.86-.35-17.83 3.32-40.72 1.24-51.35l3.59-37.2s8.42 58.66 9.84 72.29c3.63 5.38 13.2 2.3 14.91-1 .69-12.55 1.64-23.19 1.58-40.71Z" fill="#6D97B9"/>
            <path d="m432.652 353.791 2.58-22.05s8.39-3.25 13.77-10c-.21 4.66-5.64 9.38-10.51 11.86l-3.69 19 1.53 27.51-3.68-26.32Z" fill="#3C80B6"/>
            <g>
                <path d="M398.013 176.761c1.67 2.77 3.78 4.75 3.95 6.34a93.86 93.86 0 0 0 1.55 10.32c1.38 4.93 18 30.26 18 30.26s31.13 12 35 15.23c5.78 4.92 7.16 11.54 2.95 21 0 0-3.07-1.1-13.16-5.61s-26.56-12.58-30.62-14.91c-3.31-1.9-5.29-2.55-8.06-8.21-3.4-6.94-9.62-21.19-9.62-21.19l.01-33.23Z" fill="#C5907E"/>
                <path d="m415.903 214.621 5.85 8.76s28 11.52 31.41 13.22c3.79 1.89 11.09 6.51 8.74 16.65-2.35 10.14-3.12 12-3.12 12s-5-6.57-16.49-11.74c-11.49-5.17-24.77-12.82-29.31-15.38-2.81-1.58-3.78-3-5.86-7.54-2.15-4.69-4.25-9.59-4.25-9.59s8.29-8.25 13.03-6.38Z" fill="#292F3B"/>
                <path d="m399.163 181.861-1.15-3v1.48c.337.54.722 1.048 1.15 1.52Z" fill="#9A4A4D"/>
                <path d="M399.163 181.861a23.68 23.68 0 0 1-3.06-4.55c-.83-1.8-1.94-.89-2.13.38-.19 1.27 0 2.27 1.29 5.7.87 2.25 2.43 4.43 2.75 8.16l1.15-9.69Z" fill="#B16668"/>
                <path fill="#C5907E" d="m424.723 232.121.31 8.6 16.49-1.3-.8-14.33z"/>
                <path d="M415.583 212.641s-4.7 6.28-4.25 6.95c.45.67 3.59 1.44 3.59 1.44l.66-8.39Z" fill="#B1735D"/>
                <path d="M426.683 198.231c-7.58 1.13-11.67 3.4-11.54 15.28 0 3-1.13 5.12-1.19 8.55-.13 6.56 1.28 9.11 2.44 10.46 1 1.19 7 1.26 10.15.6 3.94-.84 13-2.9 17.48-8.91 5.25-7.07 7.12-17 2.21-21.36-6.91-6.2-16.46-5.08-19.55-4.62Z" fill="#C5907E"/>
                <path d="m424.773 233.391-.22-2.63s-3.74 2.68-7.65 2.12c1.33.77 4.91.85 7.87.51Z" fill="#9A4A4D"/>
                <path d="M416.323 203.111c-.15 2.66 2.72 4.16 4.71 4.43.59.11 1.2.07 1.77-.12a6.43 6.43 0 0 0 1.26 3.61c.66 1.29-.45 2-.59 4.15-.06 1 1.09 2.05 1.95.62.86-1.43 2.77-4.24 5.3-3.71 3.86.82 4.09 5.82 1.45 8.69-2.64 2.87-4.83 1.59-4.86 1.57 0 .8.09 5.13 3.74 7.49 2.24 1.45 6.27 2.86 9.75 1.69 2.32-.92 4-3.53 6.27-7.07a44.8 44.8 0 0 0 4.41-9.59c1.17-3.83 1.34-5.71.59-8.55a7.09 7.09 0 0 0-5.17-5.21c-.21-2.73-1.31-4.93-4.53-7.09-5.88-3.93-14-1.81-18.39-.5-2.45.73-5.37 2.17-7.86 2.86a9.44 9.44 0 0 1-2.81.23c-.27 0-1.23-.24-1.45-.08-.22.16-.13 1.1-.11 1.41a5.87 5.87 0 0 0 4.57 5.17Z" fill="#1E2022"/>
                <path d="M451.433 238.271c-9.54-2.15-10.11-2.32-10.11-2.32-.58 2.48-9.87 4.31-16.36 2.86-1.94.54-13.73 4.15-14.27 4.5 0 0-3.69 10-4.47 26.89-.78 16.89-1 50.28-1 50.28 10.14 7.51 48.7 2.45 51.53-13.8a146.73 146.73 0 0 1-.39-19.13 193.26 193.26 0 0 1 2.17-20.63c1.27-7.32 1.66-12.8 1-17-.63-4.81-3.39-10.6-8.1-11.65Z" fill="#5C667A"/>
                <path d="M374.453 265.881s-25.17-5-26.61-6c-1.22-.89-1.61-2.33-2.22-3.63a17.18 17.18 0 0 0-2.79-4c-.71-.8-1.58-1.49-2.24-2.33-.66-.84-.88-1.75-1.48-2.53-.6-.78-1.41-.22-1.79.53a4.48 4.48 0 0 0 .08 3.43c.19.48.35 1 .54 1.45.22.427.395.876.52 1.34a1.1 1.1 0 0 1-.05.72c-.27.46-1.12.15-1.5 0-2.49-1-3.68-2.24-5.57-3.9-.88-.78-1.68-1.58-2.57-2.36a10.66 10.66 0 0 0-2.71-1.8 4.35 4.35 0 0 0-2.3-.38c-1.09.4-.75 1.3.37 2.72.5.73.85 1.38.85 1.38a3.24 3.24 0 0 0 .39 3.26c.5.75 1.43 2.09 1.43 2.09a1.58 1.58 0 0 0-.2 1.21 8.75 8.75 0 0 0 1.29 2.69 5.08 5.08 0 0 1 .87 2.48c.22 2.13 2.82 3.73 4.48 4.75 1.9 1.18 3 1.22 5.12 1.91 1.15.38 2.26.84 3.41 1.19 1.15.35 2.1.51 3.1.89 2.4.92 20.93 8 28.32 10 3.65 1 4.63 1.92 9.76-.76 9.24-4.82 15.8-8 21.39-10.74 7.4-3.65 8.61-5.65 9.6-10.4 2.3-11-3.23-14.74-3.23-14.74-4.15.68-5.67 1.53-13.29 6.67-8.27 5.53-22.97 14.86-22.97 14.86Z" fill="#C5907E"/>
                <path d="M410.693 243.311c-6.86 1.68-9.5 4.17-22.5 12.68-11.24 7.35-13.85 9.42-13.85 9.42l-6.67-1.11s-2.16 1.53-3.88 6.09a9.82 9.82 0 0 0 0 7.76s8.82 3.09 11.08 3.79c2.26.7 2.45 1.21 7.46-1.05s25.72-12.39 27.54-13.34c2.38-1.24 5-4.66 5.76-11.5.76-6.84-2.14-12.26-4.94-12.74Z" fill="#292F3B"/>
            </g>
        </g>
    </g>
</svg>
