<svg width="60" height="60" viewBox="0 0 60 60" fill="none" xmlns="http://www.w3.org/2000/svg">
  <g id="icon-rapid-deployment">
      <g id="Group 22">
      <path id="Oval" d="M60 31C60 49.15 46.5685 52 30 52C13.4315 52 0 49.15 0 31C0 18.8497 13.4315 8 30 8C46.5685 8 60 18.8497 60 31Z" fill="url(#paint0_linear_1_37964)"/>
      <path id="Oval_2" d="M30 13C44.196 13 55 24.4638 55 39C55 40.1046 54.1046 41 53 41C51.8954 41 51 40.1046 51 39C51 26.6217 41.9321 17 30 17C18.0679 17 9 26.6217 9 39C9 40.1046 8.10457 41 7 41C5.89543 41 5 40.1046 5 39C5 24.4638 15.804 13 30 13Z" fill="url(#paint1_angular_1_37964)"/>
      <path id="Rectangle" fill-rule="evenodd" clip-rule="evenodd" d="M44.9208 24.3366L48.6722 21.0981L52.4236 25.3216L48.5193 29.1952L44.9208 24.3366Z" fill="#D9EEFE"/>
      <path id="Combined Shape" fill-rule="evenodd" clip-rule="evenodd" d="M34.7026 40.2974C34.8951 40.8288 35 41.4022 35 42C35 44.7614 32.7614 47 30 47C27.2386 47 25 44.7614 25 42C25 39.2386 27.2386 37 30 37C30.7959 37 31.5485 37.186 32.2164 37.5169L50.6495 22.2896C50.8482 22.1254 51.1392 22.1392 51.3215 22.3215L51.6464 22.6465C51.8417 22.8417 51.8417 23.1583 51.6464 23.3536L34.7026 40.2974Z" fill="#18C3BB"/>
    </g>
  </g>
  <defs>
    <linearGradient id="paint0_linear_1_37964" x1="0" y1="8" x2="0" y2="52" gradientUnits="userSpaceOnUse">
      <stop offset="0.00572109" stop-color="#E3F3FF"/>
      <stop offset="1" stop-color="#C5E5FD"/>
    </linearGradient>
    <radialGradient id="paint1_angular_1_37964" cx="0" cy="0" r="1" gradientUnits="userSpaceOnUse" gradientTransform="translate(30 27) scale(25 14)">
      <stop offset="0.0884592" stop-color="#933CDD"/>
      <stop offset="0.331504" stop-color="#933CDD" stop-opacity="0.01"/>
      <stop offset="0.484332" stop-color="#933CDD" stop-opacity="0.01"/>
      <stop offset="0.812628" stop-color="#933CDD" stop-opacity="0.5"/>
    </radialGradient>
  </defs>
</svg>
